solid OpenSCAD_Model
  facet normal -1 0 0
    outer loop
      vertex -3.5 49 0
      vertex -3.5 32.5 0.799999
      vertex -3.5 49 2.8
    endloop
  endfacet
  facet normal -1 0 0
    outer loop
      vertex -3.5 49 0
      vertex -3.5 17.5 0.799999
      vertex -3.5 32.5 0.799999
    endloop
  endfacet
  facet normal -1 0 0
    outer loop
      vertex -3.5 0 0
      vertex -3.5 17.5 0.799999
      vertex -3.5 49 0
    endloop
  endfacet
  facet normal -1 0 0
    outer loop
      vertex -3.5 0 2.8
      vertex -3.5 17.5 0.799999
      vertex -3.5 0 0
    endloop
  endfacet
  facet normal -1 0 0
    outer loop
      vertex -3.5 17.5 0.799999
      vertex -3.5 0 2.8
      vertex -3.5 17.5 2.8
    endloop
  endfacet
  facet normal -1 -0 0
    outer loop
      vertex -3.5 49 2.8
      vertex -3.5 32.5 0.799999
      vertex -3.5 32.5 2.8
    endloop
  endfacet
  facet normal 0 0 1
    outer loop
      vertex 0.95 0 2.8
      vertex 3.5 0 2.8
      vertex 3.23358 1.33939 2.8
    endloop
  endfacet
  facet normal 0 0 1
    outer loop
      vertex 0.877686 0.363549 2.8
      vertex 3.23358 1.33939 2.8
      vertex 2.47487 2.47487 2.8
    endloop
  endfacet
  facet normal 0 0 1
    outer loop
      vertex 3.5 0 2.8
      vertex 0.95 0 2.8
      vertex 3.23358 -1.33939 2.8
    endloop
  endfacet
  facet normal -0 0 1
    outer loop
      vertex 0.877686 -0.363549 2.8
      vertex 3.23358 -1.33939 2.8
      vertex 0.95 0 2.8
    endloop
  endfacet
  facet normal 0 0 1
    outer loop
      vertex 0.671751 0.671751 2.8
      vertex 2.47487 2.47487 2.8
      vertex 1.33939 3.23358 2.8
    endloop
  endfacet
  facet normal 0 0 1
    outer loop
      vertex 57.1223 0.363549 2.8
      vertex 54.7664 1.33939 2.8
      vertex 57.05 0 2.8
    endloop
  endfacet
  facet normal 0 0 1
    outer loop
      vertex 54.5 0 2.8
      vertex 57.05 0 2.8
      vertex 54.7664 1.33939 2.8
    endloop
  endfacet
  facet normal 0 -0 1
    outer loop
      vertex 54.7664 -1.33939 2.8
      vertex 57.05 0 2.8
      vertex 54.5 0 2.8
    endloop
  endfacet
  facet normal 0 0 1
    outer loop
      vertex 57.05 0 2.8
      vertex 55.5251 -2.47487 2.8
      vertex 55.862 -2.7 2.8
    endloop
  endfacet
  facet normal 0 -0 1
    outer loop
      vertex 55.5251 -2.47487 2.8
      vertex 57.05 0 2.8
      vertex 54.7664 -1.33939 2.8
    endloop
  endfacet
  facet normal 0 0 1
    outer loop
      vertex 57.1223 49.3635 2.8
      vertex 54.7664 50.3394 2.8
      vertex 57.05 49 2.8
    endloop
  endfacet
  facet normal 0 0 1
    outer loop
      vertex 57.05 49 2.8
      vertex 55.5251 46.5251 2.8
      vertex 56.6606 45.7664 2.8
    endloop
  endfacet
  facet normal 0 0 1
    outer loop
      vertex 54.5 49 2.8
      vertex 57.05 49 2.8
      vertex 54.7664 50.3394 2.8
    endloop
  endfacet
  facet normal 0 0 1
    outer loop
      vertex 57.05 49 2.8
      vertex 54.7664 47.6606 2.8
      vertex 55.5251 46.5251 2.8
    endloop
  endfacet
  facet normal 0 0 1
    outer loop
      vertex 57.05 49 2.8
      vertex 54.5 49 2.8
      vertex 54.7664 47.6606 2.8
    endloop
  endfacet
  facet normal 0 0 1
    outer loop
      vertex 0.95 49 2.8
      vertex 3.5 49 2.8
      vertex 3.23358 50.3394 2.8
    endloop
  endfacet
  facet normal 0 0 1
    outer loop
      vertex 0.877686 49.3635 2.8
      vertex 3.23358 50.3394 2.8
      vertex 2.47487 51.4749 2.8
    endloop
  endfacet
  facet normal 0 0 1
    outer loop
      vertex 3.5 49 2.8
      vertex 0.95 49 2.8
      vertex 3.23358 47.6606 2.8
    endloop
  endfacet
  facet normal 0 0 1
    outer loop
      vertex 0.671751 49.6718 2.8
      vertex 2.47487 51.4749 2.8
      vertex 2.13795 51.7 2.8
    endloop
  endfacet
  facet normal -0 0 1
    outer loop
      vertex 0.877686 48.6365 2.8
      vertex 3.23358 47.6606 2.8
      vertex 0.95 49 2.8
    endloop
  endfacet
  facet normal -0 0 1
    outer loop
      vertex -3.5 17.5 2.8
      vertex -2.7 2.13795 2.8
      vertex -2.7 17.5 2.8
    endloop
  endfacet
  facet normal 0 0 1
    outer loop
      vertex -2.7 2.13795 2.8
      vertex -3.5 17.5 2.8
      vertex -3.5 0 2.8
    endloop
  endfacet
  facet normal 0 0 1
    outer loop
      vertex -2.7 2.13795 2.8
      vertex -3.5 0 2.8
      vertex -3.23358 -1.33939 2.8
    endloop
  endfacet
  facet normal 0 0 1
    outer loop
      vertex 3.23358 1.33939 2.8
      vertex 0.877686 0.363549 2.8
      vertex 0.95 0 2.8
    endloop
  endfacet
  facet normal 0 0 1
    outer loop
      vertex 2.47487 2.47487 2.8
      vertex 0.671751 0.671751 2.8
      vertex 0.877686 0.363549 2.8
    endloop
  endfacet
  facet normal 0 0 1
    outer loop
      vertex 1.33939 3.23358 2.8
      vertex 0.363549 0.877686 2.8
      vertex 0.671751 0.671751 2.8
    endloop
  endfacet
  facet normal 0 0 1
    outer loop
      vertex 0 3.5 2.8
      vertex 0.363549 0.877686 2.8
      vertex 1.33939 3.23358 2.8
    endloop
  endfacet
  facet normal 0 0 1
    outer loop
      vertex 0 3.5 2.8
      vertex 0 0.95 2.8
      vertex 0.363549 0.877686 2.8
    endloop
  endfacet
  facet normal 0 0 1
    outer loop
      vertex 0 3.5 2.8
      vertex -0.363549 0.877686 2.8
      vertex 0 0.95 2.8
    endloop
  endfacet
  facet normal -0 0 1
    outer loop
      vertex -1.33939 3.23358 2.8
      vertex -0.363549 0.877686 2.8
      vertex 0 3.5 2.8
    endloop
  endfacet
  facet normal 0 0 1
    outer loop
      vertex -0.363549 0.877686 2.8
      vertex -1.33939 3.23358 2.8
      vertex -0.671751 0.671751 2.8
    endloop
  endfacet
  facet normal -0 0 1
    outer loop
      vertex -2.7 2.13795 2.8
      vertex -0.671751 0.671751 2.8
      vertex -2.47487 2.47487 2.8
    endloop
  endfacet
  facet normal -0 0 1
    outer loop
      vertex -2.47487 2.47487 2.8
      vertex -0.671751 0.671751 2.8
      vertex -1.33939 3.23358 2.8
    endloop
  endfacet
  facet normal -0 0 1
    outer loop
      vertex 0.671751 48.3282 2.8
      vertex 2.47487 46.5251 2.8
      vertex 0.877686 48.6365 2.8
    endloop
  endfacet
  facet normal 0 0 1
    outer loop
      vertex 2.47487 46.5251 2.8
      vertex 0.671751 48.3282 2.8
      vertex 1.33939 45.7664 2.8
    endloop
  endfacet
  facet normal -0 0 1
    outer loop
      vertex 0.363549 48.1223 2.8
      vertex 1.33939 45.7664 2.8
      vertex 0.671751 48.3282 2.8
    endloop
  endfacet
  facet normal -0 0 1
    outer loop
      vertex 0 48.05 2.8
      vertex 1.33939 45.7664 2.8
      vertex 0.363549 48.1223 2.8
    endloop
  endfacet
  facet normal 0 0 1
    outer loop
      vertex 0 48.05 2.8
      vertex 0 45.5 2.8
      vertex 1.33939 45.7664 2.8
    endloop
  endfacet
  facet normal 0 0 1
    outer loop
      vertex -0.363549 48.1223 2.8
      vertex 0 45.5 2.8
      vertex 0 48.05 2.8
    endloop
  endfacet
  facet normal 0 0 1
    outer loop
      vertex -1.33939 45.7664 2.8
      vertex -0.363549 48.1223 2.8
      vertex -0.671751 48.3282 2.8
    endloop
  endfacet
  facet normal 0 0 1
    outer loop
      vertex -2.7 46.862 2.8
      vertex -0.671751 48.3282 2.8
      vertex -0.877686 48.6365 2.8
    endloop
  endfacet
  facet normal 0 0 1
    outer loop
      vertex -0.363549 48.1223 2.8
      vertex -1.33939 45.7664 2.8
      vertex 0 45.5 2.8
    endloop
  endfacet
  facet normal -0 0 1
    outer loop
      vertex -3.5 49 2.8
      vertex -0.877686 48.6365 2.8
      vertex -0.95 49 2.8
    endloop
  endfacet
  facet normal -0 0 1
    outer loop
      vertex -3.23358 50.3394 2.8
      vertex -0.877686 49.3635 2.8
      vertex -2.47487 51.4749 2.8
    endloop
  endfacet
  facet normal 0 0 1
    outer loop
      vertex -0.877686 49.3635 2.8
      vertex -3.23358 50.3394 2.8
      vertex -0.95 49 2.8
    endloop
  endfacet
  facet normal 0 0 1
    outer loop
      vertex -0.671751 48.3282 2.8
      vertex -2.7 46.862 2.8
      vertex -2.47487 46.5251 2.8
    endloop
  endfacet
  facet normal 0 0 1
    outer loop
      vertex -0.671751 48.3282 2.8
      vertex -2.47487 46.5251 2.8
      vertex -1.33939 45.7664 2.8
    endloop
  endfacet
  facet normal 0 0 1
    outer loop
      vertex -3.5 49 2.8
      vertex -0.95 49 2.8
      vertex -3.23358 50.3394 2.8
    endloop
  endfacet
  facet normal 0 0 1
    outer loop
      vertex -0.877686 48.6365 2.8
      vertex -3.5 49 2.8
      vertex -2.7 46.862 2.8
    endloop
  endfacet
  facet normal 0 0 1
    outer loop
      vertex -3.5 32.5 2.8
      vertex -2.7 46.862 2.8
      vertex -3.5 49 2.8
    endloop
  endfacet
  facet normal 0 0 1
    outer loop
      vertex -2.7 46.862 2.8
      vertex -3.5 32.5 2.8
      vertex -2.7 32.5 2.8
    endloop
  endfacet
  facet normal 0 0 1
    outer loop
      vertex 58.95 49 2.8
      vertex 61.5 49 2.8
      vertex 61.2336 50.3394 2.8
    endloop
  endfacet
  facet normal 0 0 1
    outer loop
      vertex 61.5 49 2.8
      vertex 60.7 46.862 2.8
      vertex 61.5 0 2.8
    endloop
  endfacet
  facet normal -0 0 1
    outer loop
      vertex 60.7 2.13795 2.8
      vertex 61.5 0 2.8
      vertex 60.7 46.862 2.8
    endloop
  endfacet
  facet normal 0 0 1
    outer loop
      vertex 58.8777 49.3635 2.8
      vertex 61.2336 50.3394 2.8
      vertex 60.4749 51.4749 2.8
    endloop
  endfacet
  facet normal 0 0 1
    outer loop
      vertex 58.8777 48.6365 2.8
      vertex 61.5 49 2.8
      vertex 58.95 49 2.8
    endloop
  endfacet
  facet normal 0 0 1
    outer loop
      vertex 58.6718 49.6718 2.8
      vertex 60.4749 51.4749 2.8
      vertex 59.3394 52.2336 2.8
    endloop
  endfacet
  facet normal 0 0 1
    outer loop
      vertex 61.5 49 2.8
      vertex 58.8777 48.6365 2.8
      vertex 60.7 46.862 2.8
    endloop
  endfacet
  facet normal -0 0 1
    outer loop
      vertex 58.6718 48.3282 2.8
      vertex 60.7 46.862 2.8
      vertex 58.8777 48.6365 2.8
    endloop
  endfacet
  facet normal 0 0 1
    outer loop
      vertex 61.2336 50.3394 2.8
      vertex 58.8777 49.3635 2.8
      vertex 58.95 49 2.8
    endloop
  endfacet
  facet normal 0 0 1
    outer loop
      vertex 60.4749 51.4749 2.8
      vertex 58.6718 49.6718 2.8
      vertex 58.8777 49.3635 2.8
    endloop
  endfacet
  facet normal 0 0 1
    outer loop
      vertex 59.3394 52.2336 2.8
      vertex 58.3635 49.8777 2.8
      vertex 58.6718 49.6718 2.8
    endloop
  endfacet
  facet normal 0 0 1
    outer loop
      vertex 58 52.5 2.8
      vertex 58.3635 49.8777 2.8
      vertex 59.3394 52.2336 2.8
    endloop
  endfacet
  facet normal 0 0 1
    outer loop
      vertex 58 52.5 2.8
      vertex 58 49.95 2.8
      vertex 58.3635 49.8777 2.8
    endloop
  endfacet
  facet normal 0 0 1
    outer loop
      vertex 58 52.5 2.8
      vertex 57.6365 49.8777 2.8
      vertex 58 49.95 2.8
    endloop
  endfacet
  facet normal -0 0 1
    outer loop
      vertex 55.862 51.7 2.8
      vertex 57.6365 49.8777 2.8
      vertex 58 52.5 2.8
    endloop
  endfacet
  facet normal 0 0 1
    outer loop
      vertex 57.6365 49.8777 2.8
      vertex 55.862 51.7 2.8
      vertex 57.3282 49.6718 2.8
    endloop
  endfacet
  facet normal -0 0 1
    outer loop
      vertex 54.7664 50.3394 2.8
      vertex 57.1223 49.3635 2.8
      vertex 55.5251 51.4749 2.8
    endloop
  endfacet
  facet normal 0 0 1
    outer loop
      vertex 57.3282 49.6718 2.8
      vertex 55.5251 51.4749 2.8
      vertex 57.1223 49.3635 2.8
    endloop
  endfacet
  facet normal -0 0 1
    outer loop
      vertex 55.5251 51.4749 2.8
      vertex 57.3282 49.6718 2.8
      vertex 55.862 51.7 2.8
    endloop
  endfacet
  facet normal 0 0 1
    outer loop
      vertex 58 52.5 2.8
      vertex 2.13795 51.7 2.8
      vertex 55.862 51.7 2.8
    endloop
  endfacet
  facet normal 0 0 1
    outer loop
      vertex 3.23358 47.6606 2.8
      vertex 0.877686 48.6365 2.8
      vertex 2.47487 46.5251 2.8
    endloop
  endfacet
  facet normal 0 0 1
    outer loop
      vertex 3.23358 50.3394 2.8
      vertex 0.877686 49.3635 2.8
      vertex 0.95 49 2.8
    endloop
  endfacet
  facet normal 0 0 1
    outer loop
      vertex 2.47487 51.4749 2.8
      vertex 0.671751 49.6718 2.8
      vertex 0.877686 49.3635 2.8
    endloop
  endfacet
  facet normal 0 0 1
    outer loop
      vertex 2.13795 51.7 2.8
      vertex 0.363549 49.8777 2.8
      vertex 0.671751 49.6718 2.8
    endloop
  endfacet
  facet normal -0 0 1
    outer loop
      vertex 0 52.5 2.8
      vertex 2.13795 51.7 2.8
      vertex 58 52.5 2.8
    endloop
  endfacet
  facet normal 0 0 1
    outer loop
      vertex 0 52.5 2.8
      vertex 0.363549 49.8777 2.8
      vertex 2.13795 51.7 2.8
    endloop
  endfacet
  facet normal 0 0 1
    outer loop
      vertex 0 52.5 2.8
      vertex 0 49.95 2.8
      vertex 0.363549 49.8777 2.8
    endloop
  endfacet
  facet normal 0 0 1
    outer loop
      vertex 0 52.5 2.8
      vertex -0.363549 49.8777 2.8
      vertex 0 49.95 2.8
    endloop
  endfacet
  facet normal -0 0 1
    outer loop
      vertex -1.33939 52.2336 2.8
      vertex -0.363549 49.8777 2.8
      vertex 0 52.5 2.8
    endloop
  endfacet
  facet normal 0 0 1
    outer loop
      vertex -0.363549 49.8777 2.8
      vertex -1.33939 52.2336 2.8
      vertex -0.671751 49.6718 2.8
    endloop
  endfacet
  facet normal 0 0 1
    outer loop
      vertex -0.671751 49.6718 2.8
      vertex -2.47487 51.4749 2.8
      vertex -0.877686 49.3635 2.8
    endloop
  endfacet
  facet normal -0 0 1
    outer loop
      vertex -2.47487 51.4749 2.8
      vertex -0.671751 49.6718 2.8
      vertex -1.33939 52.2336 2.8
    endloop
  endfacet
  facet normal -0 0 1
    outer loop
      vertex 58.8777 0.363549 2.8
      vertex 61.5 0 2.8
      vertex 60.7 2.13795 2.8
    endloop
  endfacet
  facet normal 0 0 1
    outer loop
      vertex 58.6718 0.671751 2.8
      vertex 60.7 2.13795 2.8
      vertex 60.4749 2.47487 2.8
    endloop
  endfacet
  facet normal 0 0 1
    outer loop
      vertex 61.5 0 2.8
      vertex 58.95 0 2.8
      vertex 61.2336 -1.33939 2.8
    endloop
  endfacet
  facet normal 0 0 1
    outer loop
      vertex 58.6718 0.671751 2.8
      vertex 60.4749 2.47487 2.8
      vertex 59.3394 3.23358 2.8
    endloop
  endfacet
  facet normal -0 0 1
    outer loop
      vertex 58.8777 -0.363549 2.8
      vertex 61.2336 -1.33939 2.8
      vertex 58.95 0 2.8
    endloop
  endfacet
  facet normal 0 0 1
    outer loop
      vertex 61.2336 -1.33939 2.8
      vertex 58.8777 -0.363549 2.8
      vertex 60.4749 -2.47487 2.8
    endloop
  endfacet
  facet normal 0 0 1
    outer loop
      vertex 61.5 0 2.8
      vertex 58.8777 0.363549 2.8
      vertex 58.95 0 2.8
    endloop
  endfacet
  facet normal 0 0 1
    outer loop
      vertex 60.7 2.13795 2.8
      vertex 58.6718 0.671751 2.8
      vertex 58.8777 0.363549 2.8
    endloop
  endfacet
  facet normal 0 0 1
    outer loop
      vertex 59.3394 3.23358 2.8
      vertex 58.3635 0.877686 2.8
      vertex 58.6718 0.671751 2.8
    endloop
  endfacet
  facet normal 0 0 1
    outer loop
      vertex 58 3.5 2.8
      vertex 58.3635 0.877686 2.8
      vertex 59.3394 3.23358 2.8
    endloop
  endfacet
  facet normal 0 0 1
    outer loop
      vertex 58 3.5 2.8
      vertex 58 0.95 2.8
      vertex 58.3635 0.877686 2.8
    endloop
  endfacet
  facet normal 0 0 1
    outer loop
      vertex 58 3.5 2.8
      vertex 57.6365 0.877686 2.8
      vertex 58 0.95 2.8
    endloop
  endfacet
  facet normal -0 0 1
    outer loop
      vertex 56.6606 3.23358 2.8
      vertex 57.6365 0.877686 2.8
      vertex 58 3.5 2.8
    endloop
  endfacet
  facet normal 0 0 1
    outer loop
      vertex 57.6365 0.877686 2.8
      vertex 56.6606 3.23358 2.8
      vertex 57.3282 0.671751 2.8
    endloop
  endfacet
  facet normal 0 0 1
    outer loop
      vertex 57.3282 0.671751 2.8
      vertex 55.5251 2.47487 2.8
      vertex 57.1223 0.363549 2.8
    endloop
  endfacet
  facet normal -0 0 1
    outer loop
      vertex 55.5251 2.47487 2.8
      vertex 57.3282 0.671751 2.8
      vertex 56.6606 3.23358 2.8
    endloop
  endfacet
  facet normal 0 0 1
    outer loop
      vertex 60.7 46.862 2.8
      vertex 58.6718 48.3282 2.8
      vertex 60.4749 46.5251 2.8
    endloop
  endfacet
  facet normal 0 0 1
    outer loop
      vertex 60.4749 46.5251 2.8
      vertex 58.6718 48.3282 2.8
      vertex 59.3394 45.7664 2.8
    endloop
  endfacet
  facet normal -0 0 1
    outer loop
      vertex 58.3635 48.1223 2.8
      vertex 59.3394 45.7664 2.8
      vertex 58.6718 48.3282 2.8
    endloop
  endfacet
  facet normal -0 0 1
    outer loop
      vertex 58 48.05 2.8
      vertex 59.3394 45.7664 2.8
      vertex 58.3635 48.1223 2.8
    endloop
  endfacet
  facet normal 0 0 1
    outer loop
      vertex 58 48.05 2.8
      vertex 58 45.5 2.8
      vertex 59.3394 45.7664 2.8
    endloop
  endfacet
  facet normal 0 0 1
    outer loop
      vertex 57.6365 48.1223 2.8
      vertex 58 45.5 2.8
      vertex 58 48.05 2.8
    endloop
  endfacet
  facet normal 0 0 1
    outer loop
      vertex 56.6606 45.7664 2.8
      vertex 57.6365 48.1223 2.8
      vertex 57.3282 48.3282 2.8
    endloop
  endfacet
  facet normal 0 0 1
    outer loop
      vertex 56.6606 45.7664 2.8
      vertex 57.3282 48.3282 2.8
      vertex 57.1223 48.6365 2.8
    endloop
  endfacet
  facet normal 0 0 1
    outer loop
      vertex 57.6365 48.1223 2.8
      vertex 56.6606 45.7664 2.8
      vertex 58 45.5 2.8
    endloop
  endfacet
  facet normal 0 0 1
    outer loop
      vertex 56.6606 45.7664 2.8
      vertex 57.1223 48.6365 2.8
      vertex 57.05 49 2.8
    endloop
  endfacet
  facet normal -0 0 1
    outer loop
      vertex 58.6718 -0.671751 2.8
      vertex 60.4749 -2.47487 2.8
      vertex 58.8777 -0.363549 2.8
    endloop
  endfacet
  facet normal 0 0 1
    outer loop
      vertex 60.4749 -2.47487 2.8
      vertex 58.6718 -0.671751 2.8
      vertex 59.3394 -3.23358 2.8
    endloop
  endfacet
  facet normal -0 0 1
    outer loop
      vertex 58.3635 -0.877686 2.8
      vertex 59.3394 -3.23358 2.8
      vertex 58.6718 -0.671751 2.8
    endloop
  endfacet
  facet normal -0 0 1
    outer loop
      vertex 58 -0.95 2.8
      vertex 59.3394 -3.23358 2.8
      vertex 58.3635 -0.877686 2.8
    endloop
  endfacet
  facet normal 0 0 1
    outer loop
      vertex 58 -0.95 2.8
      vertex 58 -3.5 2.8
      vertex 59.3394 -3.23358 2.8
    endloop
  endfacet
  facet normal 0 0 1
    outer loop
      vertex 57.6365 -0.877686 2.8
      vertex 58 -3.5 2.8
      vertex 58 -0.95 2.8
    endloop
  endfacet
  facet normal 0 0 1
    outer loop
      vertex 55.862 -2.7 2.8
      vertex 57.6365 -0.877686 2.8
      vertex 57.3282 -0.671751 2.8
    endloop
  endfacet
  facet normal 0 0 1
    outer loop
      vertex 55.862 -2.7 2.8
      vertex 57.3282 -0.671751 2.8
      vertex 57.1223 -0.363549 2.8
    endloop
  endfacet
  facet normal -0 0 1
    outer loop
      vertex 54.7664 1.33939 2.8
      vertex 57.1223 0.363549 2.8
      vertex 55.5251 2.47487 2.8
    endloop
  endfacet
  facet normal 0 0 1
    outer loop
      vertex 55.862 -2.7 2.8
      vertex 57.1223 -0.363549 2.8
      vertex 57.05 0 2.8
    endloop
  endfacet
  facet normal 0 0 1
    outer loop
      vertex 57.6365 -0.877686 2.8
      vertex 55.862 -2.7 2.8
      vertex 58 -3.5 2.8
    endloop
  endfacet
  facet normal -0 0 1
    outer loop
      vertex 2.13795 -2.7 2.8
      vertex 58 -3.5 2.8
      vertex 55.862 -2.7 2.8
    endloop
  endfacet
  facet normal 0 0 1
    outer loop
      vertex 3.23358 -1.33939 2.8
      vertex 0.877686 -0.363549 2.8
      vertex 2.47487 -2.47487 2.8
    endloop
  endfacet
  facet normal -0 0 1
    outer loop
      vertex 0.671751 -0.671751 2.8
      vertex 2.47487 -2.47487 2.8
      vertex 0.877686 -0.363549 2.8
    endloop
  endfacet
  facet normal 0 0 1
    outer loop
      vertex 2.47487 -2.47487 2.8
      vertex 0.671751 -0.671751 2.8
      vertex 2.13795 -2.7 2.8
    endloop
  endfacet
  facet normal -0 0 1
    outer loop
      vertex 0.363549 -0.877686 2.8
      vertex 2.13795 -2.7 2.8
      vertex 0.671751 -0.671751 2.8
    endloop
  endfacet
  facet normal 0 0 1
    outer loop
      vertex 0 -3.5 2.8
      vertex 0.363549 -0.877686 2.8
      vertex 0 -0.95 2.8
    endloop
  endfacet
  facet normal 0 0 1
    outer loop
      vertex 2.13795 -2.7 2.8
      vertex 0 -3.5 2.8
      vertex 58 -3.5 2.8
    endloop
  endfacet
  facet normal 0 0 1
    outer loop
      vertex 0.363549 -0.877686 2.8
      vertex 0 -3.5 2.8
      vertex 2.13795 -2.7 2.8
    endloop
  endfacet
  facet normal 0 0 1
    outer loop
      vertex -0.363549 -0.877686 2.8
      vertex 0 -3.5 2.8
      vertex 0 -0.95 2.8
    endloop
  endfacet
  facet normal 0 0 1
    outer loop
      vertex -1.33939 -3.23358 2.8
      vertex -0.363549 -0.877686 2.8
      vertex -0.671751 -0.671751 2.8
    endloop
  endfacet
  facet normal 0 0 1
    outer loop
      vertex -2.47487 -2.47487 2.8
      vertex -0.671751 -0.671751 2.8
      vertex -0.877686 -0.363549 2.8
    endloop
  endfacet
  facet normal 0 0 1
    outer loop
      vertex -0.363549 -0.877686 2.8
      vertex -1.33939 -3.23358 2.8
      vertex 0 -3.5 2.8
    endloop
  endfacet
  facet normal 0 0 1
    outer loop
      vertex -3.23358 -1.33939 2.8
      vertex -0.877686 -0.363549 2.8
      vertex -0.95 0 2.8
    endloop
  endfacet
  facet normal 0 0 1
    outer loop
      vertex -0.671751 0.671751 2.8
      vertex -2.7 2.13795 2.8
      vertex -0.877686 0.363549 2.8
    endloop
  endfacet
  facet normal 0 0 1
    outer loop
      vertex -0.877686 0.363549 2.8
      vertex -2.7 2.13795 2.8
      vertex -0.95 0 2.8
    endloop
  endfacet
  facet normal 0 0 1
    outer loop
      vertex -3.23358 -1.33939 2.8
      vertex -0.95 0 2.8
      vertex -2.7 2.13795 2.8
    endloop
  endfacet
  facet normal 0 0 1
    outer loop
      vertex -0.671751 -0.671751 2.8
      vertex -2.47487 -2.47487 2.8
      vertex -1.33939 -3.23358 2.8
    endloop
  endfacet
  facet normal 0 0 1
    outer loop
      vertex -0.877686 -0.363549 2.8
      vertex -3.23358 -1.33939 2.8
      vertex -2.47487 -2.47487 2.8
    endloop
  endfacet
  facet normal 1 -0 0
    outer loop
      vertex 61.5 0 2.8
      vertex 61.5 49 0
      vertex 61.5 49 2.8
    endloop
  endfacet
  facet normal 1 0 0
    outer loop
      vertex 61.5 49 0
      vertex 61.5 0 2.8
      vertex 61.5 0 0
    endloop
  endfacet
  facet normal 0 0 -1
    outer loop
      vertex 57.3282 0.671751 0
      vertex 0.671751 0.671751 0
      vertex 57.3282 48.3282 0
    endloop
  endfacet
  facet normal 0 0 -1
    outer loop
      vertex 57.3282 48.3282 0
      vertex 0.877686 48.6365 0
      vertex 0.95 49 0
    endloop
  endfacet
  facet normal 0 0 -1
    outer loop
      vertex 0.671751 48.3282 0
      vertex 57.3282 48.3282 0
      vertex 0.671751 0.671751 0
    endloop
  endfacet
  facet normal 0 0 -1
    outer loop
      vertex 57.3282 48.3282 0
      vertex 0.671751 48.3282 0
      vertex 0.877686 48.6365 0
    endloop
  endfacet
  facet normal 0 0 -1
    outer loop
      vertex 0.363549 0.877686 0
      vertex 0.671751 48.3282 0
      vertex 0.671751 0.671751 0
    endloop
  endfacet
  facet normal 0 0 -1
    outer loop
      vertex 0.363549 0.877686 0
      vertex 0.363549 48.1223 0
      vertex 0.671751 48.3282 0
    endloop
  endfacet
  facet normal 0 0 -1
    outer loop
      vertex 0 0.95 0
      vertex 0.363549 48.1223 0
      vertex 0.363549 0.877686 0
    endloop
  endfacet
  facet normal 0 0 -1
    outer loop
      vertex 0 0.95 0
      vertex 0 48.05 0
      vertex 0.363549 48.1223 0
    endloop
  endfacet
  facet normal 0 0 -1
    outer loop
      vertex -0.363549 0.877686 0
      vertex 0 48.05 0
      vertex 0 0.95 0
    endloop
  endfacet
  facet normal 0 0 -1
    outer loop
      vertex -0.363549 0.877686 0
      vertex -0.363549 48.1223 0
      vertex 0 48.05 0
    endloop
  endfacet
  facet normal 0 0 -1
    outer loop
      vertex -3.5 0 0
      vertex -0.363549 0.877686 0
      vertex -0.671751 0.671751 0
    endloop
  endfacet
  facet normal -0 0 -1
    outer loop
      vertex -0.363549 0.877686 0
      vertex -3.5 0 0
      vertex -0.363549 48.1223 0
    endloop
  endfacet
  facet normal 0 0 -1
    outer loop
      vertex -3.5 0 0
      vertex -0.671751 0.671751 0
      vertex -0.877686 0.363549 0
    endloop
  endfacet
  facet normal 0 0 -1
    outer loop
      vertex -3.5 49 0
      vertex -0.363549 48.1223 0
      vertex -3.5 0 0
    endloop
  endfacet
  facet normal 0 0 -1
    outer loop
      vertex -3.5 0 0
      vertex -0.877686 0.363549 0
      vertex -0.95 0 0
    endloop
  endfacet
  facet normal 0 0 -1
    outer loop
      vertex -0.363549 48.1223 0
      vertex -3.5 49 0
      vertex -0.671751 48.3282 0
    endloop
  endfacet
  facet normal 0 0 -1
    outer loop
      vertex 58.3635 0.877686 0
      vertex 61.5 0 0
      vertex 58.6718 0.671751 0
    endloop
  endfacet
  facet normal -0 0 -1
    outer loop
      vertex 61.5 49 0
      vertex 58.8777 48.6365 0
      vertex 58.95 49 0
    endloop
  endfacet
  facet normal 0 0 -1
    outer loop
      vertex 61.5 0 0
      vertex 58.3635 0.877686 0
      vertex 61.5 49 0
    endloop
  endfacet
  facet normal 0 0 -1
    outer loop
      vertex 61.5 49 0
      vertex 58.6718 48.3282 0
      vertex 58.8777 48.6365 0
    endloop
  endfacet
  facet normal 0 0 -1
    outer loop
      vertex 58.3635 48.1223 0
      vertex 61.5 49 0
      vertex 58.3635 0.877686 0
    endloop
  endfacet
  facet normal 0 0 -1
    outer loop
      vertex 61.5 49 0
      vertex 58.3635 48.1223 0
      vertex 58.6718 48.3282 0
    endloop
  endfacet
  facet normal 0 0 -1
    outer loop
      vertex 58 0.95 0
      vertex 58.3635 48.1223 0
      vertex 58.3635 0.877686 0
    endloop
  endfacet
  facet normal 0 0 -1
    outer loop
      vertex 58 0.95 0
      vertex 58 48.05 0
      vertex 58.3635 48.1223 0
    endloop
  endfacet
  facet normal 0 0 -1
    outer loop
      vertex 57.6365 0.877686 0
      vertex 58 48.05 0
      vertex 58 0.95 0
    endloop
  endfacet
  facet normal 0 0 -1
    outer loop
      vertex 57.6365 0.877686 0
      vertex 57.6365 48.1223 0
      vertex 58 48.05 0
    endloop
  endfacet
  facet normal 0 0 -1
    outer loop
      vertex 57.3282 0.671751 0
      vertex 57.6365 48.1223 0
      vertex 57.6365 0.877686 0
    endloop
  endfacet
  facet normal 0 0 -1
    outer loop
      vertex 57.3282 0.671751 0
      vertex 57.3282 48.3282 0
      vertex 57.6365 48.1223 0
    endloop
  endfacet
  facet normal 0 0 -1
    outer loop
      vertex 0.877686 0.363549 0
      vertex 57.1223 0.363549 0
      vertex 0.95 0 0
    endloop
  endfacet
  facet normal 0 0 -1
    outer loop
      vertex 57.1223 0.363549 0
      vertex 0.877686 0.363549 0
      vertex 57.3282 0.671751 0
    endloop
  endfacet
  facet normal 0 0 -1
    outer loop
      vertex 0.95 0 0
      vertex 57.1223 0.363549 0
      vertex 57.05 0 0
    endloop
  endfacet
  facet normal 0 0 -1
    outer loop
      vertex 0.671751 0.671751 0
      vertex 57.3282 0.671751 0
      vertex 0.877686 0.363549 0
    endloop
  endfacet
  facet normal 0 0 -1
    outer loop
      vertex 58.95 0 0
      vertex 61.5 0 0
      vertex 61.2336 -1.33939 0
    endloop
  endfacet
  facet normal 0 0 -1
    outer loop
      vertex 58.8777 0.363549 0
      vertex 61.5 0 0
      vertex 58.95 0 0
    endloop
  endfacet
  facet normal 0 0 -1
    outer loop
      vertex 58.8777 -0.363549 0
      vertex 61.2336 -1.33939 0
      vertex 60.4749 -2.47487 0
    endloop
  endfacet
  facet normal 0 0 -1
    outer loop
      vertex 58.6718 0.671751 0
      vertex 61.5 0 0
      vertex 58.8777 0.363549 0
    endloop
  endfacet
  facet normal 0 0 -1
    outer loop
      vertex 58.6718 -0.671751 0
      vertex 60.4749 -2.47487 0
      vertex 59.3394 -3.23358 0
    endloop
  endfacet
  facet normal 0 0 -1
    outer loop
      vertex 61.5 49 0
      vertex 58.95 49 0
      vertex 61.2336 50.3394 0
    endloop
  endfacet
  facet normal 0 0 -1
    outer loop
      vertex 58.8777 49.3635 0
      vertex 61.2336 50.3394 0
      vertex 58.95 49 0
    endloop
  endfacet
  facet normal 0 0 -1
    outer loop
      vertex 61.2336 -1.33939 0
      vertex 58.8777 -0.363549 0
      vertex 58.95 0 0
    endloop
  endfacet
  facet normal 0 0 -1
    outer loop
      vertex 60.4749 -2.47487 0
      vertex 58.6718 -0.671751 0
      vertex 58.8777 -0.363549 0
    endloop
  endfacet
  facet normal 0 0 -1
    outer loop
      vertex 59.3394 -3.23358 0
      vertex 58.3635 -0.877686 0
      vertex 58.6718 -0.671751 0
    endloop
  endfacet
  facet normal 0 0 -1
    outer loop
      vertex 58 -3.5 0
      vertex 58.3635 -0.877686 0
      vertex 59.3394 -3.23358 0
    endloop
  endfacet
  facet normal 0 0 -1
    outer loop
      vertex 58 -3.5 0
      vertex 58 -0.95 0
      vertex 58.3635 -0.877686 0
    endloop
  endfacet
  facet normal 0 0 -1
    outer loop
      vertex 58 -3.5 0
      vertex 57.6365 -0.877686 0
      vertex 58 -0.95 0
    endloop
  endfacet
  facet normal 0 0 -1
    outer loop
      vertex 58 -3.5 0
      vertex 57.3282 -0.671751 0
      vertex 57.6365 -0.877686 0
    endloop
  endfacet
  facet normal 0 0 -1
    outer loop
      vertex 58 -3.5 0
      vertex 57.1223 -0.363549 0
      vertex 57.3282 -0.671751 0
    endloop
  endfacet
  facet normal 0 0 -1
    outer loop
      vertex 57.3282 48.3282 0
      vertex 0.95 49 0
      vertex 57.1223 48.6365 0
    endloop
  endfacet
  facet normal 0 0 -1
    outer loop
      vertex 57.1223 -0.363549 0
      vertex 0.95 0 0
      vertex 57.05 0 0
    endloop
  endfacet
  facet normal 0 0 -1
    outer loop
      vertex 0.877686 -0.363549 0
      vertex 57.1223 -0.363549 0
      vertex 58 -3.5 0
    endloop
  endfacet
  facet normal 0 0 -1
    outer loop
      vertex 57.1223 -0.363549 0
      vertex 0.877686 -0.363549 0
      vertex 0.95 0 0
    endloop
  endfacet
  facet normal 0 0 -1
    outer loop
      vertex 0 -3.5 0
      vertex 0.877686 -0.363549 0
      vertex 58 -3.5 0
    endloop
  endfacet
  facet normal 0 0 -1
    outer loop
      vertex 0.877686 -0.363549 0
      vertex 0 -3.5 0
      vertex 0.671751 -0.671751 0
    endloop
  endfacet
  facet normal 0 0 -1
    outer loop
      vertex 0.671751 -0.671751 0
      vertex 0 -3.5 0
      vertex 0.363549 -0.877686 0
    endloop
  endfacet
  facet normal 0 0 -1
    outer loop
      vertex 0 -3.5 0
      vertex 0 -0.95 0
      vertex 0.363549 -0.877686 0
    endloop
  endfacet
  facet normal 0 0 -1
    outer loop
      vertex 0 -3.5 0
      vertex -0.363549 -0.877686 0
      vertex 0 -0.95 0
    endloop
  endfacet
  facet normal 0 0 -1
    outer loop
      vertex -1.33939 -3.23358 0
      vertex -0.363549 -0.877686 0
      vertex 0 -3.5 0
    endloop
  endfacet
  facet normal -0 0 -1
    outer loop
      vertex -0.363549 -0.877686 0
      vertex -1.33939 -3.23358 0
      vertex -0.671751 -0.671751 0
    endloop
  endfacet
  facet normal 0 0 -1
    outer loop
      vertex -3.23358 -1.33939 0
      vertex -0.877686 -0.363549 0
      vertex -2.47487 -2.47487 0
    endloop
  endfacet
  facet normal -0 0 -1
    outer loop
      vertex -0.671751 -0.671751 0
      vertex -2.47487 -2.47487 0
      vertex -0.877686 -0.363549 0
    endloop
  endfacet
  facet normal 0 0 -1
    outer loop
      vertex -2.47487 -2.47487 0
      vertex -0.671751 -0.671751 0
      vertex -1.33939 -3.23358 0
    endloop
  endfacet
  facet normal -0 0 -1
    outer loop
      vertex 61.2336 50.3394 0
      vertex 58.8777 49.3635 0
      vertex 60.4749 51.4749 0
    endloop
  endfacet
  facet normal 0 0 -1
    outer loop
      vertex 58.6718 49.6718 0
      vertex 60.4749 51.4749 0
      vertex 58.8777 49.3635 0
    endloop
  endfacet
  facet normal -0 0 -1
    outer loop
      vertex 60.4749 51.4749 0
      vertex 58.6718 49.6718 0
      vertex 59.3394 52.2336 0
    endloop
  endfacet
  facet normal 0 0 -1
    outer loop
      vertex 58.3635 49.8777 0
      vertex 59.3394 52.2336 0
      vertex 58.6718 49.6718 0
    endloop
  endfacet
  facet normal 0 0 -1
    outer loop
      vertex 58 49.95 0
      vertex 59.3394 52.2336 0
      vertex 58.3635 49.8777 0
    endloop
  endfacet
  facet normal 0 0 -1
    outer loop
      vertex 58 49.95 0
      vertex 58 52.5 0
      vertex 59.3394 52.2336 0
    endloop
  endfacet
  facet normal 0 0 -1
    outer loop
      vertex 57.6365 49.8777 0
      vertex 58 52.5 0
      vertex 58 49.95 0
    endloop
  endfacet
  facet normal 0 0 -1
    outer loop
      vertex 57.3282 49.6718 0
      vertex 58 52.5 0
      vertex 57.6365 49.8777 0
    endloop
  endfacet
  facet normal 0 0 -1
    outer loop
      vertex 57.1223 49.3635 0
      vertex 58 52.5 0
      vertex 57.3282 49.6718 0
    endloop
  endfacet
  facet normal 0 0 -1
    outer loop
      vertex 57.1223 48.6365 0
      vertex 0.95 49 0
      vertex 57.05 49 0
    endloop
  endfacet
  facet normal 0 0 -1
    outer loop
      vertex 57.05 49 0
      vertex 0.95 49 0
      vertex 57.1223 49.3635 0
    endloop
  endfacet
  facet normal 0 0 -1
    outer loop
      vertex 0.877686 49.3635 0
      vertex 57.1223 49.3635 0
      vertex 0.95 49 0
    endloop
  endfacet
  facet normal 0 0 -1
    outer loop
      vertex 57.1223 49.3635 0
      vertex 0.877686 49.3635 0
      vertex 58 52.5 0
    endloop
  endfacet
  facet normal 0 0 -1
    outer loop
      vertex 0 52.5 0
      vertex 0.877686 49.3635 0
      vertex 0.671751 49.6718 0
    endloop
  endfacet
  facet normal 0 0 -1
    outer loop
      vertex 0 52.5 0
      vertex 0.671751 49.6718 0
      vertex 0.363549 49.8777 0
    endloop
  endfacet
  facet normal 0 0 -1
    outer loop
      vertex 0 52.5 0
      vertex 0.363549 49.8777 0
      vertex 0 49.95 0
    endloop
  endfacet
  facet normal 0 0 -1
    outer loop
      vertex 0.877686 49.3635 0
      vertex 0 52.5 0
      vertex 58 52.5 0
    endloop
  endfacet
  facet normal 0 0 -1
    outer loop
      vertex -0.363549 49.8777 0
      vertex 0 52.5 0
      vertex 0 49.95 0
    endloop
  endfacet
  facet normal 0 0 -1
    outer loop
      vertex -1.33939 52.2336 0
      vertex -0.363549 49.8777 0
      vertex -0.671751 49.6718 0
    endloop
  endfacet
  facet normal 0 0 -1
    outer loop
      vertex -2.47487 51.4749 0
      vertex -0.671751 49.6718 0
      vertex -0.877686 49.3635 0
    endloop
  endfacet
  facet normal 0 0 -1
    outer loop
      vertex -0.363549 49.8777 0
      vertex -1.33939 52.2336 0
      vertex 0 52.5 0
    endloop
  endfacet
  facet normal 0 0 -1
    outer loop
      vertex -3.23358 50.3394 0
      vertex -0.877686 49.3635 0
      vertex -0.95 49 0
    endloop
  endfacet
  facet normal 0 0 -1
    outer loop
      vertex -0.671751 48.3282 0
      vertex -3.5 49 0
      vertex -0.877686 48.6365 0
    endloop
  endfacet
  facet normal -0 0 -1
    outer loop
      vertex -0.877686 -0.363549 0
      vertex -3.23358 -1.33939 0
      vertex -0.95 0 0
    endloop
  endfacet
  facet normal 0 0 -1
    outer loop
      vertex -0.877686 48.6365 0
      vertex -3.5 49 0
      vertex -0.95 49 0
    endloop
  endfacet
  facet normal -0 0 -1
    outer loop
      vertex -0.95 0 0
      vertex -3.23358 -1.33939 0
      vertex -3.5 0 0
    endloop
  endfacet
  facet normal 0 -0 -1
    outer loop
      vertex -3.23358 50.3394 0
      vertex -0.95 49 0
      vertex -3.5 49 0
    endloop
  endfacet
  facet normal 0 0 -1
    outer loop
      vertex -0.671751 49.6718 0
      vertex -2.47487 51.4749 0
      vertex -1.33939 52.2336 0
    endloop
  endfacet
  facet normal 0 0 -1
    outer loop
      vertex -0.877686 49.3635 0
      vertex -3.23358 50.3394 0
      vertex -2.47487 51.4749 0
    endloop
  endfacet
  facet normal 0 -1 0
    outer loop
      vertex 0 -3.5 0
      vertex 58 -3.5 2.8
      vertex 0 -3.5 2.8
    endloop
  endfacet
  facet normal 0 -1 -0
    outer loop
      vertex 58 -3.5 2.8
      vertex 0 -3.5 0
      vertex 58 -3.5 0
    endloop
  endfacet
  facet normal 0 1 -0
    outer loop
      vertex 58 52.5 0
      vertex 0 52.5 2.8
      vertex 58 52.5 2.8
    endloop
  endfacet
  facet normal 0 1 0
    outer loop
      vertex 0 52.5 2.8
      vertex 58 52.5 0
      vertex 0 52.5 0
    endloop
  endfacet
  facet normal 1 -0 0
    outer loop
      vertex -2.7 2.13795 2.8
      vertex -2.7 17.5 0.799999
      vertex -2.7 17.5 2.8
    endloop
  endfacet
  facet normal 1 0 0
    outer loop
      vertex -2.7 17.5 0.799999
      vertex -2.7 2.13795 2.8
      vertex -2.7 2.13795 0.799999
    endloop
  endfacet
  facet normal 1 -0 0
    outer loop
      vertex -2.7 32.5 2.8
      vertex -2.7 46.862 0.799999
      vertex -2.7 46.862 2.8
    endloop
  endfacet
  facet normal 1 0 0
    outer loop
      vertex -2.7 46.862 0.799999
      vertex -2.7 32.5 2.8
      vertex -2.7 32.5 0.799999
    endloop
  endfacet
  facet normal -1 0 0
    outer loop
      vertex 60.7 2.13795 0.799999
      vertex 60.7 46.862 2.8
      vertex 60.7 46.862 0.799999
    endloop
  endfacet
  facet normal -1 -0 0
    outer loop
      vertex 60.7 46.862 2.8
      vertex 60.7 2.13795 0.799999
      vertex 60.7 2.13795 2.8
    endloop
  endfacet
  facet normal 0 -1 0
    outer loop
      vertex 2.13795 51.7 0.799999
      vertex 55.862 51.7 2.8
      vertex 2.13795 51.7 2.8
    endloop
  endfacet
  facet normal 0 -1 -0
    outer loop
      vertex 55.862 51.7 2.8
      vertex 2.13795 51.7 0.799999
      vertex 55.862 51.7 0.799999
    endloop
  endfacet
  facet normal -0 0 1
    outer loop
      vertex -3.5 32.5 0.799999
      vertex -2.7 17.5 0.799999
      vertex -2.7 32.5 0.799999
    endloop
  endfacet
  facet normal 0 0 1
    outer loop
      vertex -2.7 17.5 0.799999
      vertex -3.5 32.5 0.799999
      vertex -3.5 17.5 0.799999
    endloop
  endfacet
  facet normal 0 0 1
    outer loop
      vertex -2.7 17.5 0.799999
      vertex 55.5251 46.5251 0.799999
      vertex -2.7 32.5 0.799999
    endloop
  endfacet
  facet normal 0 0 1
    outer loop
      vertex 55.5251 2.47487 0.799999
      vertex 3.23358 1.33939 0.799999
      vertex 3.5 0 0.799999
    endloop
  endfacet
  facet normal 0 0 1
    outer loop
      vertex -2.7 32.5 0.799999
      vertex 3.23358 47.6606 0.799999
      vertex 2.47487 46.5251 0.799999
    endloop
  endfacet
  facet normal 0 -0 1
    outer loop
      vertex 2.47487 2.47487 0.799999
      vertex 55.5251 2.47487 0.799999
      vertex -2.7 17.5 0.799999
    endloop
  endfacet
  facet normal 0 0 1
    outer loop
      vertex -2.7 32.5 0.799999
      vertex 2.47487 46.5251 0.799999
      vertex 1.33939 45.7664 0.799999
    endloop
  endfacet
  facet normal 0 0 1
    outer loop
      vertex 55.5251 2.47487 0.799999
      vertex 2.47487 2.47487 0.799999
      vertex 3.23358 1.33939 0.799999
    endloop
  endfacet
  facet normal 0 0 1
    outer loop
      vertex -2.7 32.5 0.799999
      vertex 1.33939 45.7664 0.799999
      vertex 0 45.5 0.799999
    endloop
  endfacet
  facet normal 0 0 1
    outer loop
      vertex 55.5251 46.5251 0.799999
      vertex -2.7 17.5 0.799999
      vertex 55.5251 2.47487 0.799999
    endloop
  endfacet
  facet normal 0 0 1
    outer loop
      vertex -2.7 32.5 0.799999
      vertex 0 45.5 0.799999
      vertex -1.33939 45.7664 0.799999
    endloop
  endfacet
  facet normal 0 0 1
    outer loop
      vertex 2.47487 2.47487 0.799999
      vertex -2.7 17.5 0.799999
      vertex 1.33939 3.23358 0.799999
    endloop
  endfacet
  facet normal 0 0 1
    outer loop
      vertex -2.7 32.5 0.799999
      vertex -1.33939 45.7664 0.799999
      vertex -2.47487 46.5251 0.799999
    endloop
  endfacet
  facet normal 0 0 1
    outer loop
      vertex 1.33939 3.23358 0.799999
      vertex -2.7 17.5 0.799999
      vertex 0 3.5 0.799999
    endloop
  endfacet
  facet normal 0 0 1
    outer loop
      vertex -2.7 32.5 0.799999
      vertex -2.47487 46.5251 0.799999
      vertex -2.7 46.862 0.799999
    endloop
  endfacet
  facet normal 0 0 1
    outer loop
      vertex 0 3.5 0.799999
      vertex -2.7 17.5 0.799999
      vertex -1.33939 3.23358 0.799999
    endloop
  endfacet
  facet normal 0 0 1
    outer loop
      vertex -1.33939 3.23358 0.799999
      vertex -2.7 17.5 0.799999
      vertex -2.47487 2.47487 0.799999
    endloop
  endfacet
  facet normal 0 0 1
    outer loop
      vertex -2.47487 2.47487 0.799999
      vertex -2.7 17.5 0.799999
      vertex -2.7 2.13795 0.799999
    endloop
  endfacet
  facet normal 0 0 1
    outer loop
      vertex 55.5251 2.47487 0.799999
      vertex 3.5 0 0.799999
      vertex 54.7664 1.33939 0.799999
    endloop
  endfacet
  facet normal 0 0 1
    outer loop
      vertex 54.7664 50.3394 0.799999
      vertex 3.5 49 0.799999
      vertex 54.5 49 0.799999
    endloop
  endfacet
  facet normal 0 0 1
    outer loop
      vertex 3.23358 50.3394 0.799999
      vertex 54.7664 50.3394 0.799999
      vertex 55.5251 51.4749 0.799999
    endloop
  endfacet
  facet normal 0 0 1
    outer loop
      vertex 2.47487 51.4749 0.799999
      vertex 55.5251 51.4749 0.799999
      vertex 55.862 51.7 0.799999
    endloop
  endfacet
  facet normal 0 0 1
    outer loop
      vertex 54.7664 50.3394 0.799999
      vertex 3.23358 50.3394 0.799999
      vertex 3.5 49 0.799999
    endloop
  endfacet
  facet normal 0 0 1
    outer loop
      vertex 55.5251 51.4749 0.799999
      vertex 2.47487 51.4749 0.799999
      vertex 3.23358 50.3394 0.799999
    endloop
  endfacet
  facet normal 0 -0 1
    outer loop
      vertex 2.47487 51.4749 0.799999
      vertex 55.862 51.7 0.799999
      vertex 2.13795 51.7 0.799999
    endloop
  endfacet
  facet normal -0 0 1
    outer loop
      vertex 60.4749 46.5251 0.799999
      vertex 60.7 2.13795 0.799999
      vertex 60.7 46.862 0.799999
    endloop
  endfacet
  facet normal 0 0 1
    outer loop
      vertex 60.4749 46.5251 0.799999
      vertex 60.4749 2.47487 0.799999
      vertex 60.7 2.13795 0.799999
    endloop
  endfacet
  facet normal -0 0 1
    outer loop
      vertex 59.3394 45.7664 0.799999
      vertex 60.4749 2.47487 0.799999
      vertex 60.4749 46.5251 0.799999
    endloop
  endfacet
  facet normal 0 0 1
    outer loop
      vertex 59.3394 45.7664 0.799999
      vertex 59.3394 3.23358 0.799999
      vertex 60.4749 2.47487 0.799999
    endloop
  endfacet
  facet normal -0 0 1
    outer loop
      vertex 58 45.5 0.799999
      vertex 59.3394 3.23358 0.799999
      vertex 59.3394 45.7664 0.799999
    endloop
  endfacet
  facet normal 0 0 1
    outer loop
      vertex 58 45.5 0.799999
      vertex 58 3.5 0.799999
      vertex 59.3394 3.23358 0.799999
    endloop
  endfacet
  facet normal 0 0 1
    outer loop
      vertex 56.6606 45.7664 0.799999
      vertex 58 3.5 0.799999
      vertex 58 45.5 0.799999
    endloop
  endfacet
  facet normal 0 0 1
    outer loop
      vertex 56.6606 45.7664 0.799999
      vertex 56.6606 3.23358 0.799999
      vertex 58 3.5 0.799999
    endloop
  endfacet
  facet normal 0 0 1
    outer loop
      vertex 55.5251 46.5251 0.799999
      vertex 56.6606 3.23358 0.799999
      vertex 56.6606 45.7664 0.799999
    endloop
  endfacet
  facet normal 0 0 1
    outer loop
      vertex 55.5251 46.5251 0.799999
      vertex 55.5251 2.47487 0.799999
      vertex 56.6606 3.23358 0.799999
    endloop
  endfacet
  facet normal 0 0 1
    outer loop
      vertex 3.23358 47.6606 0.799999
      vertex 54.7664 47.6606 0.799999
      vertex 3.5 49 0.799999
    endloop
  endfacet
  facet normal 0 0 1
    outer loop
      vertex 54.7664 47.6606 0.799999
      vertex 3.23358 47.6606 0.799999
      vertex 55.5251 46.5251 0.799999
    endloop
  endfacet
  facet normal -0 0 1
    outer loop
      vertex 3.5 49 0.799999
      vertex 54.7664 47.6606 0.799999
      vertex 54.5 49 0.799999
    endloop
  endfacet
  facet normal 0 0 1
    outer loop
      vertex -2.7 32.5 0.799999
      vertex 55.5251 46.5251 0.799999
      vertex 3.23358 47.6606 0.799999
    endloop
  endfacet
  facet normal 0 0 1
    outer loop
      vertex 54.7664 1.33939 0.799999
      vertex 3.5 0 0.799999
      vertex 54.5 0 0.799999
    endloop
  endfacet
  facet normal 0 0 1
    outer loop
      vertex 54.5 0 0.799999
      vertex 3.5 0 0.799999
      vertex 54.7664 -1.33939 0.799999
    endloop
  endfacet
  facet normal 0 0 1
    outer loop
      vertex 3.23358 -1.33939 0.799999
      vertex 54.7664 -1.33939 0.799999
      vertex 3.5 0 0.799999
    endloop
  endfacet
  facet normal 0 0 1
    outer loop
      vertex 54.7664 -1.33939 0.799999
      vertex 3.23358 -1.33939 0.799999
      vertex 55.5251 -2.47487 0.799999
    endloop
  endfacet
  facet normal 0 0 1
    outer loop
      vertex 2.47487 -2.47487 0.799999
      vertex 55.5251 -2.47487 0.799999
      vertex 3.23358 -1.33939 0.799999
    endloop
  endfacet
  facet normal 0 0 1
    outer loop
      vertex 55.5251 -2.47487 0.799999
      vertex 2.47487 -2.47487 0.799999
      vertex 55.862 -2.7 0.799999
    endloop
  endfacet
  facet normal 0 0 1
    outer loop
      vertex 55.862 -2.7 0.799999
      vertex 2.47487 -2.47487 0.799999
      vertex 2.13795 -2.7 0.799999
    endloop
  endfacet
  facet normal 0 1 -0
    outer loop
      vertex 55.862 -2.7 0.799999
      vertex 2.13795 -2.7 2.8
      vertex 55.862 -2.7 2.8
    endloop
  endfacet
  facet normal 0 1 0
    outer loop
      vertex 2.13795 -2.7 2.8
      vertex 55.862 -2.7 0.799999
      vertex 2.13795 -2.7 0.799999
    endloop
  endfacet
  facet normal 0.980785 0.195091 0
    outer loop
      vertex 3.5 0 2.8
      vertex 3.23358 1.33939 0.799999
      vertex 3.23358 1.33939 2.8
    endloop
  endfacet
  facet normal 0.980785 0.195091 0
    outer loop
      vertex 3.23358 1.33939 0.799999
      vertex 3.5 0 2.8
      vertex 3.5 0 0.799999
    endloop
  endfacet
  facet normal 0.195091 0.980785 -0
    outer loop
      vertex 1.33939 3.23358 0.799999
      vertex 0 3.5 2.8
      vertex 1.33939 3.23358 2.8
    endloop
  endfacet
  facet normal 0.195091 0.980785 0
    outer loop
      vertex 0 3.5 2.8
      vertex 1.33939 3.23358 0.799999
      vertex 0 3.5 0.799999
    endloop
  endfacet
  facet normal 0.83147 0.55557 0
    outer loop
      vertex 3.23358 1.33939 2.8
      vertex 2.47487 2.47487 0.799999
      vertex 2.47487 2.47487 2.8
    endloop
  endfacet
  facet normal 0.83147 0.55557 0
    outer loop
      vertex 2.47487 2.47487 0.799999
      vertex 3.23358 1.33939 2.8
      vertex 3.23358 1.33939 0.799999
    endloop
  endfacet
  facet normal -0.195091 -0.980785 0
    outer loop
      vertex -1.33939 -3.23358 0
      vertex 0 -3.5 2.8
      vertex -1.33939 -3.23358 2.8
    endloop
  endfacet
  facet normal -0.195091 -0.980785 -0
    outer loop
      vertex 0 -3.5 2.8
      vertex -1.33939 -3.23358 0
      vertex 0 -3.5 0
    endloop
  endfacet
  facet normal 0.55557 0.83147 -0
    outer loop
      vertex 2.47487 2.47487 0.799999
      vertex 1.33939 3.23358 2.8
      vertex 2.47487 2.47487 2.8
    endloop
  endfacet
  facet normal 0.55557 0.83147 0
    outer loop
      vertex 1.33939 3.23358 2.8
      vertex 2.47487 2.47487 0.799999
      vertex 1.33939 3.23358 0.799999
    endloop
  endfacet
  facet normal -0.55557 0.83147 0
    outer loop
      vertex -1.33939 3.23358 0.799999
      vertex -2.47487 2.47487 2.8
      vertex -1.33939 3.23358 2.8
    endloop
  endfacet
  facet normal -0.55557 0.83147 0
    outer loop
      vertex -2.47487 2.47487 2.8
      vertex -1.33939 3.23358 0.799999
      vertex -2.47487 2.47487 0.799999
    endloop
  endfacet
  facet normal -0.83147 0.55557 0
    outer loop
      vertex -2.7 2.13795 0.799999
      vertex -2.47487 2.47487 2.8
      vertex -2.47487 2.47487 0.799999
    endloop
  endfacet
  facet normal -0.83147 0.55557 0
    outer loop
      vertex -2.47487 2.47487 2.8
      vertex -2.7 2.13795 0.799999
      vertex -2.7 2.13795 2.8
    endloop
  endfacet
  facet normal -0.195091 0.980785 0
    outer loop
      vertex 0 3.5 0.799999
      vertex -1.33939 3.23358 2.8
      vertex 0 3.5 2.8
    endloop
  endfacet
  facet normal -0.195091 0.980785 0
    outer loop
      vertex -1.33939 3.23358 2.8
      vertex 0 3.5 0.799999
      vertex -1.33939 3.23358 0.799999
    endloop
  endfacet
  facet normal -0.55557 -0.83147 0
    outer loop
      vertex -2.47487 -2.47487 0
      vertex -1.33939 -3.23358 2.8
      vertex -2.47487 -2.47487 2.8
    endloop
  endfacet
  facet normal -0.55557 -0.83147 -0
    outer loop
      vertex -1.33939 -3.23358 2.8
      vertex -2.47487 -2.47487 0
      vertex -1.33939 -3.23358 0
    endloop
  endfacet
  facet normal -0.980785 -0.195091 0
    outer loop
      vertex -3.23358 -1.33939 0
      vertex -3.5 0 2.8
      vertex -3.5 0 0
    endloop
  endfacet
  facet normal -0.980785 -0.195091 0
    outer loop
      vertex -3.5 0 2.8
      vertex -3.23358 -1.33939 0
      vertex -3.23358 -1.33939 2.8
    endloop
  endfacet
  facet normal 0.980785 -0.195091 0
    outer loop
      vertex 3.23358 -1.33939 2.8
      vertex 3.5 0 0.799999
      vertex 3.5 0 2.8
    endloop
  endfacet
  facet normal 0.980785 -0.195091 0
    outer loop
      vertex 3.5 0 0.799999
      vertex 3.23358 -1.33939 2.8
      vertex 3.23358 -1.33939 0.799999
    endloop
  endfacet
  facet normal 0.55557 -0.83147 0
    outer loop
      vertex 2.13795 -2.7 0.799999
      vertex 2.47487 -2.47487 2.8
      vertex 2.13795 -2.7 2.8
    endloop
  endfacet
  facet normal 0.55557 -0.83147 0
    outer loop
      vertex 2.47487 -2.47487 2.8
      vertex 2.13795 -2.7 0.799999
      vertex 2.47487 -2.47487 0.799999
    endloop
  endfacet
  facet normal 0.83147 -0.55557 0
    outer loop
      vertex 2.47487 -2.47487 2.8
      vertex 3.23358 -1.33939 0.799999
      vertex 3.23358 -1.33939 2.8
    endloop
  endfacet
  facet normal 0.83147 -0.55557 0
    outer loop
      vertex 3.23358 -1.33939 0.799999
      vertex 2.47487 -2.47487 2.8
      vertex 2.47487 -2.47487 0.799999
    endloop
  endfacet
  facet normal -0.83147 -0.55557 0
    outer loop
      vertex -2.47487 -2.47487 0
      vertex -3.23358 -1.33939 2.8
      vertex -3.23358 -1.33939 0
    endloop
  endfacet
  facet normal -0.83147 -0.55557 0
    outer loop
      vertex -3.23358 -1.33939 2.8
      vertex -2.47487 -2.47487 0
      vertex -2.47487 -2.47487 2.8
    endloop
  endfacet
  facet normal 0.980785 0.195091 0
    outer loop
      vertex 3.5 49 2.8
      vertex 3.23358 50.3394 0.799999
      vertex 3.23358 50.3394 2.8
    endloop
  endfacet
  facet normal 0.980785 0.195091 0
    outer loop
      vertex 3.23358 50.3394 0.799999
      vertex 3.5 49 2.8
      vertex 3.5 49 0.799999
    endloop
  endfacet
  facet normal 0.555569 -0.831471 0
    outer loop
      vertex 1.33939 45.7664 0.799999
      vertex 2.47487 46.5251 2.8
      vertex 1.33939 45.7664 2.8
    endloop
  endfacet
  facet normal 0.555569 -0.831471 0
    outer loop
      vertex 2.47487 46.5251 2.8
      vertex 1.33939 45.7664 0.799999
      vertex 2.47487 46.5251 0.799999
    endloop
  endfacet
  facet normal 0.195091 -0.980785 0
    outer loop
      vertex 0 45.5 0.799999
      vertex 1.33939 45.7664 2.8
      vertex 0 45.5 2.8
    endloop
  endfacet
  facet normal 0.195091 -0.980785 0
    outer loop
      vertex 1.33939 45.7664 2.8
      vertex 0 45.5 0.799999
      vertex 1.33939 45.7664 0.799999
    endloop
  endfacet
  facet normal 0.555573 0.831468 -0
    outer loop
      vertex 2.47487 51.4749 0.799999
      vertex 2.13795 51.7 2.8
      vertex 2.47487 51.4749 2.8
    endloop
  endfacet
  facet normal 0.555573 0.831468 0
    outer loop
      vertex 2.13795 51.7 2.8
      vertex 2.47487 51.4749 0.799999
      vertex 2.13795 51.7 0.799999
    endloop
  endfacet
  facet normal 0.831469 0.555571 0
    outer loop
      vertex 3.23358 50.3394 2.8
      vertex 2.47487 51.4749 0.799999
      vertex 2.47487 51.4749 2.8
    endloop
  endfacet
  facet normal 0.831469 0.555571 0
    outer loop
      vertex 2.47487 51.4749 0.799999
      vertex 3.23358 50.3394 2.8
      vertex 3.23358 50.3394 0.799999
    endloop
  endfacet
  facet normal -0.195091 0.980785 0
    outer loop
      vertex 0 52.5 0
      vertex -1.33939 52.2336 2.8
      vertex 0 52.5 2.8
    endloop
  endfacet
  facet normal -0.195091 0.980785 0
    outer loop
      vertex -1.33939 52.2336 2.8
      vertex 0 52.5 0
      vertex -1.33939 52.2336 0
    endloop
  endfacet
  facet normal -0.55557 0.831469 0
    outer loop
      vertex -1.33939 52.2336 0
      vertex -2.47487 51.4749 2.8
      vertex -1.33939 52.2336 2.8
    endloop
  endfacet
  facet normal -0.55557 0.831469 0
    outer loop
      vertex -2.47487 51.4749 2.8
      vertex -1.33939 52.2336 0
      vertex -2.47487 51.4749 0
    endloop
  endfacet
  facet normal -0.831469 0.555571 0
    outer loop
      vertex -3.23358 50.3394 0
      vertex -2.47487 51.4749 2.8
      vertex -2.47487 51.4749 0
    endloop
  endfacet
  facet normal -0.831469 0.555571 0
    outer loop
      vertex -2.47487 51.4749 2.8
      vertex -3.23358 50.3394 0
      vertex -3.23358 50.3394 2.8
    endloop
  endfacet
  facet normal -0.83147 -0.55557 0
    outer loop
      vertex -2.47487 46.5251 0.799999
      vertex -2.7 46.862 2.8
      vertex -2.7 46.862 0.799999
    endloop
  endfacet
  facet normal -0.83147 -0.55557 0
    outer loop
      vertex -2.7 46.862 2.8
      vertex -2.47487 46.5251 0.799999
      vertex -2.47487 46.5251 2.8
    endloop
  endfacet
  facet normal -0.195091 -0.980785 0
    outer loop
      vertex -1.33939 45.7664 0.799999
      vertex 0 45.5 2.8
      vertex -1.33939 45.7664 2.8
    endloop
  endfacet
  facet normal -0.195091 -0.980785 -0
    outer loop
      vertex 0 45.5 2.8
      vertex -1.33939 45.7664 0.799999
      vertex 0 45.5 0.799999
    endloop
  endfacet
  facet normal -0.555569 -0.831471 0
    outer loop
      vertex -2.47487 46.5251 0.799999
      vertex -1.33939 45.7664 2.8
      vertex -2.47487 46.5251 2.8
    endloop
  endfacet
  facet normal -0.555569 -0.831471 -0
    outer loop
      vertex -1.33939 45.7664 2.8
      vertex -2.47487 46.5251 0.799999
      vertex -1.33939 45.7664 0.799999
    endloop
  endfacet
  facet normal -0.980785 0.195091 0
    outer loop
      vertex -3.5 49 0
      vertex -3.23358 50.3394 2.8
      vertex -3.23358 50.3394 0
    endloop
  endfacet
  facet normal -0.980785 0.195091 0
    outer loop
      vertex -3.23358 50.3394 2.8
      vertex -3.5 49 0
      vertex -3.5 49 2.8
    endloop
  endfacet
  facet normal 0.83147 -0.55557 0
    outer loop
      vertex 2.47487 46.5251 2.8
      vertex 3.23358 47.6606 0.799999
      vertex 3.23358 47.6606 2.8
    endloop
  endfacet
  facet normal 0.83147 -0.55557 0
    outer loop
      vertex 3.23358 47.6606 0.799999
      vertex 2.47487 46.5251 2.8
      vertex 2.47487 46.5251 0.799999
    endloop
  endfacet
  facet normal 0.980785 -0.195091 0
    outer loop
      vertex 3.23358 47.6606 2.8
      vertex 3.5 49 0.799999
      vertex 3.5 49 2.8
    endloop
  endfacet
  facet normal 0.980785 -0.195091 0
    outer loop
      vertex 3.5 49 0.799999
      vertex 3.23358 47.6606 2.8
      vertex 3.23358 47.6606 0.799999
    endloop
  endfacet
  facet normal 0.980785 0.195091 0
    outer loop
      vertex 61.5 49 2.8
      vertex 61.2336 50.3394 0
      vertex 61.2336 50.3394 2.8
    endloop
  endfacet
  facet normal 0.980785 0.195091 0
    outer loop
      vertex 61.2336 50.3394 0
      vertex 61.5 49 2.8
      vertex 61.5 49 0
    endloop
  endfacet
  facet normal 0.195091 0.980785 -0
    outer loop
      vertex 59.3394 52.2336 0
      vertex 58 52.5 2.8
      vertex 59.3394 52.2336 2.8
    endloop
  endfacet
  facet normal 0.195091 0.980785 0
    outer loop
      vertex 58 52.5 2.8
      vertex 59.3394 52.2336 0
      vertex 58 52.5 0
    endloop
  endfacet
  facet normal -0.980785 -0.195091 0
    outer loop
      vertex 54.7664 47.6606 0.799999
      vertex 54.5 49 2.8
      vertex 54.5 49 0.799999
    endloop
  endfacet
  facet normal -0.980785 -0.195091 0
    outer loop
      vertex 54.5 49 2.8
      vertex 54.7664 47.6606 0.799999
      vertex 54.7664 47.6606 2.8
    endloop
  endfacet
  facet normal 0.555569 -0.83147 0
    outer loop
      vertex 59.3394 45.7664 0.799999
      vertex 60.4749 46.5251 2.8
      vertex 59.3394 45.7664 2.8
    endloop
  endfacet
  facet normal 0.555569 -0.83147 0
    outer loop
      vertex 60.4749 46.5251 2.8
      vertex 59.3394 45.7664 0.799999
      vertex 60.4749 46.5251 0.799999
    endloop
  endfacet
  facet normal 0.195091 -0.980785 0
    outer loop
      vertex 58 45.5 0.799999
      vertex 59.3394 45.7664 2.8
      vertex 58 45.5 2.8
    endloop
  endfacet
  facet normal 0.195091 -0.980785 0
    outer loop
      vertex 59.3394 45.7664 2.8
      vertex 58 45.5 0.799999
      vertex 59.3394 45.7664 0.799999
    endloop
  endfacet
  facet normal 0.555571 0.831469 -0
    outer loop
      vertex 60.4749 51.4749 0
      vertex 59.3394 52.2336 2.8
      vertex 60.4749 51.4749 2.8
    endloop
  endfacet
  facet normal 0.555571 0.831469 0
    outer loop
      vertex 59.3394 52.2336 2.8
      vertex 60.4749 51.4749 0
      vertex 59.3394 52.2336 0
    endloop
  endfacet
  facet normal 0.831469 0.555571 0
    outer loop
      vertex 61.2336 50.3394 2.8
      vertex 60.4749 51.4749 0
      vertex 60.4749 51.4749 2.8
    endloop
  endfacet
  facet normal 0.831469 0.555571 0
    outer loop
      vertex 60.4749 51.4749 0
      vertex 61.2336 50.3394 2.8
      vertex 61.2336 50.3394 0
    endloop
  endfacet
  facet normal -0.555573 0.831468 0
    outer loop
      vertex 55.862 51.7 0.799999
      vertex 55.5251 51.4749 2.8
      vertex 55.862 51.7 2.8
    endloop
  endfacet
  facet normal -0.555573 0.831468 0
    outer loop
      vertex 55.5251 51.4749 2.8
      vertex 55.862 51.7 0.799999
      vertex 55.5251 51.4749 0.799999
    endloop
  endfacet
  facet normal -0.83147 0.555569 0
    outer loop
      vertex 54.7664 50.3394 0.799999
      vertex 55.5251 51.4749 2.8
      vertex 55.5251 51.4749 0.799999
    endloop
  endfacet
  facet normal -0.83147 0.555569 0
    outer loop
      vertex 55.5251 51.4749 2.8
      vertex 54.7664 50.3394 0.799999
      vertex 54.7664 50.3394 2.8
    endloop
  endfacet
  facet normal -0.831471 -0.555568 0
    outer loop
      vertex 55.5251 46.5251 0.799999
      vertex 54.7664 47.6606 2.8
      vertex 54.7664 47.6606 0.799999
    endloop
  endfacet
  facet normal -0.831471 -0.555568 0
    outer loop
      vertex 54.7664 47.6606 2.8
      vertex 55.5251 46.5251 0.799999
      vertex 55.5251 46.5251 2.8
    endloop
  endfacet
  facet normal -0.195091 -0.980785 0
    outer loop
      vertex 56.6606 45.7664 0.799999
      vertex 58 45.5 2.8
      vertex 56.6606 45.7664 2.8
    endloop
  endfacet
  facet normal -0.195091 -0.980785 -0
    outer loop
      vertex 58 45.5 2.8
      vertex 56.6606 45.7664 0.799999
      vertex 58 45.5 0.799999
    endloop
  endfacet
  facet normal -0.980785 0.195091 0
    outer loop
      vertex 54.5 49 0.799999
      vertex 54.7664 50.3394 2.8
      vertex 54.7664 50.3394 0.799999
    endloop
  endfacet
  facet normal -0.980785 0.195091 0
    outer loop
      vertex 54.7664 50.3394 2.8
      vertex 54.5 49 0.799999
      vertex 54.5 49 2.8
    endloop
  endfacet
  facet normal 0.831468 -0.555573 0
    outer loop
      vertex 60.4749 46.5251 2.8
      vertex 60.7 46.862 0.799999
      vertex 60.7 46.862 2.8
    endloop
  endfacet
  facet normal 0.831468 -0.555573 0
    outer loop
      vertex 60.7 46.862 0.799999
      vertex 60.4749 46.5251 2.8
      vertex 60.4749 46.5251 0.799999
    endloop
  endfacet
  facet normal -0.555568 -0.831471 0
    outer loop
      vertex 55.5251 46.5251 0.799999
      vertex 56.6606 45.7664 2.8
      vertex 55.5251 46.5251 2.8
    endloop
  endfacet
  facet normal -0.555568 -0.831471 -0
    outer loop
      vertex 56.6606 45.7664 2.8
      vertex 55.5251 46.5251 0.799999
      vertex 56.6606 45.7664 0.799999
    endloop
  endfacet
  facet normal -0.195091 0.980785 0
    outer loop
      vertex 58 3.5 0.799999
      vertex 56.6606 3.23358 2.8
      vertex 58 3.5 2.8
    endloop
  endfacet
  facet normal -0.195091 0.980785 0
    outer loop
      vertex 56.6606 3.23358 2.8
      vertex 58 3.5 0.799999
      vertex 56.6606 3.23358 0.799999
    endloop
  endfacet
  facet normal -0.980785 -0.195091 0
    outer loop
      vertex 54.7664 -1.33939 0.799999
      vertex 54.5 0 2.8
      vertex 54.5 0 0.799999
    endloop
  endfacet
  facet normal -0.980785 -0.195091 0
    outer loop
      vertex 54.5 0 2.8
      vertex 54.7664 -1.33939 0.799999
      vertex 54.7664 -1.33939 2.8
    endloop
  endfacet
  facet normal 0.555571 0.831469 -0
    outer loop
      vertex 60.4749 2.47487 0.799999
      vertex 59.3394 3.23358 2.8
      vertex 60.4749 2.47487 2.8
    endloop
  endfacet
  facet normal 0.555571 0.831469 0
    outer loop
      vertex 59.3394 3.23358 2.8
      vertex 60.4749 2.47487 0.799999
      vertex 59.3394 3.23358 0.799999
    endloop
  endfacet
  facet normal 0.831468 0.555573 0
    outer loop
      vertex 60.7 2.13795 2.8
      vertex 60.4749 2.47487 0.799999
      vertex 60.4749 2.47487 2.8
    endloop
  endfacet
  facet normal 0.831468 0.555573 0
    outer loop
      vertex 60.4749 2.47487 0.799999
      vertex 60.7 2.13795 2.8
      vertex 60.7 2.13795 0.799999
    endloop
  endfacet
  facet normal -0.55557 0.83147 0
    outer loop
      vertex 56.6606 3.23358 0.799999
      vertex 55.5251 2.47487 2.8
      vertex 56.6606 3.23358 2.8
    endloop
  endfacet
  facet normal -0.55557 0.83147 0
    outer loop
      vertex 55.5251 2.47487 2.8
      vertex 56.6606 3.23358 0.799999
      vertex 55.5251 2.47487 0.799999
    endloop
  endfacet
  facet normal -0.831471 0.555569 0
    outer loop
      vertex 54.7664 1.33939 0.799999
      vertex 55.5251 2.47487 2.8
      vertex 55.5251 2.47487 0.799999
    endloop
  endfacet
  facet normal -0.831471 0.555569 0
    outer loop
      vertex 55.5251 2.47487 2.8
      vertex 54.7664 1.33939 0.799999
      vertex 54.7664 1.33939 2.8
    endloop
  endfacet
  facet normal 0.980785 -0.195091 0
    outer loop
      vertex 61.2336 -1.33939 2.8
      vertex 61.5 0 0
      vertex 61.5 0 2.8
    endloop
  endfacet
  facet normal 0.980785 -0.195091 0
    outer loop
      vertex 61.5 0 0
      vertex 61.2336 -1.33939 2.8
      vertex 61.2336 -1.33939 0
    endloop
  endfacet
  facet normal -0.831471 -0.555569 0
    outer loop
      vertex 55.5251 -2.47487 0.799999
      vertex 54.7664 -1.33939 2.8
      vertex 54.7664 -1.33939 0.799999
    endloop
  endfacet
  facet normal -0.831471 -0.555569 0
    outer loop
      vertex 54.7664 -1.33939 2.8
      vertex 55.5251 -2.47487 0.799999
      vertex 55.5251 -2.47487 2.8
    endloop
  endfacet
  facet normal 0.195091 -0.980785 0
    outer loop
      vertex 58 -3.5 0
      vertex 59.3394 -3.23358 2.8
      vertex 58 -3.5 2.8
    endloop
  endfacet
  facet normal 0.195091 -0.980785 0
    outer loop
      vertex 59.3394 -3.23358 2.8
      vertex 58 -3.5 0
      vertex 59.3394 -3.23358 0
    endloop
  endfacet
  facet normal -0.55557 -0.83147 0
    outer loop
      vertex 55.5251 -2.47487 0.799999
      vertex 55.862 -2.7 2.8
      vertex 55.5251 -2.47487 2.8
    endloop
  endfacet
  facet normal -0.55557 -0.83147 -0
    outer loop
      vertex 55.862 -2.7 2.8
      vertex 55.5251 -2.47487 0.799999
      vertex 55.862 -2.7 0.799999
    endloop
  endfacet
  facet normal 0.195091 0.980785 -0
    outer loop
      vertex 59.3394 3.23358 0.799999
      vertex 58 3.5 2.8
      vertex 59.3394 3.23358 2.8
    endloop
  endfacet
  facet normal 0.195091 0.980785 0
    outer loop
      vertex 58 3.5 2.8
      vertex 59.3394 3.23358 0.799999
      vertex 58 3.5 0.799999
    endloop
  endfacet
  facet normal -0.980785 0.195091 0
    outer loop
      vertex 54.5 0 0.799999
      vertex 54.7664 1.33939 2.8
      vertex 54.7664 1.33939 0.799999
    endloop
  endfacet
  facet normal -0.980785 0.195091 0
    outer loop
      vertex 54.7664 1.33939 2.8
      vertex 54.5 0 0.799999
      vertex 54.5 0 2.8
    endloop
  endfacet
  facet normal 0.555571 -0.831469 0
    outer loop
      vertex 59.3394 -3.23358 0
      vertex 60.4749 -2.47487 2.8
      vertex 59.3394 -3.23358 2.8
    endloop
  endfacet
  facet normal 0.555571 -0.831469 0
    outer loop
      vertex 60.4749 -2.47487 2.8
      vertex 59.3394 -3.23358 0
      vertex 60.4749 -2.47487 0
    endloop
  endfacet
  facet normal 0.831469 -0.55557 0
    outer loop
      vertex 60.4749 -2.47487 2.8
      vertex 61.2336 -1.33939 0
      vertex 61.2336 -1.33939 2.8
    endloop
  endfacet
  facet normal 0.831469 -0.55557 0
    outer loop
      vertex 61.2336 -1.33939 0
      vertex 60.4749 -2.47487 2.8
      vertex 60.4749 -2.47487 0
    endloop
  endfacet
  facet normal -0.980785 -0.19509 0
    outer loop
      vertex 0.95 0 0
      vertex 0.877686 0.363549 2.8
      vertex 0.877686 0.363549 0
    endloop
  endfacet
  facet normal -0.980785 -0.19509 0
    outer loop
      vertex 0.877686 0.363549 2.8
      vertex 0.95 0 0
      vertex 0.95 0 2.8
    endloop
  endfacet
  facet normal 0.980785 -0.19509 0
    outer loop
      vertex -0.95 0 2.8
      vertex -0.877686 0.363549 0
      vertex -0.877686 0.363549 2.8
    endloop
  endfacet
  facet normal 0.980785 -0.19509 0
    outer loop
      vertex -0.877686 0.363549 0
      vertex -0.95 0 2.8
      vertex -0.95 0 0
    endloop
  endfacet
  facet normal 0.19509 -0.980785 0
    outer loop
      vertex -0.363549 0.877686 0
      vertex 0 0.95 2.8
      vertex -0.363549 0.877686 2.8
    endloop
  endfacet
  facet normal 0.19509 -0.980785 0
    outer loop
      vertex 0 0.95 2.8
      vertex -0.363549 0.877686 0
      vertex 0 0.95 0
    endloop
  endfacet
  facet normal -0.19509 0.980785 0
    outer loop
      vertex 0.363549 -0.877686 0
      vertex 0 -0.95 2.8
      vertex 0.363549 -0.877686 2.8
    endloop
  endfacet
  facet normal -0.19509 0.980785 0
    outer loop
      vertex 0 -0.95 2.8
      vertex 0.363549 -0.877686 0
      vertex 0 -0.95 0
    endloop
  endfacet
  facet normal -0.831469 0.555571 0
    outer loop
      vertex 0.671751 -0.671751 0
      vertex 0.877686 -0.363549 2.8
      vertex 0.877686 -0.363549 0
    endloop
  endfacet
  facet normal -0.831469 0.555571 0
    outer loop
      vertex 0.877686 -0.363549 2.8
      vertex 0.671751 -0.671751 0
      vertex 0.671751 -0.671751 2.8
    endloop
  endfacet
  facet normal -0.555571 -0.831469 0
    outer loop
      vertex 0.363549 0.877686 0
      vertex 0.671751 0.671751 2.8
      vertex 0.363549 0.877686 2.8
    endloop
  endfacet
  facet normal -0.555571 -0.831469 -0
    outer loop
      vertex 0.671751 0.671751 2.8
      vertex 0.363549 0.877686 0
      vertex 0.671751 0.671751 0
    endloop
  endfacet
  facet normal -0.831469 -0.555571 0
    outer loop
      vertex 0.877686 0.363549 0
      vertex 0.671751 0.671751 2.8
      vertex 0.671751 0.671751 0
    endloop
  endfacet
  facet normal -0.831469 -0.555571 0
    outer loop
      vertex 0.671751 0.671751 2.8
      vertex 0.877686 0.363549 0
      vertex 0.877686 0.363549 2.8
    endloop
  endfacet
  facet normal -0.19509 -0.980785 0
    outer loop
      vertex 0 0.95 0
      vertex 0.363549 0.877686 2.8
      vertex 0 0.95 2.8
    endloop
  endfacet
  facet normal -0.19509 -0.980785 -0
    outer loop
      vertex 0.363549 0.877686 2.8
      vertex 0 0.95 0
      vertex 0.363549 0.877686 0
    endloop
  endfacet
  facet normal 0.831469 -0.555571 0
    outer loop
      vertex -0.877686 0.363549 2.8
      vertex -0.671751 0.671751 0
      vertex -0.671751 0.671751 2.8
    endloop
  endfacet
  facet normal 0.831469 -0.555571 0
    outer loop
      vertex -0.671751 0.671751 0
      vertex -0.877686 0.363549 2.8
      vertex -0.877686 0.363549 0
    endloop
  endfacet
  facet normal 0.555571 -0.831469 0
    outer loop
      vertex -0.671751 0.671751 0
      vertex -0.363549 0.877686 2.8
      vertex -0.671751 0.671751 2.8
    endloop
  endfacet
  facet normal 0.555571 -0.831469 0
    outer loop
      vertex -0.363549 0.877686 2.8
      vertex -0.671751 0.671751 0
      vertex -0.363549 0.877686 0
    endloop
  endfacet
  facet normal -0.980785 0.19509 0
    outer loop
      vertex 0.877686 -0.363549 0
      vertex 0.95 0 2.8
      vertex 0.95 0 0
    endloop
  endfacet
  facet normal -0.980785 0.19509 0
    outer loop
      vertex 0.95 0 2.8
      vertex 0.877686 -0.363549 0
      vertex 0.877686 -0.363549 2.8
    endloop
  endfacet
  facet normal -0.555571 0.831469 0
    outer loop
      vertex 0.671751 -0.671751 0
      vertex 0.363549 -0.877686 2.8
      vertex 0.671751 -0.671751 2.8
    endloop
  endfacet
  facet normal -0.555571 0.831469 0
    outer loop
      vertex 0.363549 -0.877686 2.8
      vertex 0.671751 -0.671751 0
      vertex 0.363549 -0.877686 0
    endloop
  endfacet
  facet normal 0.19509 0.980785 -0
    outer loop
      vertex 0 -0.95 0
      vertex -0.363549 -0.877686 2.8
      vertex 0 -0.95 2.8
    endloop
  endfacet
  facet normal 0.19509 0.980785 0
    outer loop
      vertex -0.363549 -0.877686 2.8
      vertex 0 -0.95 0
      vertex -0.363549 -0.877686 0
    endloop
  endfacet
  facet normal 0.831469 0.555571 0
    outer loop
      vertex -0.671751 -0.671751 2.8
      vertex -0.877686 -0.363549 0
      vertex -0.877686 -0.363549 2.8
    endloop
  endfacet
  facet normal 0.831469 0.555571 0
    outer loop
      vertex -0.877686 -0.363549 0
      vertex -0.671751 -0.671751 2.8
      vertex -0.671751 -0.671751 0
    endloop
  endfacet
  facet normal 0.980785 0.19509 0
    outer loop
      vertex -0.877686 -0.363549 2.8
      vertex -0.95 0 0
      vertex -0.95 0 2.8
    endloop
  endfacet
  facet normal 0.980785 0.19509 0
    outer loop
      vertex -0.95 0 0
      vertex -0.877686 -0.363549 2.8
      vertex -0.877686 -0.363549 0
    endloop
  endfacet
  facet normal 0.555571 0.831469 -0
    outer loop
      vertex -0.363549 -0.877686 0
      vertex -0.671751 -0.671751 2.8
      vertex -0.363549 -0.877686 2.8
    endloop
  endfacet
  facet normal 0.555571 0.831469 0
    outer loop
      vertex -0.671751 -0.671751 2.8
      vertex -0.363549 -0.877686 0
      vertex -0.671751 -0.671751 0
    endloop
  endfacet
  facet normal -0.980785 -0.19509 0
    outer loop
      vertex 0.95 49 0
      vertex 0.877686 49.3635 2.8
      vertex 0.877686 49.3635 0
    endloop
  endfacet
  facet normal -0.980785 -0.19509 0
    outer loop
      vertex 0.877686 49.3635 2.8
      vertex 0.95 49 0
      vertex 0.95 49 2.8
    endloop
  endfacet
  facet normal 0.195092 -0.980785 0
    outer loop
      vertex -0.363549 49.8777 0
      vertex 0 49.95 2.8
      vertex -0.363549 49.8777 2.8
    endloop
  endfacet
  facet normal 0.195092 -0.980785 0
    outer loop
      vertex 0 49.95 2.8
      vertex -0.363549 49.8777 0
      vertex 0 49.95 0
    endloop
  endfacet
  facet normal -0.195092 0.980785 0
    outer loop
      vertex 0.363549 48.1223 0
      vertex 0 48.05 2.8
      vertex 0.363549 48.1223 2.8
    endloop
  endfacet
  facet normal -0.195092 0.980785 0
    outer loop
      vertex 0 48.05 2.8
      vertex 0.363549 48.1223 0
      vertex 0 48.05 0
    endloop
  endfacet
  facet normal -0.555568 -0.831471 0
    outer loop
      vertex 0.363549 49.8777 0
      vertex 0.671751 49.6718 2.8
      vertex 0.363549 49.8777 2.8
    endloop
  endfacet
  facet normal -0.555568 -0.831471 -0
    outer loop
      vertex 0.671751 49.6718 2.8
      vertex 0.363549 49.8777 0
      vertex 0.671751 49.6718 0
    endloop
  endfacet
  facet normal -0.831471 -0.555568 0
    outer loop
      vertex 0.877686 49.3635 0
      vertex 0.671751 49.6718 2.8
      vertex 0.671751 49.6718 0
    endloop
  endfacet
  facet normal -0.831471 -0.555568 0
    outer loop
      vertex 0.671751 49.6718 2.8
      vertex 0.877686 49.3635 0
      vertex 0.877686 49.3635 2.8
    endloop
  endfacet
  facet normal -0.195092 -0.980785 0
    outer loop
      vertex 0 49.95 0
      vertex 0.363549 49.8777 2.8
      vertex 0 49.95 2.8
    endloop
  endfacet
  facet normal -0.195092 -0.980785 -0
    outer loop
      vertex 0.363549 49.8777 2.8
      vertex 0 49.95 0
      vertex 0.363549 49.8777 0
    endloop
  endfacet
  facet normal 0.831471 -0.555568 0
    outer loop
      vertex -0.877686 49.3635 2.8
      vertex -0.671751 49.6718 0
      vertex -0.671751 49.6718 2.8
    endloop
  endfacet
  facet normal 0.831471 -0.555568 0
    outer loop
      vertex -0.671751 49.6718 0
      vertex -0.877686 49.3635 2.8
      vertex -0.877686 49.3635 0
    endloop
  endfacet
  facet normal 0.980785 -0.19509 0
    outer loop
      vertex -0.95 49 2.8
      vertex -0.877686 49.3635 0
      vertex -0.877686 49.3635 2.8
    endloop
  endfacet
  facet normal 0.980785 -0.19509 0
    outer loop
      vertex -0.877686 49.3635 0
      vertex -0.95 49 2.8
      vertex -0.95 49 0
    endloop
  endfacet
  facet normal 0.555568 -0.831471 0
    outer loop
      vertex -0.671751 49.6718 0
      vertex -0.363549 49.8777 2.8
      vertex -0.671751 49.6718 2.8
    endloop
  endfacet
  facet normal 0.555568 -0.831471 0
    outer loop
      vertex -0.363549 49.8777 2.8
      vertex -0.671751 49.6718 0
      vertex -0.363549 49.8777 0
    endloop
  endfacet
  facet normal -0.980785 0.19509 0
    outer loop
      vertex 0.877686 48.6365 0
      vertex 0.95 49 2.8
      vertex 0.95 49 0
    endloop
  endfacet
  facet normal -0.980785 0.19509 0
    outer loop
      vertex 0.95 49 2.8
      vertex 0.877686 48.6365 0
      vertex 0.877686 48.6365 2.8
    endloop
  endfacet
  facet normal 0.195092 0.980785 -0
    outer loop
      vertex 0 48.05 0
      vertex -0.363549 48.1223 2.8
      vertex 0 48.05 2.8
    endloop
  endfacet
  facet normal 0.195092 0.980785 0
    outer loop
      vertex -0.363549 48.1223 2.8
      vertex 0 48.05 0
      vertex -0.363549 48.1223 0
    endloop
  endfacet
  facet normal 0.831471 0.555568 0
    outer loop
      vertex -0.671751 48.3282 2.8
      vertex -0.877686 48.6365 0
      vertex -0.877686 48.6365 2.8
    endloop
  endfacet
  facet normal 0.831471 0.555568 0
    outer loop
      vertex -0.877686 48.6365 0
      vertex -0.671751 48.3282 2.8
      vertex -0.671751 48.3282 0
    endloop
  endfacet
  facet normal 0.980785 0.19509 0
    outer loop
      vertex -0.877686 48.6365 2.8
      vertex -0.95 49 0
      vertex -0.95 49 2.8
    endloop
  endfacet
  facet normal 0.980785 0.19509 0
    outer loop
      vertex -0.95 49 0
      vertex -0.877686 48.6365 2.8
      vertex -0.877686 48.6365 0
    endloop
  endfacet
  facet normal -0.831471 0.555568 0
    outer loop
      vertex 0.671751 48.3282 0
      vertex 0.877686 48.6365 2.8
      vertex 0.877686 48.6365 0
    endloop
  endfacet
  facet normal -0.831471 0.555568 0
    outer loop
      vertex 0.877686 48.6365 2.8
      vertex 0.671751 48.3282 0
      vertex 0.671751 48.3282 2.8
    endloop
  endfacet
  facet normal -0.555568 0.831471 0
    outer loop
      vertex 0.671751 48.3282 0
      vertex 0.363549 48.1223 2.8
      vertex 0.671751 48.3282 2.8
    endloop
  endfacet
  facet normal -0.555568 0.831471 0
    outer loop
      vertex 0.363549 48.1223 2.8
      vertex 0.671751 48.3282 0
      vertex 0.363549 48.1223 0
    endloop
  endfacet
  facet normal 0.555568 0.831471 -0
    outer loop
      vertex -0.363549 48.1223 0
      vertex -0.671751 48.3282 2.8
      vertex -0.363549 48.1223 2.8
    endloop
  endfacet
  facet normal 0.555568 0.831471 0
    outer loop
      vertex -0.671751 48.3282 2.8
      vertex -0.363549 48.1223 0
      vertex -0.671751 48.3282 0
    endloop
  endfacet
  facet normal -0.980785 -0.195093 0
    outer loop
      vertex 58.95 49 0
      vertex 58.8777 49.3635 2.8
      vertex 58.8777 49.3635 0
    endloop
  endfacet
  facet normal -0.980785 -0.195093 0
    outer loop
      vertex 58.8777 49.3635 2.8
      vertex 58.95 49 0
      vertex 58.95 49 2.8
    endloop
  endfacet
  facet normal 0.195093 -0.980785 0
    outer loop
      vertex 57.6365 49.8777 0
      vertex 58 49.95 2.8
      vertex 57.6365 49.8777 2.8
    endloop
  endfacet
  facet normal 0.195093 -0.980785 0
    outer loop
      vertex 58 49.95 2.8
      vertex 57.6365 49.8777 0
      vertex 58 49.95 0
    endloop
  endfacet
  facet normal -0.555564 0.831474 0
    outer loop
      vertex 58.6718 48.3282 0
      vertex 58.3635 48.1223 2.8
      vertex 58.6718 48.3282 2.8
    endloop
  endfacet
  facet normal -0.555564 0.831474 0
    outer loop
      vertex 58.3635 48.1223 2.8
      vertex 58.6718 48.3282 0
      vertex 58.3635 48.1223 0
    endloop
  endfacet
  facet normal -0.555564 -0.831474 0
    outer loop
      vertex 58.3635 49.8777 0
      vertex 58.6718 49.6718 2.8
      vertex 58.3635 49.8777 2.8
    endloop
  endfacet
  facet normal -0.555564 -0.831474 -0
    outer loop
      vertex 58.6718 49.6718 2.8
      vertex 58.3635 49.8777 0
      vertex 58.6718 49.6718 0
    endloop
  endfacet
  facet normal -0.831474 -0.555564 0
    outer loop
      vertex 58.8777 49.3635 0
      vertex 58.6718 49.6718 2.8
      vertex 58.6718 49.6718 0
    endloop
  endfacet
  facet normal -0.831474 -0.555564 0
    outer loop
      vertex 58.6718 49.6718 2.8
      vertex 58.8777 49.3635 0
      vertex 58.8777 49.3635 2.8
    endloop
  endfacet
  facet normal -0.195093 -0.980785 0
    outer loop
      vertex 58 49.95 0
      vertex 58.3635 49.8777 2.8
      vertex 58 49.95 2.8
    endloop
  endfacet
  facet normal -0.195093 -0.980785 -0
    outer loop
      vertex 58.3635 49.8777 2.8
      vertex 58 49.95 0
      vertex 58.3635 49.8777 0
    endloop
  endfacet
  facet normal 0.831474 -0.555564 0
    outer loop
      vertex 57.1223 49.3635 2.8
      vertex 57.3282 49.6718 0
      vertex 57.3282 49.6718 2.8
    endloop
  endfacet
  facet normal 0.831474 -0.555564 0
    outer loop
      vertex 57.3282 49.6718 0
      vertex 57.1223 49.3635 2.8
      vertex 57.1223 49.3635 0
    endloop
  endfacet
  facet normal 0.980785 -0.195093 0
    outer loop
      vertex 57.05 49 2.8
      vertex 57.1223 49.3635 0
      vertex 57.1223 49.3635 2.8
    endloop
  endfacet
  facet normal 0.980785 -0.195093 0
    outer loop
      vertex 57.1223 49.3635 0
      vertex 57.05 49 2.8
      vertex 57.05 49 0
    endloop
  endfacet
  facet normal 0.555564 -0.831474 0
    outer loop
      vertex 57.3282 49.6718 0
      vertex 57.6365 49.8777 2.8
      vertex 57.3282 49.6718 2.8
    endloop
  endfacet
  facet normal 0.555564 -0.831474 0
    outer loop
      vertex 57.6365 49.8777 2.8
      vertex 57.3282 49.6718 0
      vertex 57.6365 49.8777 0
    endloop
  endfacet
  facet normal 0.195093 0.980785 -0
    outer loop
      vertex 58 48.05 0
      vertex 57.6365 48.1223 2.8
      vertex 58 48.05 2.8
    endloop
  endfacet
  facet normal 0.195093 0.980785 0
    outer loop
      vertex 57.6365 48.1223 2.8
      vertex 58 48.05 0
      vertex 57.6365 48.1223 0
    endloop
  endfacet
  facet normal 0.831474 0.555564 0
    outer loop
      vertex 57.3282 48.3282 2.8
      vertex 57.1223 48.6365 0
      vertex 57.1223 48.6365 2.8
    endloop
  endfacet
  facet normal 0.831474 0.555564 0
    outer loop
      vertex 57.1223 48.6365 0
      vertex 57.3282 48.3282 2.8
      vertex 57.3282 48.3282 0
    endloop
  endfacet
  facet normal 0.980785 0.195093 0
    outer loop
      vertex 57.1223 48.6365 2.8
      vertex 57.05 49 0
      vertex 57.05 49 2.8
    endloop
  endfacet
  facet normal 0.980785 0.195093 0
    outer loop
      vertex 57.05 49 0
      vertex 57.1223 48.6365 2.8
      vertex 57.1223 48.6365 0
    endloop
  endfacet
  facet normal -0.831474 0.555564 0
    outer loop
      vertex 58.6718 48.3282 0
      vertex 58.8777 48.6365 2.8
      vertex 58.8777 48.6365 0
    endloop
  endfacet
  facet normal -0.831474 0.555564 0
    outer loop
      vertex 58.8777 48.6365 2.8
      vertex 58.6718 48.3282 0
      vertex 58.6718 48.3282 2.8
    endloop
  endfacet
  facet normal -0.980785 0.195093 0
    outer loop
      vertex 58.8777 48.6365 0
      vertex 58.95 49 2.8
      vertex 58.95 49 0
    endloop
  endfacet
  facet normal -0.980785 0.195093 0
    outer loop
      vertex 58.95 49 2.8
      vertex 58.8777 48.6365 0
      vertex 58.8777 48.6365 2.8
    endloop
  endfacet
  facet normal -0.195093 0.980785 0
    outer loop
      vertex 58.3635 48.1223 0
      vertex 58 48.05 2.8
      vertex 58.3635 48.1223 2.8
    endloop
  endfacet
  facet normal -0.195093 0.980785 0
    outer loop
      vertex 58 48.05 2.8
      vertex 58.3635 48.1223 0
      vertex 58 48.05 0
    endloop
  endfacet
  facet normal 0.555564 0.831474 -0
    outer loop
      vertex 57.6365 48.1223 0
      vertex 57.3282 48.3282 2.8
      vertex 57.6365 48.1223 2.8
    endloop
  endfacet
  facet normal 0.555564 0.831474 0
    outer loop
      vertex 57.3282 48.3282 2.8
      vertex 57.6365 48.1223 0
      vertex 57.3282 48.3282 0
    endloop
  endfacet
  facet normal -0.980785 -0.195092 0
    outer loop
      vertex 58.95 0 0
      vertex 58.8777 0.363549 2.8
      vertex 58.8777 0.363549 0
    endloop
  endfacet
  facet normal -0.980785 -0.195092 0
    outer loop
      vertex 58.8777 0.363549 2.8
      vertex 58.95 0 0
      vertex 58.95 0 2.8
    endloop
  endfacet
  facet normal 0.980785 -0.195092 0
    outer loop
      vertex 57.05 0 2.8
      vertex 57.1223 0.363549 0
      vertex 57.1223 0.363549 2.8
    endloop
  endfacet
  facet normal 0.980785 -0.195092 0
    outer loop
      vertex 57.1223 0.363549 0
      vertex 57.05 0 2.8
      vertex 57.05 0 0
    endloop
  endfacet
  facet normal 0.19509 -0.980785 0
    outer loop
      vertex 57.6365 0.877686 0
      vertex 58 0.95 2.8
      vertex 57.6365 0.877686 2.8
    endloop
  endfacet
  facet normal 0.19509 -0.980785 0
    outer loop
      vertex 58 0.95 2.8
      vertex 57.6365 0.877686 0
      vertex 58 0.95 0
    endloop
  endfacet
  facet normal -0.19509 0.980785 0
    outer loop
      vertex 58.3635 -0.877686 0
      vertex 58 -0.95 2.8
      vertex 58.3635 -0.877686 2.8
    endloop
  endfacet
  facet normal -0.19509 0.980785 0
    outer loop
      vertex 58 -0.95 2.8
      vertex 58.3635 -0.877686 0
      vertex 58 -0.95 0
    endloop
  endfacet
  facet normal -0.555568 -0.831471 0
    outer loop
      vertex 58.3635 0.877686 0
      vertex 58.6718 0.671751 2.8
      vertex 58.3635 0.877686 2.8
    endloop
  endfacet
  facet normal -0.555568 -0.831471 -0
    outer loop
      vertex 58.6718 0.671751 2.8
      vertex 58.3635 0.877686 0
      vertex 58.6718 0.671751 0
    endloop
  endfacet
  facet normal -0.831471 -0.555568 0
    outer loop
      vertex 58.8777 0.363549 0
      vertex 58.6718 0.671751 2.8
      vertex 58.6718 0.671751 0
    endloop
  endfacet
  facet normal -0.831471 -0.555568 0
    outer loop
      vertex 58.6718 0.671751 2.8
      vertex 58.8777 0.363549 0
      vertex 58.8777 0.363549 2.8
    endloop
  endfacet
  facet normal -0.19509 -0.980785 0
    outer loop
      vertex 58 0.95 0
      vertex 58.3635 0.877686 2.8
      vertex 58 0.95 2.8
    endloop
  endfacet
  facet normal -0.19509 -0.980785 -0
    outer loop
      vertex 58.3635 0.877686 2.8
      vertex 58 0.95 0
      vertex 58.3635 0.877686 0
    endloop
  endfacet
  facet normal 0.831471 -0.555568 0
    outer loop
      vertex 57.1223 0.363549 2.8
      vertex 57.3282 0.671751 0
      vertex 57.3282 0.671751 2.8
    endloop
  endfacet
  facet normal 0.831471 -0.555568 0
    outer loop
      vertex 57.3282 0.671751 0
      vertex 57.1223 0.363549 2.8
      vertex 57.1223 0.363549 0
    endloop
  endfacet
  facet normal 0.555568 -0.831471 0
    outer loop
      vertex 57.3282 0.671751 0
      vertex 57.6365 0.877686 2.8
      vertex 57.3282 0.671751 2.8
    endloop
  endfacet
  facet normal 0.555568 -0.831471 0
    outer loop
      vertex 57.6365 0.877686 2.8
      vertex 57.3282 0.671751 0
      vertex 57.6365 0.877686 0
    endloop
  endfacet
  facet normal -0.980785 0.195092 0
    outer loop
      vertex 58.8777 -0.363549 0
      vertex 58.95 0 2.8
      vertex 58.95 0 0
    endloop
  endfacet
  facet normal -0.980785 0.195092 0
    outer loop
      vertex 58.95 0 2.8
      vertex 58.8777 -0.363549 0
      vertex 58.8777 -0.363549 2.8
    endloop
  endfacet
  facet normal -0.555568 0.831471 0
    outer loop
      vertex 58.6718 -0.671751 0
      vertex 58.3635 -0.877686 2.8
      vertex 58.6718 -0.671751 2.8
    endloop
  endfacet
  facet normal -0.555568 0.831471 0
    outer loop
      vertex 58.3635 -0.877686 2.8
      vertex 58.6718 -0.671751 0
      vertex 58.3635 -0.877686 0
    endloop
  endfacet
  facet normal 0.980785 0.195092 0
    outer loop
      vertex 57.1223 -0.363549 2.8
      vertex 57.05 0 0
      vertex 57.05 0 2.8
    endloop
  endfacet
  facet normal 0.980785 0.195092 0
    outer loop
      vertex 57.05 0 0
      vertex 57.1223 -0.363549 2.8
      vertex 57.1223 -0.363549 0
    endloop
  endfacet
  facet normal -0.831471 0.555568 0
    outer loop
      vertex 58.6718 -0.671751 0
      vertex 58.8777 -0.363549 2.8
      vertex 58.8777 -0.363549 0
    endloop
  endfacet
  facet normal -0.831471 0.555568 0
    outer loop
      vertex 58.8777 -0.363549 2.8
      vertex 58.6718 -0.671751 0
      vertex 58.6718 -0.671751 2.8
    endloop
  endfacet
  facet normal 0.19509 0.980785 -0
    outer loop
      vertex 58 -0.95 0
      vertex 57.6365 -0.877686 2.8
      vertex 58 -0.95 2.8
    endloop
  endfacet
  facet normal 0.19509 0.980785 0
    outer loop
      vertex 57.6365 -0.877686 2.8
      vertex 58 -0.95 0
      vertex 57.6365 -0.877686 0
    endloop
  endfacet
  facet normal 0.831471 0.555568 0
    outer loop
      vertex 57.3282 -0.671751 2.8
      vertex 57.1223 -0.363549 0
      vertex 57.1223 -0.363549 2.8
    endloop
  endfacet
  facet normal 0.831471 0.555568 0
    outer loop
      vertex 57.1223 -0.363549 0
      vertex 57.3282 -0.671751 2.8
      vertex 57.3282 -0.671751 0
    endloop
  endfacet
  facet normal 0.555568 0.831471 -0
    outer loop
      vertex 57.6365 -0.877686 0
      vertex 57.3282 -0.671751 2.8
      vertex 57.6365 -0.877686 2.8
    endloop
  endfacet
  facet normal 0.555568 0.831471 0
    outer loop
      vertex 57.3282 -0.671751 2.8
      vertex 57.6365 -0.877686 0
      vertex 57.3282 -0.671751 0
    endloop
  endfacet
  facet normal 0 -1 0
    outer loop
      vertex -3.5 32.5 0.799999
      vertex -2.7 32.5 2.8
      vertex -3.5 32.5 2.8
    endloop
  endfacet
  facet normal 0 -1 -0
    outer loop
      vertex -2.7 32.5 2.8
      vertex -3.5 32.5 0.799999
      vertex -2.7 32.5 0.799999
    endloop
  endfacet
  facet normal 0 1 -0
    outer loop
      vertex -2.7 17.5 0.799999
      vertex -3.5 17.5 2.8
      vertex -2.7 17.5 2.8
    endloop
  endfacet
  facet normal 0 1 0
    outer loop
      vertex -3.5 17.5 2.8
      vertex -2.7 17.5 0.799999
      vertex -3.5 17.5 0.799999
    endloop
  endfacet
endsolid OpenSCAD_Model
