solid OpenSCAD_Model
  facet normal 0.980785 0.195091 0
    outer loop
      vertex 3.5 49 4
      vertex 3.23358 50.3394 2
      vertex 3.23358 50.3394 4
    endloop
  endfacet
  facet normal 0.980785 0.195091 0
    outer loop
      vertex 3.23358 50.3394 2
      vertex 3.5 49 4
      vertex 3.5 49 2
    endloop
  endfacet
  facet normal -0.980785 0.195091 0
    outer loop
      vertex -3.5 49 0
      vertex -3.23358 50.3394 4
      vertex -3.23358 50.3394 0
    endloop
  endfacet
  facet normal -0.980785 0.195091 0
    outer loop
      vertex -3.23358 50.3394 4
      vertex -3.5 49 0
      vertex -3.5 49 4
    endloop
  endfacet
  facet normal 0.831466 0.555575 0
    outer loop
      vertex 3.23358 50.3394 4
      vertex 3.12626 50.5 2
      vertex 3.12626 50.5 4
    endloop
  endfacet
  facet normal 0.831466 0.555575 0
    outer loop
      vertex 3.12626 50.5 2
      vertex 3.23358 50.3394 4
      vertex 3.23358 50.3394 2
    endloop
  endfacet
  facet normal 0.195091 -0.980785 0
    outer loop
      vertex 0 45.5 2
      vertex 1.33939 45.7664 4
      vertex 0 45.5 4
    endloop
  endfacet
  facet normal 0.195091 -0.980785 0
    outer loop
      vertex 1.33939 45.7664 4
      vertex 0 45.5 2
      vertex 1.33939 45.7664 2
    endloop
  endfacet
  facet normal -0.195091 -0.980785 0
    outer loop
      vertex -1.33939 45.7664 2
      vertex 0 45.5 4
      vertex -1.33939 45.7664 4
    endloop
  endfacet
  facet normal -0.195091 -0.980785 -0
    outer loop
      vertex 0 45.5 4
      vertex -1.33939 45.7664 2
      vertex 0 45.5 2
    endloop
  endfacet
  facet normal -0.195091 0.980785 0
    outer loop
      vertex 0 52.5 0
      vertex -1.33939 52.2336 4
      vertex 0 52.5 4
    endloop
  endfacet
  facet normal -0.195091 0.980785 0
    outer loop
      vertex -1.33939 52.2336 4
      vertex 0 52.5 0
      vertex -1.33939 52.2336 0
    endloop
  endfacet
  facet normal -0.55557 0.831469 0
    outer loop
      vertex -1.33939 52.2336 0
      vertex -2.47487 51.4749 4
      vertex -1.33939 52.2336 4
    endloop
  endfacet
  facet normal -0.55557 0.831469 0
    outer loop
      vertex -2.47487 51.4749 4
      vertex -1.33939 52.2336 0
      vertex -2.47487 51.4749 0
    endloop
  endfacet
  facet normal -0.55557 -0.83147 0
    outer loop
      vertex -1.5 45.8737 2
      vertex -1.33939 45.7664 4
      vertex -1.5 45.8737 4
    endloop
  endfacet
  facet normal -0.55557 -0.83147 -0
    outer loop
      vertex -1.33939 45.7664 4
      vertex -1.5 45.8737 2
      vertex -1.33939 45.7664 2
    endloop
  endfacet
  facet normal 0 0 -1
    outer loop
      vertex 56.5858 1.41421 0
      vertex 1.41421 1.41421 0
      vertex 56.5858 47.5858 0
    endloop
  endfacet
  facet normal 0 0 -1
    outer loop
      vertex 56.5858 47.5858 0
      vertex 1.84776 48.2346 0
      vertex 2 49 0
    endloop
  endfacet
  facet normal 0 0 -1
    outer loop
      vertex 1.41421 47.5858 0
      vertex 56.5858 47.5858 0
      vertex 1.41421 1.41421 0
    endloop
  endfacet
  facet normal 0 0 -1
    outer loop
      vertex 56.5858 47.5858 0
      vertex 1.41421 47.5858 0
      vertex 1.84776 48.2346 0
    endloop
  endfacet
  facet normal 0 0 -1
    outer loop
      vertex 0.765367 1.84776 0
      vertex 1.41421 47.5858 0
      vertex 1.41421 1.41421 0
    endloop
  endfacet
  facet normal 0 0 -1
    outer loop
      vertex 0.765367 1.84776 0
      vertex 0.765367 47.1522 0
      vertex 1.41421 47.5858 0
    endloop
  endfacet
  facet normal 0 0 -1
    outer loop
      vertex 0 2 0
      vertex 0.765367 47.1522 0
      vertex 0.765367 1.84776 0
    endloop
  endfacet
  facet normal 0 0 -1
    outer loop
      vertex 0 2 0
      vertex 0 47 0
      vertex 0.765367 47.1522 0
    endloop
  endfacet
  facet normal 0 0 -1
    outer loop
      vertex -0.765367 1.84776 0
      vertex 0 47 0
      vertex 0 2 0
    endloop
  endfacet
  facet normal 0 0 -1
    outer loop
      vertex -0.765367 1.84776 0
      vertex -0.765367 47.1522 0
      vertex 0 47 0
    endloop
  endfacet
  facet normal 0 0 -1
    outer loop
      vertex -1.41421 1.41421 0
      vertex -0.765367 47.1522 0
      vertex -0.765367 1.84776 0
    endloop
  endfacet
  facet normal 0 0 -1
    outer loop
      vertex -1.41421 1.41421 0
      vertex -1.41421 47.5858 0
      vertex -0.765367 47.1522 0
    endloop
  endfacet
  facet normal 0 0 -1
    outer loop
      vertex -3.5 0 0
      vertex -1.41421 1.41421 0
      vertex -1.84776 0.765367 0
    endloop
  endfacet
  facet normal -0 0 -1
    outer loop
      vertex -1.41421 1.41421 0
      vertex -3.5 0 0
      vertex -1.41421 47.5858 0
    endloop
  endfacet
  facet normal 0 0 -1
    outer loop
      vertex -3.5 0 0
      vertex -1.84776 0.765367 0
      vertex -2 0 0
    endloop
  endfacet
  facet normal 0 0 -1
    outer loop
      vertex -3.5 49 0
      vertex -1.41421 47.5858 0
      vertex -3.5 0 0
    endloop
  endfacet
  facet normal 0 0 -1
    outer loop
      vertex 61.5 0 0
      vertex 59.4142 1.41421 0
      vertex 61.5 49 0
    endloop
  endfacet
  facet normal -0 0 -1
    outer loop
      vertex 61.5 49 0
      vertex 59.8478 48.2346 0
      vertex 60 49 0
    endloop
  endfacet
  facet normal 0 0 -1
    outer loop
      vertex 59.4142 47.5858 0
      vertex 61.5 49 0
      vertex 59.4142 1.41421 0
    endloop
  endfacet
  facet normal 0 0 -1
    outer loop
      vertex 61.5 49 0
      vertex 59.4142 47.5858 0
      vertex 59.8478 48.2346 0
    endloop
  endfacet
  facet normal 0 0 -1
    outer loop
      vertex 58.7654 1.84776 0
      vertex 59.4142 47.5858 0
      vertex 59.4142 1.41421 0
    endloop
  endfacet
  facet normal 0 0 -1
    outer loop
      vertex 58.7654 1.84776 0
      vertex 58.7654 47.1522 0
      vertex 59.4142 47.5858 0
    endloop
  endfacet
  facet normal 0 0 -1
    outer loop
      vertex 58 2 0
      vertex 58.7654 47.1522 0
      vertex 58.7654 1.84776 0
    endloop
  endfacet
  facet normal 0 0 -1
    outer loop
      vertex 58 2 0
      vertex 58 47 0
      vertex 58.7654 47.1522 0
    endloop
  endfacet
  facet normal 0 0 -1
    outer loop
      vertex 57.2346 1.84776 0
      vertex 58 47 0
      vertex 58 2 0
    endloop
  endfacet
  facet normal 0 0 -1
    outer loop
      vertex 57.2346 1.84776 0
      vertex 57.2346 47.1522 0
      vertex 58 47 0
    endloop
  endfacet
  facet normal 0 0 -1
    outer loop
      vertex 56.5858 1.41421 0
      vertex 57.2346 47.1522 0
      vertex 57.2346 1.84776 0
    endloop
  endfacet
  facet normal 0 0 -1
    outer loop
      vertex 56.5858 1.41421 0
      vertex 56.5858 47.5858 0
      vertex 57.2346 47.1522 0
    endloop
  endfacet
  facet normal 0 0 -1
    outer loop
      vertex 1.84776 0.765367 0
      vertex 56.1522 0.765367 0
      vertex 2 0 0
    endloop
  endfacet
  facet normal 0 0 -1
    outer loop
      vertex 56.1522 0.765367 0
      vertex 1.84776 0.765367 0
      vertex 56.5858 1.41421 0
    endloop
  endfacet
  facet normal 0 0 -1
    outer loop
      vertex 2 0 0
      vertex 56.1522 0.765367 0
      vertex 56 0 0
    endloop
  endfacet
  facet normal 0 0 -1
    outer loop
      vertex 1.41421 1.41421 0
      vertex 56.5858 1.41421 0
      vertex 1.84776 0.765367 0
    endloop
  endfacet
  facet normal 0 0 -1
    outer loop
      vertex 60 0 0
      vertex 61.5 0 0
      vertex 61.2336 -1.33939 0
    endloop
  endfacet
  facet normal 0 0 -1
    outer loop
      vertex 59.8478 0.765367 0
      vertex 61.5 0 0
      vertex 60 0 0
    endloop
  endfacet
  facet normal 0 0 -1
    outer loop
      vertex 59.8478 -0.765367 0
      vertex 61.2336 -1.33939 0
      vertex 60.4749 -2.47487 0
    endloop
  endfacet
  facet normal 0 0 -1
    outer loop
      vertex 59.4142 1.41421 0
      vertex 61.5 0 0
      vertex 59.8478 0.765367 0
    endloop
  endfacet
  facet normal 0 0 -1
    outer loop
      vertex 61.5 49 0
      vertex 60 49 0
      vertex 61.2336 50.3394 0
    endloop
  endfacet
  facet normal 0 0 -1
    outer loop
      vertex 61.2336 -1.33939 0
      vertex 59.8478 -0.765367 0
      vertex 60 0 0
    endloop
  endfacet
  facet normal 0 0 -1
    outer loop
      vertex 60.4749 -2.47487 0
      vertex 59.4142 -1.41421 0
      vertex 59.8478 -0.765367 0
    endloop
  endfacet
  facet normal 0 0 -1
    outer loop
      vertex 59.3394 -3.23358 0
      vertex 59.4142 -1.41421 0
      vertex 60.4749 -2.47487 0
    endloop
  endfacet
  facet normal 0 0 -1
    outer loop
      vertex 59.3394 -3.23358 0
      vertex 58.7654 -1.84776 0
      vertex 59.4142 -1.41421 0
    endloop
  endfacet
  facet normal 0 0 -1
    outer loop
      vertex 58 -3.5 0
      vertex 58.7654 -1.84776 0
      vertex 59.3394 -3.23358 0
    endloop
  endfacet
  facet normal 0 0 -1
    outer loop
      vertex 58 -3.5 0
      vertex 58 -2 0
      vertex 58.7654 -1.84776 0
    endloop
  endfacet
  facet normal 0 0 -1
    outer loop
      vertex 58 -3.5 0
      vertex 57.2346 -1.84776 0
      vertex 58 -2 0
    endloop
  endfacet
  facet normal 0 0 -1
    outer loop
      vertex 58 -3.5 0
      vertex 56.5858 -1.41421 0
      vertex 57.2346 -1.84776 0
    endloop
  endfacet
  facet normal 0 0 -1
    outer loop
      vertex 56.5858 47.5858 0
      vertex 2 49 0
      vertex 56.1522 48.2346 0
    endloop
  endfacet
  facet normal 0 0 -1
    outer loop
      vertex 56.1522 -0.765367 0
      vertex 2 0 0
      vertex 56 0 0
    endloop
  endfacet
  facet normal 0 0 -1
    outer loop
      vertex 1.84776 -0.765367 0
      vertex 56.1522 -0.765367 0
      vertex 56.5858 -1.41421 0
    endloop
  endfacet
  facet normal 0 0 -1
    outer loop
      vertex 1.41421 -1.41421 0
      vertex 56.5858 -1.41421 0
      vertex 58 -3.5 0
    endloop
  endfacet
  facet normal 0 0 -1
    outer loop
      vertex 56.1522 -0.765367 0
      vertex 1.84776 -0.765367 0
      vertex 2 0 0
    endloop
  endfacet
  facet normal 0 0 -1
    outer loop
      vertex 56.5858 -1.41421 0
      vertex 1.41421 -1.41421 0
      vertex 1.84776 -0.765367 0
    endloop
  endfacet
  facet normal 0 0 -1
    outer loop
      vertex 0 -3.5 0
      vertex 1.41421 -1.41421 0
      vertex 58 -3.5 0
    endloop
  endfacet
  facet normal 0 0 -1
    outer loop
      vertex 1.41421 -1.41421 0
      vertex 0 -3.5 0
      vertex 0.765367 -1.84776 0
    endloop
  endfacet
  facet normal 0 0 -1
    outer loop
      vertex 0 -3.5 0
      vertex 0 -2 0
      vertex 0.765367 -1.84776 0
    endloop
  endfacet
  facet normal 0 0 -1
    outer loop
      vertex 0 -3.5 0
      vertex -0.765367 -1.84776 0
      vertex 0 -2 0
    endloop
  endfacet
  facet normal 0 0 -1
    outer loop
      vertex -1.33939 -3.23358 0
      vertex -0.765367 -1.84776 0
      vertex 0 -3.5 0
    endloop
  endfacet
  facet normal 0 0 -1
    outer loop
      vertex -1.33939 -3.23358 0
      vertex -1.41421 -1.41421 0
      vertex -0.765367 -1.84776 0
    endloop
  endfacet
  facet normal 0 0 -1
    outer loop
      vertex -2.47487 -2.47487 0
      vertex -1.41421 -1.41421 0
      vertex -1.33939 -3.23358 0
    endloop
  endfacet
  facet normal -0 0 -1
    outer loop
      vertex -1.84776 -0.765367 0
      vertex -3.23358 -1.33939 0
      vertex -2 0 0
    endloop
  endfacet
  facet normal 0 0 -1
    outer loop
      vertex -3.23358 -1.33939 0
      vertex -1.84776 -0.765367 0
      vertex -2.47487 -2.47487 0
    endloop
  endfacet
  facet normal -0 0 -1
    outer loop
      vertex -1.41421 -1.41421 0
      vertex -2.47487 -2.47487 0
      vertex -1.84776 -0.765367 0
    endloop
  endfacet
  facet normal 0 0 -1
    outer loop
      vertex 59.8478 49.7654 0
      vertex 61.2336 50.3394 0
      vertex 60 49 0
    endloop
  endfacet
  facet normal -0 0 -1
    outer loop
      vertex 61.2336 50.3394 0
      vertex 59.8478 49.7654 0
      vertex 60.4749 51.4749 0
    endloop
  endfacet
  facet normal 0 0 -1
    outer loop
      vertex 59.4142 50.4142 0
      vertex 60.4749 51.4749 0
      vertex 59.8478 49.7654 0
    endloop
  endfacet
  facet normal 0 0 -1
    outer loop
      vertex 59.4142 50.4142 0
      vertex 59.3394 52.2336 0
      vertex 60.4749 51.4749 0
    endloop
  endfacet
  facet normal 0 0 -1
    outer loop
      vertex 58.7654 50.8478 0
      vertex 59.3394 52.2336 0
      vertex 59.4142 50.4142 0
    endloop
  endfacet
  facet normal 0 0 -1
    outer loop
      vertex 58 51 0
      vertex 59.3394 52.2336 0
      vertex 58.7654 50.8478 0
    endloop
  endfacet
  facet normal 0 0 -1
    outer loop
      vertex 58 51 0
      vertex 58 52.5 0
      vertex 59.3394 52.2336 0
    endloop
  endfacet
  facet normal 0 0 -1
    outer loop
      vertex 57.2346 50.8478 0
      vertex 58 52.5 0
      vertex 58 51 0
    endloop
  endfacet
  facet normal 0 0 -1
    outer loop
      vertex 56.5858 50.4142 0
      vertex 58 52.5 0
      vertex 57.2346 50.8478 0
    endloop
  endfacet
  facet normal 0 0 -1
    outer loop
      vertex 56.1522 48.2346 0
      vertex 2 49 0
      vertex 56 49 0
    endloop
  endfacet
  facet normal 0 0 -1
    outer loop
      vertex 56 49 0
      vertex 2 49 0
      vertex 56.1522 49.7654 0
    endloop
  endfacet
  facet normal 0 0 -1
    outer loop
      vertex 1.84776 49.7654 0
      vertex 56.1522 49.7654 0
      vertex 2 49 0
    endloop
  endfacet
  facet normal 0 0 -1
    outer loop
      vertex 56.1522 49.7654 0
      vertex 1.84776 49.7654 0
      vertex 56.5858 50.4142 0
    endloop
  endfacet
  facet normal 0 0 -1
    outer loop
      vertex 1.41421 50.4142 0
      vertex 56.5858 50.4142 0
      vertex 1.84776 49.7654 0
    endloop
  endfacet
  facet normal 0 0 -1
    outer loop
      vertex 56.5858 50.4142 0
      vertex 1.41421 50.4142 0
      vertex 58 52.5 0
    endloop
  endfacet
  facet normal 0 0 -1
    outer loop
      vertex 0 52.5 0
      vertex 1.41421 50.4142 0
      vertex 0.765367 50.8478 0
    endloop
  endfacet
  facet normal 0 0 -1
    outer loop
      vertex 0 52.5 0
      vertex 0.765367 50.8478 0
      vertex 0 51 0
    endloop
  endfacet
  facet normal 0 0 -1
    outer loop
      vertex 1.41421 50.4142 0
      vertex 0 52.5 0
      vertex 58 52.5 0
    endloop
  endfacet
  facet normal 0 0 -1
    outer loop
      vertex -0.765367 50.8478 0
      vertex 0 52.5 0
      vertex 0 51 0
    endloop
  endfacet
  facet normal 0 0 -1
    outer loop
      vertex -0.765367 50.8478 0
      vertex -1.33939 52.2336 0
      vertex 0 52.5 0
    endloop
  endfacet
  facet normal 0 0 -1
    outer loop
      vertex -1.41421 50.4142 0
      vertex -1.33939 52.2336 0
      vertex -0.765367 50.8478 0
    endloop
  endfacet
  facet normal 0 0 -1
    outer loop
      vertex -2.47487 51.4749 0
      vertex -1.41421 50.4142 0
      vertex -1.84776 49.7654 0
    endloop
  endfacet
  facet normal 0 0 -1
    outer loop
      vertex -1.41421 50.4142 0
      vertex -2.47487 51.4749 0
      vertex -1.33939 52.2336 0
    endloop
  endfacet
  facet normal 0 0 -1
    outer loop
      vertex -3.23358 50.3394 0
      vertex -1.84776 49.7654 0
      vertex -2 49 0
    endloop
  endfacet
  facet normal 0 0 -1
    outer loop
      vertex -1.41421 47.5858 0
      vertex -3.5 49 0
      vertex -1.84776 48.2346 0
    endloop
  endfacet
  facet normal -0 0 -1
    outer loop
      vertex -2 0 0
      vertex -3.23358 -1.33939 0
      vertex -3.5 0 0
    endloop
  endfacet
  facet normal 0 0 -1
    outer loop
      vertex -1.84776 48.2346 0
      vertex -3.5 49 0
      vertex -2 49 0
    endloop
  endfacet
  facet normal 0 -0 -1
    outer loop
      vertex -3.23358 50.3394 0
      vertex -2 49 0
      vertex -3.5 49 0
    endloop
  endfacet
  facet normal 0 0 -1
    outer loop
      vertex -1.84776 49.7654 0
      vertex -3.23358 50.3394 0
      vertex -2.47487 51.4749 0
    endloop
  endfacet
  facet normal 0 0 1
    outer loop
      vertex 2 0 4
      vertex 3.5 0 4
      vertex 3.23358 1.33939 4
    endloop
  endfacet
  facet normal 0 0 1
    outer loop
      vertex 3.5 0 4
      vertex 2 0 4
      vertex 3.23358 -1.33939 4
    endloop
  endfacet
  facet normal 0 0 1
    outer loop
      vertex 1.84776 0.765367 4
      vertex 3.23358 1.33939 4
      vertex 2.47487 2.47487 4
    endloop
  endfacet
  facet normal 0 0 1
    outer loop
      vertex 54.5 0 4
      vertex 56 0 4
      vertex 54.7664 1.33939 4
    endloop
  endfacet
  facet normal 0 -0 1
    outer loop
      vertex 54.7664 -1.33939 4
      vertex 56 0 4
      vertex 54.5 0 4
    endloop
  endfacet
  facet normal 0 0 1
    outer loop
      vertex 56 0 4
      vertex 54.7664 -1.33939 4
      vertex 54.8737 -1.5 4
    endloop
  endfacet
  facet normal 0 0 1
    outer loop
      vertex 54.5 49 4
      vertex 56 49 4
      vertex 54.7664 50.3394 4
    endloop
  endfacet
  facet normal 0 0 1
    outer loop
      vertex 56 49 4
      vertex 54.7664 47.6606 4
      vertex 55.5251 46.5251 4
    endloop
  endfacet
  facet normal 0 0 1
    outer loop
      vertex 56 49 4
      vertex 54.5 49 4
      vertex 54.7664 47.6606 4
    endloop
  endfacet
  facet normal 0 0 1
    outer loop
      vertex 2 49 4
      vertex 3.5 49 4
      vertex 3.23358 50.3394 4
    endloop
  endfacet
  facet normal 0 0 1
    outer loop
      vertex 1.84776 49.7654 4
      vertex 3.23358 50.3394 4
      vertex 3.12626 50.5 4
    endloop
  endfacet
  facet normal 0 0 1
    outer loop
      vertex 3.5 49 4
      vertex 2 49 4
      vertex 3.23358 47.6606 4
    endloop
  endfacet
  facet normal -0 0 1
    outer loop
      vertex -3.5 17.5 4
      vertex -1.5 3.12626 4
      vertex -1.5 17.5 4
    endloop
  endfacet
  facet normal 0 0 1
    outer loop
      vertex -3.5 0 4
      vertex -1.5 3.12626 4
      vertex -3.5 17.5 4
    endloop
  endfacet
  facet normal 0 0 1
    outer loop
      vertex -1.5 3.12626 4
      vertex -3.5 0 4
      vertex -1.84776 0.765367 4
    endloop
  endfacet
  facet normal 0 -0 1
    outer loop
      vertex -3.23358 -1.33939 4
      vertex -2 0 4
      vertex -3.5 0 4
    endloop
  endfacet
  facet normal 0 0 1
    outer loop
      vertex -1.84776 0.765367 4
      vertex -3.5 0 4
      vertex -2 0 4
    endloop
  endfacet
  facet normal 0 0 1
    outer loop
      vertex -2 0 4
      vertex -3.23358 -1.33939 4
      vertex -2.47487 -2.47487 4
    endloop
  endfacet
  facet normal 0 0 1
    outer loop
      vertex 3.23358 1.33939 4
      vertex 1.84776 0.765367 4
      vertex 2 0 4
    endloop
  endfacet
  facet normal 0 0 1
    outer loop
      vertex 2.47487 2.47487 4
      vertex 1.41421 1.41421 4
      vertex 1.84776 0.765367 4
    endloop
  endfacet
  facet normal 0 0 1
    outer loop
      vertex 1.33939 3.23358 4
      vertex 1.41421 1.41421 4
      vertex 2.47487 2.47487 4
    endloop
  endfacet
  facet normal 0 0 1
    outer loop
      vertex 1.33939 3.23358 4
      vertex 0.765367 1.84776 4
      vertex 1.41421 1.41421 4
    endloop
  endfacet
  facet normal 0 0 1
    outer loop
      vertex 0 3.5 4
      vertex 0.765367 1.84776 4
      vertex 1.33939 3.23358 4
    endloop
  endfacet
  facet normal 0 0 1
    outer loop
      vertex 0 3.5 4
      vertex 0 2 4
      vertex 0.765367 1.84776 4
    endloop
  endfacet
  facet normal 0 0 1
    outer loop
      vertex 0 3.5 4
      vertex -0.765367 1.84776 4
      vertex 0 2 4
    endloop
  endfacet
  facet normal -0 0 1
    outer loop
      vertex -1.33939 3.23358 4
      vertex -0.765367 1.84776 4
      vertex 0 3.5 4
    endloop
  endfacet
  facet normal -0 0 1
    outer loop
      vertex -1.5 3.12626 4
      vertex -0.765367 1.84776 4
      vertex -1.33939 3.23358 4
    endloop
  endfacet
  facet normal 0 0 1
    outer loop
      vertex -0.765367 1.84776 4
      vertex -1.5 3.12626 4
      vertex -1.41421 1.41421 4
    endloop
  endfacet
  facet normal 0 0 1
    outer loop
      vertex -1.41421 1.41421 4
      vertex -1.5 3.12626 4
      vertex -1.84776 0.765367 4
    endloop
  endfacet
  facet normal 0 0 1
    outer loop
      vertex 3.23358 47.6606 4
      vertex 1.84776 48.2346 4
      vertex 2.47487 46.5251 4
    endloop
  endfacet
  facet normal -0 0 1
    outer loop
      vertex 1.41421 47.5858 4
      vertex 2.47487 46.5251 4
      vertex 1.84776 48.2346 4
    endloop
  endfacet
  facet normal 0 0 1
    outer loop
      vertex 1.41421 47.5858 4
      vertex 1.33939 45.7664 4
      vertex 2.47487 46.5251 4
    endloop
  endfacet
  facet normal -0 0 1
    outer loop
      vertex 0.765367 47.1522 4
      vertex 1.33939 45.7664 4
      vertex 1.41421 47.5858 4
    endloop
  endfacet
  facet normal -0 0 1
    outer loop
      vertex 0 47 4
      vertex 1.33939 45.7664 4
      vertex 0.765367 47.1522 4
    endloop
  endfacet
  facet normal 0 0 1
    outer loop
      vertex 0 47 4
      vertex 0 45.5 4
      vertex 1.33939 45.7664 4
    endloop
  endfacet
  facet normal 0 0 1
    outer loop
      vertex -0.765367 47.1522 4
      vertex 0 45.5 4
      vertex 0 47 4
    endloop
  endfacet
  facet normal 0 0 1
    outer loop
      vertex -0.765367 47.1522 4
      vertex -1.33939 45.7664 4
      vertex 0 45.5 4
    endloop
  endfacet
  facet normal 0 0 1
    outer loop
      vertex -1.5 45.8737 4
      vertex -0.765367 47.1522 4
      vertex -1.41421 47.5858 4
    endloop
  endfacet
  facet normal 0 0 1
    outer loop
      vertex -0.765367 47.1522 4
      vertex -1.5 45.8737 4
      vertex -1.33939 45.7664 4
    endloop
  endfacet
  facet normal 0 0 1
    outer loop
      vertex -1.84776 48.2346 4
      vertex -1.5 45.8737 4
      vertex -1.41421 47.5858 4
    endloop
  endfacet
  facet normal 0 0 1
    outer loop
      vertex -3.5 49 4
      vertex -1.5 45.8737 4
      vertex -1.84776 48.2346 4
    endloop
  endfacet
  facet normal -0 0 1
    outer loop
      vertex -3.5 49 4
      vertex -1.84776 48.2346 4
      vertex -2 49 4
    endloop
  endfacet
  facet normal 0 0 1
    outer loop
      vertex -1.84776 49.7654 4
      vertex -3.23358 50.3394 4
      vertex -2 49 4
    endloop
  endfacet
  facet normal 0 0 1
    outer loop
      vertex -2 49 4
      vertex -3.23358 50.3394 4
      vertex -3.5 49 4
    endloop
  endfacet
  facet normal 0 0 1
    outer loop
      vertex -1.5 45.8737 4
      vertex -3.5 49 4
      vertex -3.5 32.5 4
    endloop
  endfacet
  facet normal 0 0 1
    outer loop
      vertex -1.5 45.8737 4
      vertex -3.5 32.5 4
      vertex -1.5 32.5 4
    endloop
  endfacet
  facet normal 0 0 1
    outer loop
      vertex 61.5 49 4
      vertex 59.5 45.8737 4
      vertex 61.5 0 4
    endloop
  endfacet
  facet normal -0 0 1
    outer loop
      vertex 59.5 3.12626 4
      vertex 61.5 0 4
      vertex 59.5 45.8737 4
    endloop
  endfacet
  facet normal -0 -0 1
    outer loop
      vertex 59.8478 0.765367 4
      vertex 61.5 0 4
      vertex 59.5 3.12626 4
    endloop
  endfacet
  facet normal -0 0 1
    outer loop
      vertex 59.4142 47.5858 4
      vertex 59.5 45.8737 4
      vertex 59.8478 48.2346 4
    endloop
  endfacet
  facet normal -0 0 1
    outer loop
      vertex 58.7654 47.1522 4
      vertex 59.5 45.8737 4
      vertex 59.4142 47.5858 4
    endloop
  endfacet
  facet normal 0 0 1
    outer loop
      vertex 59.5 45.8737 4
      vertex 58.7654 47.1522 4
      vertex 59.3394 45.7664 4
    endloop
  endfacet
  facet normal -0 0 1
    outer loop
      vertex 58 47 4
      vertex 59.3394 45.7664 4
      vertex 58.7654 47.1522 4
    endloop
  endfacet
  facet normal 0 0 1
    outer loop
      vertex 58 47 4
      vertex 58 45.5 4
      vertex 59.3394 45.7664 4
    endloop
  endfacet
  facet normal 0 0 1
    outer loop
      vertex 57.2346 47.1522 4
      vertex 58 45.5 4
      vertex 58 47 4
    endloop
  endfacet
  facet normal 0 0 1
    outer loop
      vertex 57.2346 47.1522 4
      vertex 56.6606 45.7664 4
      vertex 58 45.5 4
    endloop
  endfacet
  facet normal 0 0 1
    outer loop
      vertex 56.5858 47.5858 4
      vertex 56.6606 45.7664 4
      vertex 57.2346 47.1522 4
    endloop
  endfacet
  facet normal 0 0 1
    outer loop
      vertex 55.5251 46.5251 4
      vertex 56.5858 47.5858 4
      vertex 56.1522 48.2346 4
    endloop
  endfacet
  facet normal 0 0 1
    outer loop
      vertex 56.5858 47.5858 4
      vertex 55.5251 46.5251 4
      vertex 56.6606 45.7664 4
    endloop
  endfacet
  facet normal 0 0 1
    outer loop
      vertex 55.5251 46.5251 4
      vertex 56.1522 48.2346 4
      vertex 56 49 4
    endloop
  endfacet
  facet normal 0 0 1
    outer loop
      vertex 60 49 4
      vertex 61.5 49 4
      vertex 61.2336 50.3394 4
    endloop
  endfacet
  facet normal 0 0 1
    outer loop
      vertex 59.8478 48.2346 4
      vertex 61.5 49 4
      vertex 60 49 4
    endloop
  endfacet
  facet normal 0 0 1
    outer loop
      vertex 59.8478 49.7654 4
      vertex 61.2336 50.3394 4
      vertex 60.4749 51.4749 4
    endloop
  endfacet
  facet normal 0 0 1
    outer loop
      vertex 59.5 45.8737 4
      vertex 61.5 49 4
      vertex 59.8478 48.2346 4
    endloop
  endfacet
  facet normal 0 0 1
    outer loop
      vertex 61.5 0 4
      vertex 60 0 4
      vertex 61.2336 -1.33939 4
    endloop
  endfacet
  facet normal 0 0 1
    outer loop
      vertex 61.2336 50.3394 4
      vertex 59.8478 49.7654 4
      vertex 60 49 4
    endloop
  endfacet
  facet normal 0 0 1
    outer loop
      vertex 60.4749 51.4749 4
      vertex 59.4142 50.4142 4
      vertex 59.8478 49.7654 4
    endloop
  endfacet
  facet normal 0 0 1
    outer loop
      vertex 59.3394 52.2336 4
      vertex 59.4142 50.4142 4
      vertex 60.4749 51.4749 4
    endloop
  endfacet
  facet normal 0 0 1
    outer loop
      vertex 59.3394 52.2336 4
      vertex 58.7654 50.8478 4
      vertex 59.4142 50.4142 4
    endloop
  endfacet
  facet normal 0 0 1
    outer loop
      vertex 58 52.5 4
      vertex 58.7654 50.8478 4
      vertex 59.3394 52.2336 4
    endloop
  endfacet
  facet normal 0 0 1
    outer loop
      vertex 58 52.5 4
      vertex 58 51 4
      vertex 58.7654 50.8478 4
    endloop
  endfacet
  facet normal 0 0 1
    outer loop
      vertex 58 52.5 4
      vertex 57.2346 50.8478 4
      vertex 58 51 4
    endloop
  endfacet
  facet normal 0 0 1
    outer loop
      vertex 54.8737 50.5 4
      vertex 57.2346 50.8478 4
      vertex 58 52.5 4
    endloop
  endfacet
  facet normal 0 0 1
    outer loop
      vertex 56.1522 49.7654 4
      vertex 54.7664 50.3394 4
      vertex 56 49 4
    endloop
  endfacet
  facet normal -0 0 1
    outer loop
      vertex 54.7664 50.3394 4
      vertex 56.1522 49.7654 4
      vertex 54.8737 50.5 4
    endloop
  endfacet
  facet normal 0 0 1
    outer loop
      vertex 56.5858 50.4142 4
      vertex 54.8737 50.5 4
      vertex 56.1522 49.7654 4
    endloop
  endfacet
  facet normal 0 0 1
    outer loop
      vertex 57.2346 50.8478 4
      vertex 54.8737 50.5 4
      vertex 56.5858 50.4142 4
    endloop
  endfacet
  facet normal 0 0 1
    outer loop
      vertex 58 52.5 4
      vertex 3.12626 50.5 4
      vertex 54.8737 50.5 4
    endloop
  endfacet
  facet normal -0 0 1
    outer loop
      vertex 1.84776 48.2346 4
      vertex 3.23358 47.6606 4
      vertex 2 49 4
    endloop
  endfacet
  facet normal 0 0 1
    outer loop
      vertex 3.23358 50.3394 4
      vertex 1.84776 49.7654 4
      vertex 2 49 4
    endloop
  endfacet
  facet normal 0 0 1
    outer loop
      vertex 3.12626 50.5 4
      vertex 1.41421 50.4142 4
      vertex 1.84776 49.7654 4
    endloop
  endfacet
  facet normal 0 0 1
    outer loop
      vertex 3.12626 50.5 4
      vertex 0.765367 50.8478 4
      vertex 1.41421 50.4142 4
    endloop
  endfacet
  facet normal -0 0 1
    outer loop
      vertex 0 52.5 4
      vertex 3.12626 50.5 4
      vertex 58 52.5 4
    endloop
  endfacet
  facet normal 0 0 1
    outer loop
      vertex 3.12626 50.5 4
      vertex 0 52.5 4
      vertex 0.765367 50.8478 4
    endloop
  endfacet
  facet normal 0 0 1
    outer loop
      vertex 0 52.5 4
      vertex 0 51 4
      vertex 0.765367 50.8478 4
    endloop
  endfacet
  facet normal 0 0 1
    outer loop
      vertex 0 52.5 4
      vertex -0.765367 50.8478 4
      vertex 0 51 4
    endloop
  endfacet
  facet normal -0 0 1
    outer loop
      vertex -1.33939 52.2336 4
      vertex -0.765367 50.8478 4
      vertex 0 52.5 4
    endloop
  endfacet
  facet normal 0 0 1
    outer loop
      vertex -1.33939 52.2336 4
      vertex -1.41421 50.4142 4
      vertex -0.765367 50.8478 4
    endloop
  endfacet
  facet normal -0 0 1
    outer loop
      vertex -2.47487 51.4749 4
      vertex -1.41421 50.4142 4
      vertex -1.33939 52.2336 4
    endloop
  endfacet
  facet normal -0 0 1
    outer loop
      vertex -3.23358 50.3394 4
      vertex -1.84776 49.7654 4
      vertex -2.47487 51.4749 4
    endloop
  endfacet
  facet normal 0 0 1
    outer loop
      vertex -1.41421 50.4142 4
      vertex -2.47487 51.4749 4
      vertex -1.84776 49.7654 4
    endloop
  endfacet
  facet normal -0 0 1
    outer loop
      vertex 59.8478 -0.765367 4
      vertex 61.2336 -1.33939 4
      vertex 60 0 4
    endloop
  endfacet
  facet normal 0 0 1
    outer loop
      vertex 61.2336 -1.33939 4
      vertex 59.8478 -0.765367 4
      vertex 60.4749 -2.47487 4
    endloop
  endfacet
  facet normal -0 0 1
    outer loop
      vertex 59.4142 -1.41421 4
      vertex 60.4749 -2.47487 4
      vertex 59.8478 -0.765367 4
    endloop
  endfacet
  facet normal 0 0 1
    outer loop
      vertex 59.4142 -1.41421 4
      vertex 59.3394 -3.23358 4
      vertex 60.4749 -2.47487 4
    endloop
  endfacet
  facet normal -0 0 1
    outer loop
      vertex 58.7654 -1.84776 4
      vertex 59.3394 -3.23358 4
      vertex 59.4142 -1.41421 4
    endloop
  endfacet
  facet normal -0 0 1
    outer loop
      vertex 58 -2 4
      vertex 59.3394 -3.23358 4
      vertex 58.7654 -1.84776 4
    endloop
  endfacet
  facet normal 0 0 1
    outer loop
      vertex 58 -2 4
      vertex 58 -3.5 4
      vertex 59.3394 -3.23358 4
    endloop
  endfacet
  facet normal 0 0 1
    outer loop
      vertex 57.2346 -1.84776 4
      vertex 58 -3.5 4
      vertex 58 -2 4
    endloop
  endfacet
  facet normal -0 0 1
    outer loop
      vertex 54.8737 -1.5 4
      vertex 57.2346 -1.84776 4
      vertex 56.5858 -1.41421 4
    endloop
  endfacet
  facet normal 0 0 1
    outer loop
      vertex 56.1522 0.765367 4
      vertex 54.7664 1.33939 4
      vertex 56 0 4
    endloop
  endfacet
  facet normal 0 0 1
    outer loop
      vertex 54.8737 -1.5 4
      vertex 56.1522 -0.765367 4
      vertex 56 0 4
    endloop
  endfacet
  facet normal 0 0 1
    outer loop
      vertex 54.8737 -1.5 4
      vertex 56.5858 -1.41421 4
      vertex 56.1522 -0.765367 4
    endloop
  endfacet
  facet normal 0 0 1
    outer loop
      vertex 57.2346 -1.84776 4
      vertex 54.8737 -1.5 4
      vertex 58 -3.5 4
    endloop
  endfacet
  facet normal -0 0 1
    outer loop
      vertex 3.12626 -1.5 4
      vertex 58 -3.5 4
      vertex 54.8737 -1.5 4
    endloop
  endfacet
  facet normal -0 0 1
    outer loop
      vertex 1.84776 -0.765367 4
      vertex 3.23358 -1.33939 4
      vertex 2 0 4
    endloop
  endfacet
  facet normal 0 0 1
    outer loop
      vertex 3.23358 -1.33939 4
      vertex 1.84776 -0.765367 4
      vertex 3.12626 -1.5 4
    endloop
  endfacet
  facet normal -0 0 1
    outer loop
      vertex 1.41421 -1.41421 4
      vertex 3.12626 -1.5 4
      vertex 1.84776 -0.765367 4
    endloop
  endfacet
  facet normal 0 0 1
    outer loop
      vertex 0.765367 -1.84776 4
      vertex 3.12626 -1.5 4
      vertex 1.41421 -1.41421 4
    endloop
  endfacet
  facet normal 0 0 1
    outer loop
      vertex 0 -3.5 4
      vertex 3.12626 -1.5 4
      vertex 0.765367 -1.84776 4
    endloop
  endfacet
  facet normal 0 0 1
    outer loop
      vertex 0 -3.5 4
      vertex 0.765367 -1.84776 4
      vertex 0 -2 4
    endloop
  endfacet
  facet normal 0 0 1
    outer loop
      vertex 3.12626 -1.5 4
      vertex 0 -3.5 4
      vertex 58 -3.5 4
    endloop
  endfacet
  facet normal 0 0 1
    outer loop
      vertex -0.765367 -1.84776 4
      vertex 0 -3.5 4
      vertex 0 -2 4
    endloop
  endfacet
  facet normal 0 0 1
    outer loop
      vertex -0.765367 -1.84776 4
      vertex -1.33939 -3.23358 4
      vertex 0 -3.5 4
    endloop
  endfacet
  facet normal 0 0 1
    outer loop
      vertex -1.41421 -1.41421 4
      vertex -1.33939 -3.23358 4
      vertex -0.765367 -1.84776 4
    endloop
  endfacet
  facet normal 0 0 1
    outer loop
      vertex -2.47487 -2.47487 4
      vertex -1.41421 -1.41421 4
      vertex -1.84776 -0.765367 4
    endloop
  endfacet
  facet normal 0 0 1
    outer loop
      vertex -1.41421 -1.41421 4
      vertex -2.47487 -2.47487 4
      vertex -1.33939 -3.23358 4
    endloop
  endfacet
  facet normal 0 0 1
    outer loop
      vertex -2.47487 -2.47487 4
      vertex -1.84776 -0.765367 4
      vertex -2 0 4
    endloop
  endfacet
  facet normal 0 0 1
    outer loop
      vertex 61.5 0 4
      vertex 59.8478 0.765367 4
      vertex 60 0 4
    endloop
  endfacet
  facet normal 0 0 1
    outer loop
      vertex 59.5 3.12626 4
      vertex 59.4142 1.41421 4
      vertex 59.8478 0.765367 4
    endloop
  endfacet
  facet normal 0 0 1
    outer loop
      vertex 58.7654 1.84776 4
      vertex 59.5 3.12626 4
      vertex 59.3394 3.23358 4
    endloop
  endfacet
  facet normal 0 0 1
    outer loop
      vertex 59.5 3.12626 4
      vertex 58.7654 1.84776 4
      vertex 59.4142 1.41421 4
    endloop
  endfacet
  facet normal 0 0 1
    outer loop
      vertex 58 3.5 4
      vertex 58.7654 1.84776 4
      vertex 59.3394 3.23358 4
    endloop
  endfacet
  facet normal 0 0 1
    outer loop
      vertex 58 3.5 4
      vertex 58 2 4
      vertex 58.7654 1.84776 4
    endloop
  endfacet
  facet normal 0 0 1
    outer loop
      vertex 58 3.5 4
      vertex 57.2346 1.84776 4
      vertex 58 2 4
    endloop
  endfacet
  facet normal -0 0 1
    outer loop
      vertex 56.6606 3.23358 4
      vertex 57.2346 1.84776 4
      vertex 58 3.5 4
    endloop
  endfacet
  facet normal 0 0 1
    outer loop
      vertex 56.6606 3.23358 4
      vertex 56.5858 1.41421 4
      vertex 57.2346 1.84776 4
    endloop
  endfacet
  facet normal -0 0 1
    outer loop
      vertex 55.5251 2.47487 4
      vertex 56.5858 1.41421 4
      vertex 56.6606 3.23358 4
    endloop
  endfacet
  facet normal -0 0 1
    outer loop
      vertex 54.7664 1.33939 4
      vertex 56.1522 0.765367 4
      vertex 55.5251 2.47487 4
    endloop
  endfacet
  facet normal 0 0 1
    outer loop
      vertex 56.5858 1.41421 4
      vertex 55.5251 2.47487 4
      vertex 56.1522 0.765367 4
    endloop
  endfacet
  facet normal -0.831469 0.555571 0
    outer loop
      vertex -3.23358 50.3394 0
      vertex -2.47487 51.4749 4
      vertex -2.47487 51.4749 0
    endloop
  endfacet
  facet normal -0.831469 0.555571 0
    outer loop
      vertex -2.47487 51.4749 4
      vertex -3.23358 50.3394 0
      vertex -3.23358 50.3394 4
    endloop
  endfacet
  facet normal 0.831469 -0.555571 0
    outer loop
      vertex 2.47487 46.5251 4
      vertex 3.23358 47.6606 2
      vertex 3.23358 47.6606 4
    endloop
  endfacet
  facet normal 0.831469 -0.555571 0
    outer loop
      vertex 3.23358 47.6606 2
      vertex 2.47487 46.5251 4
      vertex 2.47487 46.5251 2
    endloop
  endfacet
  facet normal 0.55557 -0.831469 0
    outer loop
      vertex 1.33939 45.7664 2
      vertex 2.47487 46.5251 4
      vertex 1.33939 45.7664 4
    endloop
  endfacet
  facet normal 0.55557 -0.831469 0
    outer loop
      vertex 2.47487 46.5251 4
      vertex 1.33939 45.7664 2
      vertex 2.47487 46.5251 2
    endloop
  endfacet
  facet normal 0.980785 -0.195091 0
    outer loop
      vertex 3.23358 47.6606 4
      vertex 3.5 49 2
      vertex 3.5 49 4
    endloop
  endfacet
  facet normal 0.980785 -0.195091 0
    outer loop
      vertex 3.5 49 2
      vertex 3.23358 47.6606 4
      vertex 3.23358 47.6606 2
    endloop
  endfacet
  facet normal 0.980785 0.195091 0
    outer loop
      vertex 61.5 49 4
      vertex 61.2336 50.3394 0
      vertex 61.2336 50.3394 4
    endloop
  endfacet
  facet normal 0.980785 0.195091 0
    outer loop
      vertex 61.2336 50.3394 0
      vertex 61.5 49 4
      vertex 61.5 49 0
    endloop
  endfacet
  facet normal -0.980785 -0.195091 0
    outer loop
      vertex 54.7664 47.6606 2
      vertex 54.5 49 4
      vertex 54.5 49 2
    endloop
  endfacet
  facet normal -0.980785 -0.195091 0
    outer loop
      vertex 54.5 49 4
      vertex 54.7664 47.6606 2
      vertex 54.7664 47.6606 4
    endloop
  endfacet
  facet normal 0.555571 0.831469 -0
    outer loop
      vertex 60.4749 51.4749 0
      vertex 59.3394 52.2336 4
      vertex 60.4749 51.4749 4
    endloop
  endfacet
  facet normal 0.555571 0.831469 0
    outer loop
      vertex 59.3394 52.2336 4
      vertex 60.4749 51.4749 0
      vertex 59.3394 52.2336 0
    endloop
  endfacet
  facet normal 0.831469 0.555571 0
    outer loop
      vertex 61.2336 50.3394 4
      vertex 60.4749 51.4749 0
      vertex 60.4749 51.4749 4
    endloop
  endfacet
  facet normal 0.831469 0.555571 0
    outer loop
      vertex 60.4749 51.4749 0
      vertex 61.2336 50.3394 4
      vertex 61.2336 50.3394 0
    endloop
  endfacet
  facet normal 0.195091 0.980785 -0
    outer loop
      vertex 59.3394 52.2336 0
      vertex 58 52.5 4
      vertex 59.3394 52.2336 4
    endloop
  endfacet
  facet normal 0.195091 0.980785 0
    outer loop
      vertex 58 52.5 4
      vertex 59.3394 52.2336 0
      vertex 58 52.5 0
    endloop
  endfacet
  facet normal -0.831466 0.555575 0
    outer loop
      vertex 54.7664 50.3394 2
      vertex 54.8737 50.5 4
      vertex 54.8737 50.5 2
    endloop
  endfacet
  facet normal -0.831466 0.555575 0
    outer loop
      vertex 54.8737 50.5 4
      vertex 54.7664 50.3394 2
      vertex 54.7664 50.3394 4
    endloop
  endfacet
  facet normal -0.83147 -0.555569 0
    outer loop
      vertex 55.5251 46.5251 2
      vertex 54.7664 47.6606 4
      vertex 54.7664 47.6606 2
    endloop
  endfacet
  facet normal -0.83147 -0.555569 0
    outer loop
      vertex 54.7664 47.6606 4
      vertex 55.5251 46.5251 2
      vertex 55.5251 46.5251 4
    endloop
  endfacet
  facet normal 0.195091 -0.980785 0
    outer loop
      vertex 58 45.5 2
      vertex 59.3394 45.7664 4
      vertex 58 45.5 4
    endloop
  endfacet
  facet normal 0.195091 -0.980785 0
    outer loop
      vertex 59.3394 45.7664 4
      vertex 58 45.5 2
      vertex 59.3394 45.7664 2
    endloop
  endfacet
  facet normal -0.55557 -0.83147 0
    outer loop
      vertex 55.5251 46.5251 2
      vertex 56.6606 45.7664 4
      vertex 55.5251 46.5251 4
    endloop
  endfacet
  facet normal -0.55557 -0.83147 -0
    outer loop
      vertex 56.6606 45.7664 4
      vertex 55.5251 46.5251 2
      vertex 56.6606 45.7664 2
    endloop
  endfacet
  facet normal -0.980785 0.195091 0
    outer loop
      vertex 54.5 49 2
      vertex 54.7664 50.3394 4
      vertex 54.7664 50.3394 2
    endloop
  endfacet
  facet normal -0.980785 0.195091 0
    outer loop
      vertex 54.7664 50.3394 4
      vertex 54.5 49 2
      vertex 54.5 49 4
    endloop
  endfacet
  facet normal -0.195091 -0.980785 0
    outer loop
      vertex 56.6606 45.7664 2
      vertex 58 45.5 4
      vertex 56.6606 45.7664 4
    endloop
  endfacet
  facet normal -0.195091 -0.980785 -0
    outer loop
      vertex 58 45.5 4
      vertex 56.6606 45.7664 2
      vertex 58 45.5 2
    endloop
  endfacet
  facet normal 0.555575 -0.831466 0
    outer loop
      vertex 59.3394 45.7664 2
      vertex 59.5 45.8737 4
      vertex 59.3394 45.7664 4
    endloop
  endfacet
  facet normal 0.555575 -0.831466 0
    outer loop
      vertex 59.5 45.8737 4
      vertex 59.3394 45.7664 2
      vertex 59.5 45.8737 2
    endloop
  endfacet
  facet normal 0.980785 0.195091 0
    outer loop
      vertex 3.5 0 4
      vertex 3.23358 1.33939 2
      vertex 3.23358 1.33939 4
    endloop
  endfacet
  facet normal 0.980785 0.195091 0
    outer loop
      vertex 3.23358 1.33939 2
      vertex 3.5 0 4
      vertex 3.5 0 2
    endloop
  endfacet
  facet normal 0.195091 0.980785 -0
    outer loop
      vertex 1.33939 3.23358 2
      vertex 0 3.5 4
      vertex 1.33939 3.23358 4
    endloop
  endfacet
  facet normal 0.195091 0.980785 0
    outer loop
      vertex 0 3.5 4
      vertex 1.33939 3.23358 2
      vertex 0 3.5 2
    endloop
  endfacet
  facet normal 0.83147 0.55557 0
    outer loop
      vertex 3.23358 1.33939 4
      vertex 2.47487 2.47487 2
      vertex 2.47487 2.47487 4
    endloop
  endfacet
  facet normal 0.83147 0.55557 0
    outer loop
      vertex 2.47487 2.47487 2
      vertex 3.23358 1.33939 4
      vertex 3.23358 1.33939 2
    endloop
  endfacet
  facet normal -0.195091 -0.980785 0
    outer loop
      vertex -1.33939 -3.23358 0
      vertex 0 -3.5 4
      vertex -1.33939 -3.23358 4
    endloop
  endfacet
  facet normal -0.195091 -0.980785 -0
    outer loop
      vertex 0 -3.5 4
      vertex -1.33939 -3.23358 0
      vertex 0 -3.5 0
    endloop
  endfacet
  facet normal -0.195091 0.980785 0
    outer loop
      vertex 0 3.5 2
      vertex -1.33939 3.23358 4
      vertex 0 3.5 4
    endloop
  endfacet
  facet normal -0.195091 0.980785 0
    outer loop
      vertex -1.33939 3.23358 4
      vertex 0 3.5 2
      vertex -1.33939 3.23358 2
    endloop
  endfacet
  facet normal -0.55557 0.83147 0
    outer loop
      vertex -1.33939 3.23358 2
      vertex -1.5 3.12626 4
      vertex -1.33939 3.23358 4
    endloop
  endfacet
  facet normal -0.55557 0.83147 0
    outer loop
      vertex -1.5 3.12626 4
      vertex -1.33939 3.23358 2
      vertex -1.5 3.12626 2
    endloop
  endfacet
  facet normal -0.980785 -0.195091 0
    outer loop
      vertex -3.23358 -1.33939 0
      vertex -3.5 0 4
      vertex -3.5 0 0
    endloop
  endfacet
  facet normal -0.980785 -0.195091 0
    outer loop
      vertex -3.5 0 4
      vertex -3.23358 -1.33939 0
      vertex -3.23358 -1.33939 4
    endloop
  endfacet
  facet normal -0.55557 -0.83147 0
    outer loop
      vertex -2.47487 -2.47487 0
      vertex -1.33939 -3.23358 4
      vertex -2.47487 -2.47487 4
    endloop
  endfacet
  facet normal -0.55557 -0.83147 -0
    outer loop
      vertex -1.33939 -3.23358 4
      vertex -2.47487 -2.47487 0
      vertex -1.33939 -3.23358 0
    endloop
  endfacet
  facet normal -0.83147 -0.55557 0
    outer loop
      vertex -2.47487 -2.47487 0
      vertex -3.23358 -1.33939 4
      vertex -3.23358 -1.33939 0
    endloop
  endfacet
  facet normal -0.83147 -0.55557 0
    outer loop
      vertex -3.23358 -1.33939 4
      vertex -2.47487 -2.47487 0
      vertex -2.47487 -2.47487 4
    endloop
  endfacet
  facet normal 0.55557 0.83147 -0
    outer loop
      vertex 2.47487 2.47487 2
      vertex 1.33939 3.23358 4
      vertex 2.47487 2.47487 4
    endloop
  endfacet
  facet normal 0.55557 0.83147 0
    outer loop
      vertex 1.33939 3.23358 4
      vertex 2.47487 2.47487 2
      vertex 1.33939 3.23358 2
    endloop
  endfacet
  facet normal 0.83147 -0.55557 0
    outer loop
      vertex 3.12626 -1.5 4
      vertex 3.23358 -1.33939 2
      vertex 3.23358 -1.33939 4
    endloop
  endfacet
  facet normal 0.83147 -0.55557 0
    outer loop
      vertex 3.23358 -1.33939 2
      vertex 3.12626 -1.5 4
      vertex 3.12626 -1.5 2
    endloop
  endfacet
  facet normal 0.980785 -0.195091 0
    outer loop
      vertex 3.23358 -1.33939 4
      vertex 3.5 0 2
      vertex 3.5 0 4
    endloop
  endfacet
  facet normal 0.980785 -0.195091 0
    outer loop
      vertex 3.5 0 2
      vertex 3.23358 -1.33939 4
      vertex 3.23358 -1.33939 2
    endloop
  endfacet
  facet normal -0.195091 0.980785 0
    outer loop
      vertex 58 3.5 2
      vertex 56.6606 3.23358 4
      vertex 58 3.5 4
    endloop
  endfacet
  facet normal -0.195091 0.980785 0
    outer loop
      vertex 56.6606 3.23358 4
      vertex 58 3.5 2
      vertex 56.6606 3.23358 2
    endloop
  endfacet
  facet normal -0.980785 -0.195091 0
    outer loop
      vertex 54.7664 -1.33939 2
      vertex 54.5 0 4
      vertex 54.5 0 2
    endloop
  endfacet
  facet normal -0.980785 -0.195091 0
    outer loop
      vertex 54.5 0 4
      vertex 54.7664 -1.33939 2
      vertex 54.7664 -1.33939 4
    endloop
  endfacet
  facet normal 0.555575 0.831466 -0
    outer loop
      vertex 59.5 3.12626 2
      vertex 59.3394 3.23358 4
      vertex 59.5 3.12626 4
    endloop
  endfacet
  facet normal 0.555575 0.831466 0
    outer loop
      vertex 59.3394 3.23358 4
      vertex 59.5 3.12626 2
      vertex 59.3394 3.23358 2
    endloop
  endfacet
  facet normal -0.55557 0.83147 0
    outer loop
      vertex 56.6606 3.23358 2
      vertex 55.5251 2.47487 4
      vertex 56.6606 3.23358 4
    endloop
  endfacet
  facet normal -0.55557 0.83147 0
    outer loop
      vertex 55.5251 2.47487 4
      vertex 56.6606 3.23358 2
      vertex 55.5251 2.47487 2
    endloop
  endfacet
  facet normal -0.831471 0.555569 0
    outer loop
      vertex 54.7664 1.33939 2
      vertex 55.5251 2.47487 4
      vertex 55.5251 2.47487 2
    endloop
  endfacet
  facet normal -0.831471 0.555569 0
    outer loop
      vertex 55.5251 2.47487 4
      vertex 54.7664 1.33939 2
      vertex 54.7664 1.33939 4
    endloop
  endfacet
  facet normal 0.980785 -0.195091 0
    outer loop
      vertex 61.2336 -1.33939 4
      vertex 61.5 0 0
      vertex 61.5 0 4
    endloop
  endfacet
  facet normal 0.980785 -0.195091 0
    outer loop
      vertex 61.5 0 0
      vertex 61.2336 -1.33939 4
      vertex 61.2336 -1.33939 0
    endloop
  endfacet
  facet normal -0.83147 -0.55557 0
    outer loop
      vertex 54.8737 -1.5 2
      vertex 54.7664 -1.33939 4
      vertex 54.7664 -1.33939 2
    endloop
  endfacet
  facet normal -0.83147 -0.55557 0
    outer loop
      vertex 54.7664 -1.33939 4
      vertex 54.8737 -1.5 2
      vertex 54.8737 -1.5 4
    endloop
  endfacet
  facet normal 0.195091 -0.980785 0
    outer loop
      vertex 58 -3.5 0
      vertex 59.3394 -3.23358 4
      vertex 58 -3.5 4
    endloop
  endfacet
  facet normal 0.195091 -0.980785 0
    outer loop
      vertex 59.3394 -3.23358 4
      vertex 58 -3.5 0
      vertex 59.3394 -3.23358 0
    endloop
  endfacet
  facet normal 0.195091 0.980785 -0
    outer loop
      vertex 59.3394 3.23358 2
      vertex 58 3.5 4
      vertex 59.3394 3.23358 4
    endloop
  endfacet
  facet normal 0.195091 0.980785 0
    outer loop
      vertex 58 3.5 4
      vertex 59.3394 3.23358 2
      vertex 58 3.5 2
    endloop
  endfacet
  facet normal -0.980785 0.195091 0
    outer loop
      vertex 54.5 0 2
      vertex 54.7664 1.33939 4
      vertex 54.7664 1.33939 2
    endloop
  endfacet
  facet normal -0.980785 0.195091 0
    outer loop
      vertex 54.7664 1.33939 4
      vertex 54.5 0 2
      vertex 54.5 0 4
    endloop
  endfacet
  facet normal 0.555571 -0.831469 0
    outer loop
      vertex 59.3394 -3.23358 0
      vertex 60.4749 -2.47487 4
      vertex 59.3394 -3.23358 4
    endloop
  endfacet
  facet normal 0.555571 -0.831469 0
    outer loop
      vertex 60.4749 -2.47487 4
      vertex 59.3394 -3.23358 0
      vertex 60.4749 -2.47487 0
    endloop
  endfacet
  facet normal 0.831469 -0.55557 0
    outer loop
      vertex 60.4749 -2.47487 4
      vertex 61.2336 -1.33939 0
      vertex 61.2336 -1.33939 4
    endloop
  endfacet
  facet normal 0.831469 -0.55557 0
    outer loop
      vertex 61.2336 -1.33939 0
      vertex 60.4749 -2.47487 4
      vertex 60.4749 -2.47487 0
    endloop
  endfacet
  facet normal 1 -0 0
    outer loop
      vertex -1.5 32.5 4
      vertex -1.5 45.8737 2
      vertex -1.5 45.8737 4
    endloop
  endfacet
  facet normal 1 0 0
    outer loop
      vertex -1.5 45.8737 2
      vertex -1.5 32.5 4
      vertex -1.5 32.5 2
    endloop
  endfacet
  facet normal 1 -0 0
    outer loop
      vertex -1.5 3.12626 4
      vertex -1.5 17.5 2
      vertex -1.5 17.5 4
    endloop
  endfacet
  facet normal 1 0 0
    outer loop
      vertex -1.5 17.5 2
      vertex -1.5 3.12626 4
      vertex -1.5 3.12626 2
    endloop
  endfacet
  facet normal 0 0 1
    outer loop
      vertex 12.5 17.5 2
      vertex 3.23358 1.33939 2
      vertex 3.5 0 2
    endloop
  endfacet
  facet normal 0 0 1
    outer loop
      vertex 12.5 17.5 2
      vertex 2.47487 2.47487 2
      vertex 3.23358 1.33939 2
    endloop
  endfacet
  facet normal 0 0 1
    outer loop
      vertex 12.5 17.5 2
      vertex 1.33939 3.23358 2
      vertex 2.47487 2.47487 2
    endloop
  endfacet
  facet normal -0 0 1
    outer loop
      vertex -1.5 17.5 2
      vertex 1.33939 3.23358 2
      vertex 12.5 17.5 2
    endloop
  endfacet
  facet normal 0 0 1
    outer loop
      vertex 1.33939 3.23358 2
      vertex -1.5 17.5 2
      vertex 0 3.5 2
    endloop
  endfacet
  facet normal 0 0 1
    outer loop
      vertex 0 3.5 2
      vertex -1.5 17.5 2
      vertex -1.33939 3.23358 2
    endloop
  endfacet
  facet normal 0 0 1
    outer loop
      vertex -1.33939 3.23358 2
      vertex -1.5 17.5 2
      vertex -1.5 3.12626 2
    endloop
  endfacet
  facet normal 0 0 1
    outer loop
      vertex 55.5251 2.47487 2
      vertex 12.5 17.5 2
      vertex 54.7664 1.33939 2
    endloop
  endfacet
  facet normal 0 0 1
    outer loop
      vertex 3.5 49 2
      vertex 54.5 49 2
      vertex 54.7664 50.3394 2
    endloop
  endfacet
  facet normal 0 0 1
    outer loop
      vertex 3.23358 50.3394 2
      vertex 54.7664 50.3394 2
      vertex 54.8737 50.5 2
    endloop
  endfacet
  facet normal 0 0 1
    outer loop
      vertex 54.5 49 2
      vertex 3.5 49 2
      vertex 12.5 32.5 2
    endloop
  endfacet
  facet normal 0 0 1
    outer loop
      vertex 54.7664 50.3394 2
      vertex 3.23358 50.3394 2
      vertex 3.5 49 2
    endloop
  endfacet
  facet normal 0 -0 1
    outer loop
      vertex 3.23358 50.3394 2
      vertex 54.8737 50.5 2
      vertex 3.12626 50.5 2
    endloop
  endfacet
  facet normal -0 0 1
    outer loop
      vertex 59.3394 45.7664 2
      vertex 59.5 3.12626 2
      vertex 59.5 45.8737 2
    endloop
  endfacet
  facet normal 0 0 1
    outer loop
      vertex 59.3394 45.7664 2
      vertex 59.3394 3.23358 2
      vertex 59.5 3.12626 2
    endloop
  endfacet
  facet normal -0 0 1
    outer loop
      vertex 58 45.5 2
      vertex 59.3394 3.23358 2
      vertex 59.3394 45.7664 2
    endloop
  endfacet
  facet normal 0 0 1
    outer loop
      vertex 58 45.5 2
      vertex 58 3.5 2
      vertex 59.3394 3.23358 2
    endloop
  endfacet
  facet normal 0 0 1
    outer loop
      vertex 56.6606 45.7664 2
      vertex 58 3.5 2
      vertex 58 45.5 2
    endloop
  endfacet
  facet normal 0 0 1
    outer loop
      vertex 56.6606 45.7664 2
      vertex 56.6606 3.23358 2
      vertex 58 3.5 2
    endloop
  endfacet
  facet normal 0 0 1
    outer loop
      vertex 55.5251 46.5251 2
      vertex 56.6606 3.23358 2
      vertex 56.6606 45.7664 2
    endloop
  endfacet
  facet normal 0 0 1
    outer loop
      vertex 55.5251 46.5251 2
      vertex 55.5251 2.47487 2
      vertex 56.6606 3.23358 2
    endloop
  endfacet
  facet normal 0 0 1
    outer loop
      vertex 12.5 32.5 2
      vertex 55.5251 46.5251 2
      vertex 54.7664 47.6606 2
    endloop
  endfacet
  facet normal 0 0 1
    outer loop
      vertex 12.5 17.5 2
      vertex 55.5251 46.5251 2
      vertex 12.5 32.5 2
    endloop
  endfacet
  facet normal 0 0 1
    outer loop
      vertex 12.5 32.5 2
      vertex 54.7664 47.6606 2
      vertex 54.5 49 2
    endloop
  endfacet
  facet normal 0 0 1
    outer loop
      vertex 55.5251 46.5251 2
      vertex 12.5 17.5 2
      vertex 55.5251 2.47487 2
    endloop
  endfacet
  facet normal 0 0 1
    outer loop
      vertex 54.7664 1.33939 2
      vertex 12.5 17.5 2
      vertex 54.5 0 2
    endloop
  endfacet
  facet normal 0 0 1
    outer loop
      vertex 3.5 0 2
      vertex 54.5 0 2
      vertex 12.5 17.5 2
    endloop
  endfacet
  facet normal 0 0 1
    outer loop
      vertex 54.5 0 2
      vertex 3.5 0 2
      vertex 54.7664 -1.33939 2
    endloop
  endfacet
  facet normal 0 0 1
    outer loop
      vertex 3.23358 -1.33939 2
      vertex 54.7664 -1.33939 2
      vertex 3.5 0 2
    endloop
  endfacet
  facet normal 0 0 1
    outer loop
      vertex 54.7664 -1.33939 2
      vertex 3.23358 -1.33939 2
      vertex 54.8737 -1.5 2
    endloop
  endfacet
  facet normal 0 0 1
    outer loop
      vertex 54.8737 -1.5 2
      vertex 3.23358 -1.33939 2
      vertex 3.12626 -1.5 2
    endloop
  endfacet
  facet normal -0 0 1
    outer loop
      vertex 3.23358 47.6606 2
      vertex 12.5 32.5 2
      vertex 3.5 49 2
    endloop
  endfacet
  facet normal -0 0 1
    outer loop
      vertex 2.47487 46.5251 2
      vertex 12.5 32.5 2
      vertex 3.23358 47.6606 2
    endloop
  endfacet
  facet normal -0 0 1
    outer loop
      vertex 1.33939 45.7664 2
      vertex 12.5 32.5 2
      vertex 2.47487 46.5251 2
    endloop
  endfacet
  facet normal 0 0 1
    outer loop
      vertex -1.5 32.5 2
      vertex 1.33939 45.7664 2
      vertex 0 45.5 2
    endloop
  endfacet
  facet normal 0 0 1
    outer loop
      vertex -1.5 32.5 2
      vertex 0 45.5 2
      vertex -1.33939 45.7664 2
    endloop
  endfacet
  facet normal 0 0 1
    outer loop
      vertex -1.5 32.5 2
      vertex -1.33939 45.7664 2
      vertex -1.5 45.8737 2
    endloop
  endfacet
  facet normal 0 0 1
    outer loop
      vertex 1.33939 45.7664 2
      vertex -1.5 32.5 2
      vertex 12.5 32.5 2
    endloop
  endfacet
  facet normal -0 0 1
    outer loop
      vertex -1.5 32.5 2
      vertex 12.5 17.5 2
      vertex 12.5 32.5 2
    endloop
  endfacet
  facet normal 0 0 1
    outer loop
      vertex -1.5 32.5 2
      vertex -1.5 17.5 2
      vertex 12.5 17.5 2
    endloop
  endfacet
  facet normal -0 0 1
    outer loop
      vertex -3.5 32.5 2
      vertex -1.5 17.5 2
      vertex -1.5 32.5 2
    endloop
  endfacet
  facet normal 0 0 1
    outer loop
      vertex -1.5 17.5 2
      vertex -3.5 32.5 2
      vertex -3.5 17.5 2
    endloop
  endfacet
  facet normal -1 0 0
    outer loop
      vertex 59.5 3.12626 2
      vertex 59.5 45.8737 4
      vertex 59.5 45.8737 2
    endloop
  endfacet
  facet normal -1 -0 0
    outer loop
      vertex 59.5 45.8737 4
      vertex 59.5 3.12626 2
      vertex 59.5 3.12626 4
    endloop
  endfacet
  facet normal 0 -1 0
    outer loop
      vertex 3.12626 50.5 2
      vertex 54.8737 50.5 4
      vertex 3.12626 50.5 4
    endloop
  endfacet
  facet normal 0 -1 -0
    outer loop
      vertex 54.8737 50.5 4
      vertex 3.12626 50.5 2
      vertex 54.8737 50.5 2
    endloop
  endfacet
  facet normal 0 1 -0
    outer loop
      vertex 54.8737 -1.5 2
      vertex 3.12626 -1.5 4
      vertex 54.8737 -1.5 4
    endloop
  endfacet
  facet normal 0 1 0
    outer loop
      vertex 3.12626 -1.5 4
      vertex 54.8737 -1.5 2
      vertex 3.12626 -1.5 2
    endloop
  endfacet
  facet normal -1 0 0
    outer loop
      vertex -3.5 49 0
      vertex -3.5 32.5 2
      vertex -3.5 49 4
    endloop
  endfacet
  facet normal -1 0 0
    outer loop
      vertex -3.5 49 0
      vertex -3.5 17.5 2
      vertex -3.5 32.5 2
    endloop
  endfacet
  facet normal -1 0 0
    outer loop
      vertex -3.5 0 0
      vertex -3.5 17.5 2
      vertex -3.5 49 0
    endloop
  endfacet
  facet normal -1 0 0
    outer loop
      vertex -3.5 0 4
      vertex -3.5 17.5 2
      vertex -3.5 0 0
    endloop
  endfacet
  facet normal -1 0 0
    outer loop
      vertex -3.5 17.5 2
      vertex -3.5 0 4
      vertex -3.5 17.5 4
    endloop
  endfacet
  facet normal -1 -0 0
    outer loop
      vertex -3.5 49 4
      vertex -3.5 32.5 2
      vertex -3.5 32.5 4
    endloop
  endfacet
  facet normal 1 -0 0
    outer loop
      vertex 61.5 0 4
      vertex 61.5 49 0
      vertex 61.5 49 4
    endloop
  endfacet
  facet normal 1 0 0
    outer loop
      vertex 61.5 49 0
      vertex 61.5 0 4
      vertex 61.5 0 0
    endloop
  endfacet
  facet normal 0 -1 0
    outer loop
      vertex 0 -3.5 0
      vertex 58 -3.5 4
      vertex 0 -3.5 4
    endloop
  endfacet
  facet normal 0 -1 -0
    outer loop
      vertex 58 -3.5 4
      vertex 0 -3.5 0
      vertex 58 -3.5 0
    endloop
  endfacet
  facet normal 0 1 -0
    outer loop
      vertex 58 52.5 0
      vertex 0 52.5 4
      vertex 58 52.5 4
    endloop
  endfacet
  facet normal 0 1 0
    outer loop
      vertex 0 52.5 4
      vertex 58 52.5 0
      vertex 0 52.5 0
    endloop
  endfacet
  facet normal -0.980785 -0.195091 0
    outer loop
      vertex 2 0 0
      vertex 1.84776 0.765367 4
      vertex 1.84776 0.765367 0
    endloop
  endfacet
  facet normal -0.980785 -0.195091 0
    outer loop
      vertex 1.84776 0.765367 4
      vertex 2 0 0
      vertex 2 0 4
    endloop
  endfacet
  facet normal 0.980785 -0.195091 0
    outer loop
      vertex -2 0 4
      vertex -1.84776 0.765367 0
      vertex -1.84776 0.765367 4
    endloop
  endfacet
  facet normal 0.980785 -0.195091 0
    outer loop
      vertex -1.84776 0.765367 0
      vertex -2 0 4
      vertex -2 0 0
    endloop
  endfacet
  facet normal -0.195091 -0.980785 0
    outer loop
      vertex 0 2 0
      vertex 0.765367 1.84776 4
      vertex 0 2 4
    endloop
  endfacet
  facet normal -0.195091 -0.980785 -0
    outer loop
      vertex 0.765367 1.84776 4
      vertex 0 2 0
      vertex 0.765367 1.84776 0
    endloop
  endfacet
  facet normal -0.83147 -0.55557 0
    outer loop
      vertex 1.84776 0.765367 0
      vertex 1.41421 1.41421 4
      vertex 1.41421 1.41421 0
    endloop
  endfacet
  facet normal -0.83147 -0.55557 0
    outer loop
      vertex 1.41421 1.41421 4
      vertex 1.84776 0.765367 0
      vertex 1.84776 0.765367 4
    endloop
  endfacet
  facet normal -0.195091 0.980785 0
    outer loop
      vertex 0.765367 -1.84776 0
      vertex 0 -2 4
      vertex 0.765367 -1.84776 4
    endloop
  endfacet
  facet normal -0.195091 0.980785 0
    outer loop
      vertex 0 -2 4
      vertex 0.765367 -1.84776 0
      vertex 0 -2 0
    endloop
  endfacet
  facet normal 0.195091 0.980785 -0
    outer loop
      vertex 0 -2 0
      vertex -0.765367 -1.84776 4
      vertex 0 -2 4
    endloop
  endfacet
  facet normal 0.195091 0.980785 0
    outer loop
      vertex -0.765367 -1.84776 4
      vertex 0 -2 0
      vertex -0.765367 -1.84776 0
    endloop
  endfacet
  facet normal -0.55557 -0.83147 0
    outer loop
      vertex 0.765367 1.84776 0
      vertex 1.41421 1.41421 4
      vertex 0.765367 1.84776 4
    endloop
  endfacet
  facet normal -0.55557 -0.83147 -0
    outer loop
      vertex 1.41421 1.41421 4
      vertex 0.765367 1.84776 0
      vertex 1.41421 1.41421 0
    endloop
  endfacet
  facet normal 0.195091 -0.980785 0
    outer loop
      vertex -0.765367 1.84776 0
      vertex 0 2 4
      vertex -0.765367 1.84776 4
    endloop
  endfacet
  facet normal 0.195091 -0.980785 0
    outer loop
      vertex 0 2 4
      vertex -0.765367 1.84776 0
      vertex 0 2 0
    endloop
  endfacet
  facet normal 0.83147 -0.55557 0
    outer loop
      vertex -1.84776 0.765367 4
      vertex -1.41421 1.41421 0
      vertex -1.41421 1.41421 4
    endloop
  endfacet
  facet normal 0.83147 -0.55557 0
    outer loop
      vertex -1.41421 1.41421 0
      vertex -1.84776 0.765367 4
      vertex -1.84776 0.765367 0
    endloop
  endfacet
  facet normal 0.55557 -0.83147 0
    outer loop
      vertex -1.41421 1.41421 0
      vertex -0.765367 1.84776 4
      vertex -1.41421 1.41421 4
    endloop
  endfacet
  facet normal 0.55557 -0.83147 0
    outer loop
      vertex -0.765367 1.84776 4
      vertex -1.41421 1.41421 0
      vertex -0.765367 1.84776 0
    endloop
  endfacet
  facet normal 0.980785 0.195091 0
    outer loop
      vertex -1.84776 -0.765367 4
      vertex -2 0 0
      vertex -2 0 4
    endloop
  endfacet
  facet normal 0.980785 0.195091 0
    outer loop
      vertex -2 0 0
      vertex -1.84776 -0.765367 4
      vertex -1.84776 -0.765367 0
    endloop
  endfacet
  facet normal 0.55557 0.83147 -0
    outer loop
      vertex -0.765367 -1.84776 0
      vertex -1.41421 -1.41421 4
      vertex -0.765367 -1.84776 4
    endloop
  endfacet
  facet normal 0.55557 0.83147 0
    outer loop
      vertex -1.41421 -1.41421 4
      vertex -0.765367 -1.84776 0
      vertex -1.41421 -1.41421 0
    endloop
  endfacet
  facet normal 0.83147 0.55557 0
    outer loop
      vertex -1.41421 -1.41421 4
      vertex -1.84776 -0.765367 0
      vertex -1.84776 -0.765367 4
    endloop
  endfacet
  facet normal 0.83147 0.55557 0
    outer loop
      vertex -1.84776 -0.765367 0
      vertex -1.41421 -1.41421 4
      vertex -1.41421 -1.41421 0
    endloop
  endfacet
  facet normal -0.83147 0.55557 0
    outer loop
      vertex 1.41421 -1.41421 0
      vertex 1.84776 -0.765367 4
      vertex 1.84776 -0.765367 0
    endloop
  endfacet
  facet normal -0.83147 0.55557 0
    outer loop
      vertex 1.84776 -0.765367 4
      vertex 1.41421 -1.41421 0
      vertex 1.41421 -1.41421 4
    endloop
  endfacet
  facet normal -0.55557 0.83147 0
    outer loop
      vertex 1.41421 -1.41421 0
      vertex 0.765367 -1.84776 4
      vertex 1.41421 -1.41421 4
    endloop
  endfacet
  facet normal -0.55557 0.83147 0
    outer loop
      vertex 0.765367 -1.84776 4
      vertex 1.41421 -1.41421 0
      vertex 0.765367 -1.84776 0
    endloop
  endfacet
  facet normal -0.980785 0.195091 0
    outer loop
      vertex 1.84776 -0.765367 0
      vertex 2 0 4
      vertex 2 0 0
    endloop
  endfacet
  facet normal -0.980785 0.195091 0
    outer loop
      vertex 2 0 4
      vertex 1.84776 -0.765367 0
      vertex 1.84776 -0.765367 4
    endloop
  endfacet
  facet normal -0.980785 -0.195092 0
    outer loop
      vertex 2 49 0
      vertex 1.84776 49.7654 4
      vertex 1.84776 49.7654 0
    endloop
  endfacet
  facet normal -0.980785 -0.195092 0
    outer loop
      vertex 1.84776 49.7654 4
      vertex 2 49 0
      vertex 2 49 4
    endloop
  endfacet
  facet normal -0.19509 -0.980785 0
    outer loop
      vertex 0 51 0
      vertex 0.765367 50.8478 4
      vertex 0 51 4
    endloop
  endfacet
  facet normal -0.19509 -0.980785 -0
    outer loop
      vertex 0.765367 50.8478 4
      vertex 0 51 0
      vertex 0.765367 50.8478 0
    endloop
  endfacet
  facet normal 0.980785 0.195092 0
    outer loop
      vertex -1.84776 48.2346 4
      vertex -2 49 0
      vertex -2 49 4
    endloop
  endfacet
  facet normal 0.980785 0.195092 0
    outer loop
      vertex -2 49 0
      vertex -1.84776 48.2346 4
      vertex -1.84776 48.2346 0
    endloop
  endfacet
  facet normal -0.555569 0.83147 0
    outer loop
      vertex 1.41421 47.5858 0
      vertex 0.765367 47.1522 4
      vertex 1.41421 47.5858 4
    endloop
  endfacet
  facet normal -0.555569 0.83147 0
    outer loop
      vertex 0.765367 47.1522 4
      vertex 1.41421 47.5858 0
      vertex 0.765367 47.1522 0
    endloop
  endfacet
  facet normal -0.19509 0.980785 0
    outer loop
      vertex 0.765367 47.1522 0
      vertex 0 47 4
      vertex 0.765367 47.1522 4
    endloop
  endfacet
  facet normal -0.19509 0.980785 0
    outer loop
      vertex 0 47 4
      vertex 0.765367 47.1522 0
      vertex 0 47 0
    endloop
  endfacet
  facet normal -0.555569 -0.83147 0
    outer loop
      vertex 0.765367 50.8478 0
      vertex 1.41421 50.4142 4
      vertex 0.765367 50.8478 4
    endloop
  endfacet
  facet normal -0.555569 -0.83147 -0
    outer loop
      vertex 1.41421 50.4142 4
      vertex 0.765367 50.8478 0
      vertex 1.41421 50.4142 0
    endloop
  endfacet
  facet normal -0.831471 -0.555568 0
    outer loop
      vertex 1.84776 49.7654 0
      vertex 1.41421 50.4142 4
      vertex 1.41421 50.4142 0
    endloop
  endfacet
  facet normal -0.831471 -0.555568 0
    outer loop
      vertex 1.41421 50.4142 4
      vertex 1.84776 49.7654 0
      vertex 1.84776 49.7654 4
    endloop
  endfacet
  facet normal 0.19509 -0.980785 0
    outer loop
      vertex -0.765367 50.8478 0
      vertex 0 51 4
      vertex -0.765367 50.8478 4
    endloop
  endfacet
  facet normal 0.19509 -0.980785 0
    outer loop
      vertex 0 51 4
      vertex -0.765367 50.8478 0
      vertex 0 51 0
    endloop
  endfacet
  facet normal 0.555569 -0.83147 0
    outer loop
      vertex -1.41421 50.4142 0
      vertex -0.765367 50.8478 4
      vertex -1.41421 50.4142 4
    endloop
  endfacet
  facet normal 0.555569 -0.83147 0
    outer loop
      vertex -0.765367 50.8478 4
      vertex -1.41421 50.4142 0
      vertex -0.765367 50.8478 0
    endloop
  endfacet
  facet normal 0.980785 -0.195092 0
    outer loop
      vertex -2 49 4
      vertex -1.84776 49.7654 0
      vertex -1.84776 49.7654 4
    endloop
  endfacet
  facet normal 0.980785 -0.195092 0
    outer loop
      vertex -1.84776 49.7654 0
      vertex -2 49 4
      vertex -2 49 0
    endloop
  endfacet
  facet normal 0.831471 -0.555568 0
    outer loop
      vertex -1.84776 49.7654 4
      vertex -1.41421 50.4142 0
      vertex -1.41421 50.4142 4
    endloop
  endfacet
  facet normal 0.831471 -0.555568 0
    outer loop
      vertex -1.41421 50.4142 0
      vertex -1.84776 49.7654 4
      vertex -1.84776 49.7654 0
    endloop
  endfacet
  facet normal 0.831471 0.555568 0
    outer loop
      vertex -1.41421 47.5858 4
      vertex -1.84776 48.2346 0
      vertex -1.84776 48.2346 4
    endloop
  endfacet
  facet normal 0.831471 0.555568 0
    outer loop
      vertex -1.84776 48.2346 0
      vertex -1.41421 47.5858 4
      vertex -1.41421 47.5858 0
    endloop
  endfacet
  facet normal 0.19509 0.980785 -0
    outer loop
      vertex 0 47 0
      vertex -0.765367 47.1522 4
      vertex 0 47 4
    endloop
  endfacet
  facet normal 0.19509 0.980785 0
    outer loop
      vertex -0.765367 47.1522 4
      vertex 0 47 0
      vertex -0.765367 47.1522 0
    endloop
  endfacet
  facet normal 0.555569 0.83147 -0
    outer loop
      vertex -0.765367 47.1522 0
      vertex -1.41421 47.5858 4
      vertex -0.765367 47.1522 4
    endloop
  endfacet
  facet normal 0.555569 0.83147 0
    outer loop
      vertex -1.41421 47.5858 4
      vertex -0.765367 47.1522 0
      vertex -1.41421 47.5858 0
    endloop
  endfacet
  facet normal -0.831471 0.555568 0
    outer loop
      vertex 1.41421 47.5858 0
      vertex 1.84776 48.2346 4
      vertex 1.84776 48.2346 0
    endloop
  endfacet
  facet normal -0.831471 0.555568 0
    outer loop
      vertex 1.84776 48.2346 4
      vertex 1.41421 47.5858 0
      vertex 1.41421 47.5858 4
    endloop
  endfacet
  facet normal -0.980785 0.195092 0
    outer loop
      vertex 1.84776 48.2346 0
      vertex 2 49 4
      vertex 2 49 0
    endloop
  endfacet
  facet normal -0.980785 0.195092 0
    outer loop
      vertex 2 49 4
      vertex 1.84776 48.2346 0
      vertex 1.84776 48.2346 4
    endloop
  endfacet
  facet normal -0.980785 -0.19509 0
    outer loop
      vertex 60 49 0
      vertex 59.8478 49.7654 4
      vertex 59.8478 49.7654 0
    endloop
  endfacet
  facet normal -0.980785 -0.19509 0
    outer loop
      vertex 59.8478 49.7654 4
      vertex 60 49 0
      vertex 60 49 4
    endloop
  endfacet
  facet normal -0.19509 -0.980785 0
    outer loop
      vertex 58 51 0
      vertex 58.7654 50.8478 4
      vertex 58 51 4
    endloop
  endfacet
  facet normal -0.19509 -0.980785 -0
    outer loop
      vertex 58.7654 50.8478 4
      vertex 58 51 0
      vertex 58.7654 50.8478 0
    endloop
  endfacet
  facet normal 0.980785 0.19509 0
    outer loop
      vertex 56.1522 48.2346 4
      vertex 56 49 0
      vertex 56 49 4
    endloop
  endfacet
  facet normal 0.980785 0.19509 0
    outer loop
      vertex 56 49 0
      vertex 56.1522 48.2346 4
      vertex 56.1522 48.2346 0
    endloop
  endfacet
  facet normal -0.555567 0.831472 0
    outer loop
      vertex 59.4142 47.5858 0
      vertex 58.7654 47.1522 4
      vertex 59.4142 47.5858 4
    endloop
  endfacet
  facet normal -0.555567 0.831472 0
    outer loop
      vertex 58.7654 47.1522 4
      vertex 59.4142 47.5858 0
      vertex 58.7654 47.1522 0
    endloop
  endfacet
  facet normal -0.19509 0.980785 0
    outer loop
      vertex 58.7654 47.1522 0
      vertex 58 47 4
      vertex 58.7654 47.1522 4
    endloop
  endfacet
  facet normal -0.19509 0.980785 0
    outer loop
      vertex 58 47 4
      vertex 58.7654 47.1522 0
      vertex 58 47 0
    endloop
  endfacet
  facet normal -0.555567 -0.831472 0
    outer loop
      vertex 58.7654 50.8478 0
      vertex 59.4142 50.4142 4
      vertex 58.7654 50.8478 4
    endloop
  endfacet
  facet normal -0.555567 -0.831472 -0
    outer loop
      vertex 59.4142 50.4142 4
      vertex 58.7654 50.8478 0
      vertex 59.4142 50.4142 0
    endloop
  endfacet
  facet normal -0.831472 -0.555567 0
    outer loop
      vertex 59.8478 49.7654 0
      vertex 59.4142 50.4142 4
      vertex 59.4142 50.4142 0
    endloop
  endfacet
  facet normal -0.831472 -0.555567 0
    outer loop
      vertex 59.4142 50.4142 4
      vertex 59.8478 49.7654 0
      vertex 59.8478 49.7654 4
    endloop
  endfacet
  facet normal 0.19509 -0.980785 0
    outer loop
      vertex 57.2346 50.8478 0
      vertex 58 51 4
      vertex 57.2346 50.8478 4
    endloop
  endfacet
  facet normal 0.19509 -0.980785 0
    outer loop
      vertex 58 51 4
      vertex 57.2346 50.8478 0
      vertex 58 51 0
    endloop
  endfacet
  facet normal 0.555567 -0.831472 0
    outer loop
      vertex 56.5858 50.4142 0
      vertex 57.2346 50.8478 4
      vertex 56.5858 50.4142 4
    endloop
  endfacet
  facet normal 0.555567 -0.831472 0
    outer loop
      vertex 57.2346 50.8478 4
      vertex 56.5858 50.4142 0
      vertex 57.2346 50.8478 0
    endloop
  endfacet
  facet normal 0.980785 -0.19509 0
    outer loop
      vertex 56 49 4
      vertex 56.1522 49.7654 0
      vertex 56.1522 49.7654 4
    endloop
  endfacet
  facet normal 0.980785 -0.19509 0
    outer loop
      vertex 56.1522 49.7654 0
      vertex 56 49 4
      vertex 56 49 0
    endloop
  endfacet
  facet normal 0.831472 -0.555567 0
    outer loop
      vertex 56.1522 49.7654 4
      vertex 56.5858 50.4142 0
      vertex 56.5858 50.4142 4
    endloop
  endfacet
  facet normal 0.831472 -0.555567 0
    outer loop
      vertex 56.5858 50.4142 0
      vertex 56.1522 49.7654 4
      vertex 56.1522 49.7654 0
    endloop
  endfacet
  facet normal 0.831472 0.555567 0
    outer loop
      vertex 56.5858 47.5858 4
      vertex 56.1522 48.2346 0
      vertex 56.1522 48.2346 4
    endloop
  endfacet
  facet normal 0.831472 0.555567 0
    outer loop
      vertex 56.1522 48.2346 0
      vertex 56.5858 47.5858 4
      vertex 56.5858 47.5858 0
    endloop
  endfacet
  facet normal 0.19509 0.980785 -0
    outer loop
      vertex 58 47 0
      vertex 57.2346 47.1522 4
      vertex 58 47 4
    endloop
  endfacet
  facet normal 0.19509 0.980785 0
    outer loop
      vertex 57.2346 47.1522 4
      vertex 58 47 0
      vertex 57.2346 47.1522 0
    endloop
  endfacet
  facet normal 0.555567 0.831472 -0
    outer loop
      vertex 57.2346 47.1522 0
      vertex 56.5858 47.5858 4
      vertex 57.2346 47.1522 4
    endloop
  endfacet
  facet normal 0.555567 0.831472 0
    outer loop
      vertex 56.5858 47.5858 4
      vertex 57.2346 47.1522 0
      vertex 56.5858 47.5858 0
    endloop
  endfacet
  facet normal -0.831472 0.555567 0
    outer loop
      vertex 59.4142 47.5858 0
      vertex 59.8478 48.2346 4
      vertex 59.8478 48.2346 0
    endloop
  endfacet
  facet normal -0.831472 0.555567 0
    outer loop
      vertex 59.8478 48.2346 4
      vertex 59.4142 47.5858 0
      vertex 59.4142 47.5858 4
    endloop
  endfacet
  facet normal -0.980785 0.19509 0
    outer loop
      vertex 59.8478 48.2346 0
      vertex 60 49 4
      vertex 60 49 0
    endloop
  endfacet
  facet normal -0.980785 0.19509 0
    outer loop
      vertex 60 49 4
      vertex 59.8478 48.2346 0
      vertex 59.8478 48.2346 4
    endloop
  endfacet
  facet normal -0.980785 -0.19509 0
    outer loop
      vertex 60 0 0
      vertex 59.8478 0.765367 4
      vertex 59.8478 0.765367 0
    endloop
  endfacet
  facet normal -0.980785 -0.19509 0
    outer loop
      vertex 59.8478 0.765367 4
      vertex 60 0 0
      vertex 60 0 4
    endloop
  endfacet
  facet normal 0.980785 0.19509 0
    outer loop
      vertex 56.1522 -0.765367 4
      vertex 56 0 0
      vertex 56 0 4
    endloop
  endfacet
  facet normal 0.980785 0.19509 0
    outer loop
      vertex 56 0 0
      vertex 56.1522 -0.765367 4
      vertex 56.1522 -0.765367 0
    endloop
  endfacet
  facet normal -0.195092 0.980785 0
    outer loop
      vertex 58.7654 -1.84776 0
      vertex 58 -2 4
      vertex 58.7654 -1.84776 4
    endloop
  endfacet
  facet normal -0.195092 0.980785 0
    outer loop
      vertex 58 -2 4
      vertex 58.7654 -1.84776 0
      vertex 58 -2 0
    endloop
  endfacet
  facet normal 0.195092 -0.980785 0
    outer loop
      vertex 57.2346 1.84776 0
      vertex 58 2 4
      vertex 57.2346 1.84776 4
    endloop
  endfacet
  facet normal 0.195092 -0.980785 0
    outer loop
      vertex 58 2 4
      vertex 57.2346 1.84776 0
      vertex 58 2 0
    endloop
  endfacet
  facet normal -0.555568 -0.831471 0
    outer loop
      vertex 58.7654 1.84776 0
      vertex 59.4142 1.41421 4
      vertex 58.7654 1.84776 4
    endloop
  endfacet
  facet normal -0.555568 -0.831471 -0
    outer loop
      vertex 59.4142 1.41421 4
      vertex 58.7654 1.84776 0
      vertex 59.4142 1.41421 0
    endloop
  endfacet
  facet normal -0.83147 -0.555569 0
    outer loop
      vertex 59.8478 0.765367 0
      vertex 59.4142 1.41421 4
      vertex 59.4142 1.41421 0
    endloop
  endfacet
  facet normal -0.83147 -0.555569 0
    outer loop
      vertex 59.4142 1.41421 4
      vertex 59.8478 0.765367 0
      vertex 59.8478 0.765367 4
    endloop
  endfacet
  facet normal -0.195092 -0.980785 0
    outer loop
      vertex 58 2 0
      vertex 58.7654 1.84776 4
      vertex 58 2 4
    endloop
  endfacet
  facet normal -0.195092 -0.980785 -0
    outer loop
      vertex 58.7654 1.84776 4
      vertex 58 2 0
      vertex 58.7654 1.84776 0
    endloop
  endfacet
  facet normal 0.83147 -0.555569 0
    outer loop
      vertex 56.1522 0.765367 4
      vertex 56.5858 1.41421 0
      vertex 56.5858 1.41421 4
    endloop
  endfacet
  facet normal 0.83147 -0.555569 0
    outer loop
      vertex 56.5858 1.41421 0
      vertex 56.1522 0.765367 4
      vertex 56.1522 0.765367 0
    endloop
  endfacet
  facet normal 0.980785 -0.19509 0
    outer loop
      vertex 56 0 4
      vertex 56.1522 0.765367 0
      vertex 56.1522 0.765367 4
    endloop
  endfacet
  facet normal 0.980785 -0.19509 0
    outer loop
      vertex 56.1522 0.765367 0
      vertex 56 0 4
      vertex 56 0 0
    endloop
  endfacet
  facet normal 0.555568 -0.831471 0
    outer loop
      vertex 56.5858 1.41421 0
      vertex 57.2346 1.84776 4
      vertex 56.5858 1.41421 4
    endloop
  endfacet
  facet normal 0.555568 -0.831471 0
    outer loop
      vertex 57.2346 1.84776 4
      vertex 56.5858 1.41421 0
      vertex 57.2346 1.84776 0
    endloop
  endfacet
  facet normal -0.980785 0.19509 0
    outer loop
      vertex 59.8478 -0.765367 0
      vertex 60 0 4
      vertex 60 0 0
    endloop
  endfacet
  facet normal -0.980785 0.19509 0
    outer loop
      vertex 60 0 4
      vertex 59.8478 -0.765367 0
      vertex 59.8478 -0.765367 4
    endloop
  endfacet
  facet normal 0.83147 0.555569 0
    outer loop
      vertex 56.5858 -1.41421 4
      vertex 56.1522 -0.765367 0
      vertex 56.1522 -0.765367 4
    endloop
  endfacet
  facet normal 0.83147 0.555569 0
    outer loop
      vertex 56.1522 -0.765367 0
      vertex 56.5858 -1.41421 4
      vertex 56.5858 -1.41421 0
    endloop
  endfacet
  facet normal -0.555568 0.831471 0
    outer loop
      vertex 59.4142 -1.41421 0
      vertex 58.7654 -1.84776 4
      vertex 59.4142 -1.41421 4
    endloop
  endfacet
  facet normal -0.555568 0.831471 0
    outer loop
      vertex 58.7654 -1.84776 4
      vertex 59.4142 -1.41421 0
      vertex 58.7654 -1.84776 0
    endloop
  endfacet
  facet normal 0.195092 0.980785 -0
    outer loop
      vertex 58 -2 0
      vertex 57.2346 -1.84776 4
      vertex 58 -2 4
    endloop
  endfacet
  facet normal 0.195092 0.980785 0
    outer loop
      vertex 57.2346 -1.84776 4
      vertex 58 -2 0
      vertex 57.2346 -1.84776 0
    endloop
  endfacet
  facet normal 0.555568 0.831471 -0
    outer loop
      vertex 57.2346 -1.84776 0
      vertex 56.5858 -1.41421 4
      vertex 57.2346 -1.84776 4
    endloop
  endfacet
  facet normal 0.555568 0.831471 0
    outer loop
      vertex 56.5858 -1.41421 4
      vertex 57.2346 -1.84776 0
      vertex 56.5858 -1.41421 0
    endloop
  endfacet
  facet normal -0.83147 0.555569 0
    outer loop
      vertex 59.4142 -1.41421 0
      vertex 59.8478 -0.765367 4
      vertex 59.8478 -0.765367 0
    endloop
  endfacet
  facet normal -0.83147 0.555569 0
    outer loop
      vertex 59.8478 -0.765367 4
      vertex 59.4142 -1.41421 0
      vertex 59.4142 -1.41421 4
    endloop
  endfacet
  facet normal 0 -1 0
    outer loop
      vertex -3.5 32.5 2
      vertex -1.5 32.5 4
      vertex -3.5 32.5 4
    endloop
  endfacet
  facet normal 0 -1 -0
    outer loop
      vertex -1.5 32.5 4
      vertex -3.5 32.5 2
      vertex -1.5 32.5 2
    endloop
  endfacet
  facet normal 0 1 -0
    outer loop
      vertex -1.5 17.5 2
      vertex -3.5 17.5 4
      vertex -1.5 17.5 4
    endloop
  endfacet
  facet normal 0 1 0
    outer loop
      vertex -3.5 17.5 4
      vertex -1.5 17.5 2
      vertex -3.5 17.5 2
    endloop
  endfacet
endsolid OpenSCAD_Model
